999
dxfrw 0.5.11
0
SECTION
2
HEADER
9
$ACADVER
1
AC1021
9
$HANDSEED
5
20000
9
$DWGCODEPAGE
3
ANSI_1252
9
$INSBASE
10
0
20
0
30
0
9
$EXTMIN
10
218.69658696
20
187.670815648
30
0
9
$EXTMAX
10
2146.19977228
20
2000.35787786
30
0
9
$LIMMIN
10
0
20
0
9
$LIMMAX
10
2794
20
2159
9
$ORTHOMODE
70
0
9
$LTSCALE
40
10
9
$TEXTSTYLE
7
STANDARD
9
$CLAYER
8
0
9
$DIMASZ
40
30
9
$DIMLFAC
40
1
9
$DIMSCALE
40
1
9
$DIMEXO
40
10
9
$DIMEXE
40
10
9
$DIMTXT
40
25
9
$DIMTSZ
40
0
9
$DIMAUNIT
70
0
9
$DIMADEC
70
0
9
$DIMLUNIT
70
2
9
$DIMSTYLE
2
ISO-25
9
$DIMGAP
40
15.24
9
$DIMTIH
70
1
9
$LUNITS
70
2
9
$LUPREC
70
2
9
$AUNITS
70
0
9
$AUPREC
70
2
9
$SPLINESEGS
70
8
9
$GRIDMODE
70
0
9
$SNAPSTYLE
70
0
9
$PINSBASE
10
0
20
0
30
0
9
$PLIMMIN
10
0
20
0
9
$PLIMMAX
10
420
20
297
9
$INSUNITS
70
4
9
$PSVPSCALE
40
1
0
ENDSEC
0
SECTION
2
CLASSES
0
ENDSEC
0
SECTION
2
TABLES
0
TABLE
2
VPORT
5
8
330
0
100
AcDbSymbolTable
70
1
0
VPORT
5
31
330
2
100
AcDbSymbolTableRecord
100
AcDbViewportTableRecord
2
*ACTIVE
70
0
10
0
20
0
11
1
21
1
12
1408.86357527
22
1085.30376344
13
0
23
0
14
10
24
10
15
10
25
10
16
0
26
0
36
1
17
0
27
0
37
0
40
2170.60752688
41
2.09625668449
42
50
43
0
44
0
50
0
51
0
71
0
72
100
73
1
74
3
75
0
76
0
77
0
78
0
281
0
65
1
110
0
120
0
130
0
111
1
121
0
131
0
112
0
122
1
132
0
79
0
146
0
348
10020
60
7
61
5
292
1
282
1
141
0
142
0
63
250
421
3358443
0
ENDTAB
0
TABLE
2
LTYPE
5
5
330
0
100
AcDbSymbolTable
70
4
0
LTYPE
5
14
330
5
100
AcDbSymbolTableRecord
100
AcDbLinetypeTableRecord
2
ByBlock
70
0
3

72
65
73
0
40
0
0
LTYPE
5
15
330
5
100
AcDbSymbolTableRecord
100
AcDbLinetypeTableRecord
2
ByLayer
70
0
3

72
65
73
0
40
0
0
LTYPE
5
16
330
5
100
AcDbSymbolTableRecord
100
AcDbLinetypeTableRecord
2
Continuous
70
0
3
Solid line
72
65
73
0
40
0
0
LTYPE
5
32
330
5
100
AcDbSymbolTableRecord
100
AcDbLinetypeTableRecord
2
DOT
70
0
3
Dot . . . . . . . . . . . . . . . . . . . . . .
72
65
73
2
40
6.35
49
0
74
0
49
-6.35
74
0
0
LTYPE
5
33
330
5
100
AcDbSymbolTableRecord
100
AcDbLinetypeTableRecord
2
DOT2
70
0
3
Dot (.5x) .....................................
72
65
73
2
40
3.175
49
0
74
0
49
-3.175
74
0
0
LTYPE
5
34
330
5
100
AcDbSymbolTableRecord
100
AcDbLinetypeTableRecord
2
DOTX2
70
0
3
Dot (2x) .  .  .  .  .  .  .  .  .  .  .  .  .
72
65
73
2
40
12.7
49
0
74
0
49
-12.7
74
0
0
LTYPE
5
35
330
5
100
AcDbSymbolTableRecord
100
AcDbLinetypeTableRecord
2
DASHED
70
0
3
Dot . . . . . . . . . . . . . . . . . . . . . .
72
65
73
2
40
19.05
49
12.7
74
0
49
-6.35
74
0
0
LTYPE
5
36
330
5
100
AcDbSymbolTableRecord
100
AcDbLinetypeTableRecord
2
DASHED2
70
0
3
Dashed (.5x) _ _ _ _ _ _ _ _ _ _ _ _ _ _ _ _ _
72
65
73
2
40
9.525
49
6.35
74
0
49
-3.175
74
0
0
LTYPE
5
37
330
5
100
AcDbSymbolTableRecord
100
AcDbLinetypeTableRecord
2
DASHEDX2
70
0
3
Dashed (2x) ____  ____  ____  ____  ____  ___
72
65
73
2
40
38.1
49
25.4
74
0
49
-12.7
74
0
0
LTYPE
5
38
330
5
100
AcDbSymbolTableRecord
100
AcDbLinetypeTableRecord
2
DASHDOT
70
0
3
Dash dot __ . __ . __ . __ . __ . __ . __ . __
72
65
73
4
40
25.4
49
12.7
74
0
49
-6.35
74
0
49
0
74
0
49
-6.35
74
0
0
LTYPE
5
39
330
5
100
AcDbSymbolTableRecord
100
AcDbLinetypeTableRecord
2
DASHDOT2
70
0
3
Dash dot (.5x) _._._._._._._._._._._._._._._.
72
65
73
4
40
12.7
49
6.35
74
0
49
-3.175
74
0
49
0
74
0
49
-3.175
74
0
0
LTYPE
5
3A
330
5
100
AcDbSymbolTableRecord
100
AcDbLinetypeTableRecord
2
DASHDOTX2
70
0
3
Dash dot (2x) ____  .  ____  .  ____  .  ___
72
65
73
4
40
50.8
49
25.4
74
0
49
-12.7
74
0
49
0
74
0
49
-12.7
74
0
0
LTYPE
5
3B
330
5
100
AcDbSymbolTableRecord
100
AcDbLinetypeTableRecord
2
DIVIDE
70
0
3
Divide ____ . . ____ . . ____ . . ____ . . ____
72
65
73
6
40
31.75
49
12.7
74
0
49
-6.35
74
0
49
0
74
0
49
-6.35
74
0
49
0
74
0
49
-6.35
74
0
0
LTYPE
5
3C
330
5
100
AcDbSymbolTableRecord
100
AcDbLinetypeTableRecord
2
DIVIDE2
70
0
3
Divide (.5x) __..__..__..__..__..__..__..__.._
72
65
73
6
40
15.875
49
6.35
74
0
49
-3.175
74
0
49
0
74
0
49
-3.175
74
0
49
0
74
0
49
-3.175
74
0
0
LTYPE
5
3D
330
5
100
AcDbSymbolTableRecord
100
AcDbLinetypeTableRecord
2
DIVIDEX2
70
0
3
Divide (2x) ________  .  .  ________  .  .  _
72
65
73
6
40
63.5
49
25.4
74
0
49
-12.7
74
0
49
0
74
0
49
-12.7
74
0
49
0
74
0
49
-12.7
74
0
0
LTYPE
5
3E
330
5
100
AcDbSymbolTableRecord
100
AcDbLinetypeTableRecord
2
BORDER
70
0
3
Border __ __ . __ __ . __ __ . __ __ . __ __ .
72
65
73
6
40
44.45
49
12.7
74
0
49
-6.35
74
0
49
12.7
74
0
49
-6.35
74
0
49
0
74
0
49
-6.35
74
0
0
LTYPE
5
3F
330
5
100
AcDbSymbolTableRecord
100
AcDbLinetypeTableRecord
2
BORDER2
70
0
3
Border (.5x) __.__.__.__.__.__.__.__.__.__.__.
72
65
73
6
40
22.225
49
6.35
74
0
49
-3.175
74
0
49
6.35
74
0
49
-3.175
74
0
49
0
74
0
49
-3.175
74
0
0
LTYPE
5
40
330
5
100
AcDbSymbolTableRecord
100
AcDbLinetypeTableRecord
2
BORDERX2
70
0
3
Border (2x) ____  ____  .  ____  ____  .  ___
72
65
73
6
40
88.9
49
25.4
74
0
49
-12.7
74
0
49
25.4
74
0
49
-12.7
74
0
49
0
74
0
49
-12.7
74
0
0
LTYPE
5
41
330
5
100
AcDbSymbolTableRecord
100
AcDbLinetypeTableRecord
2
CENTER
70
0
3
Center ____ _ ____ _ ____ _ ____ _ ____ _ ____
72
65
73
4
40
50.8
49
31.75
74
0
49
-6.35
74
0
49
6.35
74
0
49
-6.35
74
0
0
LTYPE
5
42
330
5
100
AcDbSymbolTableRecord
100
AcDbLinetypeTableRecord
2
CENTER2
70
0
3
Center (.5x) ___ _ ___ _ ___ _ ___ _ ___ _ ___
72
65
73
4
40
28.575
49
19.05
74
0
49
-3.175
74
0
49
3.175
74
0
49
-3.175
74
0
0
LTYPE
5
43
330
5
100
AcDbSymbolTableRecord
100
AcDbLinetypeTableRecord
2
CENTERX2
70
0
3
Center (2x) ________  __  ________  __  _____
72
65
73
4
40
101.6
49
63.5
74
0
49
-12.7
74
0
49
12.7
74
0
49
-12.7
74
0
0
ENDTAB
0
TABLE
2
LAYER
5
2
330
0
100
AcDbSymbolTable
70
1
0
LAYER
5
10
330
2
100
AcDbSymbolTableRecord
100
AcDbLayerTableRecord
2
0
70
0
62
7
6
CONTINUOUS
370
-3
390
F
0
LAYER
5
44
330
2
100
AcDbSymbolTableRecord
100
AcDbLayerTableRecord
2
QUOTE
70
0
62
5
6
CONTINUOUS
370
-3
390
F
0
ENDTAB
0
TABLE
2
STYLE
5
3
330
0
100
AcDbSymbolTable
70
3
0
STYLE
5
45
330
2
100
AcDbSymbolTableRecord
100
AcDbTextStyleTableRecord
2
sldtextstyle0
70
0
40
0
41
1
50
0
71
0
42
1
3
sldtextstyle0
4

0
STYLE
5
46
330
2
100
AcDbSymbolTableRecord
100
AcDbTextStyleTableRecord
2
Standard
70
0
40
0
41
1
50
0
71
0
42
1
3
txt
4

0
ENDTAB
0
TABLE
2
VIEW
5
6
330
0
100
AcDbSymbolTable
70
0
0
ENDTAB
0
TABLE
2
UCS
5
7
330
0
100
AcDbSymbolTable
70
0
0
ENDTAB
0
TABLE
2
APPID
5
9
330
0
100
AcDbSymbolTable
70
1
0
APPID
5
12
330
9
100
AcDbSymbolTableRecord
100
AcDbRegAppTableRecord
2
ACAD
70
0
0
ENDTAB
0
TABLE
2
DIMSTYLE
5
A
330
0
100
AcDbSymbolTable
70
1
100
AcDbDimStyleTable
71
1
0
DIMSTYLE
105
47
330
A
100
AcDbSymbolTableRecord
100
AcDbDimStyleTableRecord
2
Standard
70
0
40
1
41
30
42
10
43
0.38
44
10
45
0
46
0
47
0
48
0
140
25
141
0.09
142
0
143
25.4
144
1
145
0
146
1
147
15.24
148
0
71
0
72
0
73
0
74
1
75
0
76
0
77
0
78
0
79
0
170
0
171
2
172
0
173
0
174
0
175
0
176
0
177
0
178
0
179
0
271
4
272
4
273
2
274
2
275
0
276
0
277
2
278
46
279
0
280
0
281
0
282
0
283
1
284
0
285
0
286
0
288
0
289
3
340
Standard
341

371
-2
372
-2
0
ENDTAB
0
TABLE
2
BLOCK_RECORD
5
1
330
0
100
AcDbSymbolTable
70
2
0
BLOCK_RECORD
5
1F
330
1
100
AcDbSymbolTableRecord
100
AcDbBlockTableRecord
2
*Model_Space
70
0
280
1
281
0
0
BLOCK_RECORD
5
1E
330
1
100
AcDbSymbolTableRecord
100
AcDbBlockTableRecord
2
*Paper_Space
70
0
280
1
281
0
0
BLOCK_RECORD
5
48
330
1
100
AcDbSymbolTableRecord
100
AcDbBlockTableRecord
2
_CLOSED
70
0
280
1
281
0
0
BLOCK_RECORD
5
4B
330
1
100
AcDbSymbolTableRecord
100
AcDbBlockTableRecord
2
_D
70
0
280
1
281
0
0
BLOCK_RECORD
5
4E
330
1
100
AcDbSymbolTableRecord
100
AcDbBlockTableRecord
2
_D_1
70
0
280
1
281
0
0
BLOCK_RECORD
5
51
330
1
100
AcDbSymbolTableRecord
100
AcDbBlockTableRecord
2
_D_2
70
0
280
1
281
0
0
BLOCK_RECORD
5
54
330
1
100
AcDbSymbolTableRecord
100
AcDbBlockTableRecord
2
_D_3
70
0
280
1
281
0
0
ENDTAB
0
ENDSEC
0
SECTION
2
BLOCKS
0
BLOCK
5
20
330
1F
100
AcDbEntity
8
0
100
AcDbBlockBegin
2
*Model_Space
70
0
10
0
20
0
30
0
3
*Model_Space
1

0
ENDBLK
5
21
330
1F
100
AcDbEntity
8
0
100
AcDbBlockEnd
0
BLOCK
5
1C
330
1B
100
AcDbEntity
8
0
100
AcDbBlockBegin
2
*Paper_Space
70
0
10
0
20
0
30
0
3
*Paper_Space
1

0
ENDBLK
5
1D
330
1F
100
AcDbEntity
8
0
100
AcDbBlockEnd
0
BLOCK
5
49
330
48
100
AcDbEntity
8
0
100
AcDbBlockBegin
2
_CLOSED
70
0
10
0
20
0
3
_CLOSED
1

0
LINE
5
57
100
AcDbEntity
8
0
6
ByBlock
62
0
370
-1
100
AcDbLine
10
-1
20
0.166667
11
0
21
0
0
LINE
5
58
100
AcDbEntity
8
0
6
ByBlock
62
0
370
-1
100
AcDbLine
10
0
20
0
11
-1
21
-0.166667
0
LINE
5
59
100
AcDbEntity
8
0
6
ByBlock
62
0
370
-1
100
AcDbLine
10
-1
20
0.166667
11
-1
21
-0.166667
0
LINE
5
5A
100
AcDbEntity
8
0
6
ByBlock
62
0
370
-1
100
AcDbLine
10
0
20
0
11
-1
21
0
0
ENDBLK
5
4A
330
48
100
AcDbEntity
8
0
100
AcDbBlockEnd
0
BLOCK
5
4C
330
4B
100
AcDbEntity
8
0
100
AcDbBlockBegin
2
_D
70
0
10
0
20
0
3
_D
1

0
INSERT
5
5B
100
AcDbEntity
8
QUOTE
6
ByLayer
62
5
370
-1
100
AcDbBlockReference
2
_CLOSED
10
356.908312723
20
1987.85787786
30
0
41
30
42
30
43
0
50
180
70
1
71
1
44
0
45
0
0
INSERT
5
5C
100
AcDbEntity
8
QUOTE
6
ByLayer
62
5
370
-1
100
AcDbBlockReference
2
_CLOSED
10
1223.57497939
20
1987.85787786
30
0
41
30
42
30
43
0
50
0
70
1
71
1
44
0
45
0
0
LINE
5
5D
100
AcDbEntity
8
QUOTE
6
ByLayer
62
5
370
-1
100
AcDbLine
10
356.908312723
20
1884.53027544
11
356.908312723
21
1997.85787786
0
LINE
5
5E
100
AcDbEntity
8
QUOTE
6
ByLayer
62
5
370
-1
100
AcDbLine
10
1223.57497939
20
1884.53027544
11
1223.57497939
21
1997.85787786
0
LINE
5
5F
100
AcDbEntity
8
QUOTE
6
ByLayer
62
5
370
-1
100
AcDbLine
10
356.908312723
20
1987.85787786
11
1223.57497939
21
1987.85787786
0
MTEXT
5
60
100
AcDbEntity
8
QUOTE
6
ByLayer
62
5
370
-1
100
AcDbMText
10
762.533314002
20
2020.0845731
30
0
40
25
41
50
71
1
72
1
1
260
7
sldtextstyle0
210
0
220
0
230
1
50
0
73
1
44
1
0
ENDBLK
5
4D
330
4B
100
AcDbEntity
8
0
100
AcDbBlockEnd
0
BLOCK
5
4F
330
4E
100
AcDbEntity
8
0
100
AcDbBlockBegin
2
_D_1
70
0
10
0
20
0
3
_D_1
1

0
INSERT
5
61
100
AcDbEntity
8
QUOTE
6
ByLayer
62
5
370
-1
100
AcDbBlockReference
2
_CLOSED
10
267.307698071
20
1931.19694211
30
0
41
30
42
30
43
0
50
90
70
1
71
1
44
0
45
0
0
INSERT
5
62
100
AcDbEntity
8
QUOTE
6
ByLayer
62
5
370
-1
100
AcDbBlockReference
2
_CLOSED
10
267.307698071
20
1177.86360878
30
0
41
30
42
30
43
0
50
270
70
1
71
1
44
0
45
0
0
LINE
5
63
100
AcDbEntity
8
QUOTE
6
ByLayer
62
5
370
-1
100
AcDbLine
10
654.6860905
20
1931.19694211
11
257.307698071
21
1931.19694211
0
LINE
5
64
100
AcDbEntity
8
QUOTE
6
ByLayer
62
5
370
-1
100
AcDbLine
10
654.6860905
20
1177.86360878
11
257.307698071
21
1177.86360878
0
LINE
5
65
100
AcDbEntity
8
QUOTE
6
ByLayer
62
5
370
-1
100
AcDbLine
10
267.307698071
20
1931.19694211
11
267.307698071
21
1177.86360878
0
MTEXT
5
66
100
AcDbEntity
8
QUOTE
6
ByLayer
62
5
370
-1
100
AcDbMText
10
235.081002831
20
1526.82194339
30
0
40
25
41
50
71
1
72
1
1
226
7
sldtextstyle0
210
0
220
0
230
1
50
90
73
1
44
1
0
ENDBLK
5
50
330
4E
100
AcDbEntity
8
0
100
AcDbBlockEnd
0
BLOCK
5
52
330
51
100
AcDbEntity
8
0
100
AcDbBlockBegin
2
_D_2
70
0
10
0
20
0
3
_D_2
1

0
INSERT
5
67
100
AcDbEntity
8
QUOTE
6
ByLayer
62
5
370
-1
100
AcDbBlockReference
2
_CLOSED
10
342.219037016
20
200.170815648
30
0
41
30
42
30
43
0
50
180
70
1
71
1
44
0
45
0
0
INSERT
5
68
100
AcDbEntity
8
QUOTE
6
ByLayer
62
5
370
-1
100
AcDbBlockReference
2
_CLOSED
10
775.552370349
20
200.170815648
30
0
41
30
42
30
43
0
50
0
70
1
71
1
44
0
45
0
0
LINE
5
69
100
AcDbEntity
8
QUOTE
6
ByLayer
62
5
370
-1
100
AcDbLine
10
342.219037016
20
300.257811064
11
342.219037016
21
190.170815648
0
LINE
5
6A
100
AcDbEntity
8
QUOTE
6
ByLayer
62
5
370
-1
100
AcDbLine
10
775.552370349
20
300.257811064
11
775.552370349
21
190.170815648
0
LINE
5
6B
100
AcDbEntity
8
QUOTE
6
ByLayer
62
5
370
-1
100
AcDbLine
10
342.219037016
20
200.170815648
11
775.552370349
21
200.170815648
0
MTEXT
5
6C
100
AcDbEntity
8
QUOTE
6
ByLayer
62
5
370
-1
100
AcDbMText
10
531.177371628
20
232.397510888
30
0
40
25
41
44.4444444444
71
1
72
1
1
130
7
sldtextstyle0
210
0
220
0
230
1
50
0
73
1
44
1
0
ENDBLK
5
53
330
51
100
AcDbEntity
8
0
100
AcDbBlockEnd
0
BLOCK
5
55
330
54
100
AcDbEntity
8
0
100
AcDbBlockBegin
2
_D_3
70
0
10
0
20
0
3
_D_3
1

0
INSERT
5
6D
100
AcDbEntity
8
QUOTE
6
ByLayer
62
5
370
-1
100
AcDbBlockReference
2
_CLOSED
10
275.063768503
20
283.591144397
30
0
41
30
42
30
43
0
50
270
70
1
71
1
44
0
45
0
0
INSERT
5
6E
100
AcDbEntity
8
QUOTE
6
ByLayer
62
5
370
-1
100
AcDbBlockReference
2
_CLOSED
10
275.063768503
20
1036.92447773
30
0
41
30
42
30
43
0
50
90
70
1
71
1
44
0
45
0
0
LINE
5
6F
100
AcDbEntity
8
QUOTE
6
ByLayer
62
5
370
-1
100
AcDbLine
10
514.441259238
20
283.591144397
11
265.063768503
21
283.591144397
0
LINE
5
70
100
AcDbEntity
8
QUOTE
6
ByLayer
62
5
370
-1
100
AcDbLine
10
514.441259238
20
1036.92447773
11
265.063768503
21
1036.92447773
0
LINE
5
71
100
AcDbEntity
8
QUOTE
6
ByLayer
62
5
370
-1
100
AcDbLine
10
275.063768503
20
283.591144397
11
275.063768503
21
1036.92447773
0
MTEXT
5
72
100
AcDbEntity
8
QUOTE
6
ByLayer
62
5
370
-1
100
AcDbMText
10
242.837073263
20
632.54947901
30
0
40
25
41
50
71
1
72
1
1
226
7
sldtextstyle0
210
0
220
0
230
1
50
90
73
1
44
1
0
ENDBLK
5
56
330
54
100
AcDbEntity
8
0
100
AcDbBlockEnd
0
ENDSEC
0
SECTION
2
ENTITIES
0
LINE
5
73
100
AcDbEntity
8
0
6
CONTINUOUS
62
7
370
-1
100
AcDbLine
10
1041.35275336
20
1931.19693896
11
972.463865596
21
1931.19693896
0
LINE
5
74
100
AcDbEntity
8
0
6
CONTINUOUS
62
7
370
-1
100
AcDbLine
10
1166.90831087
20
1931.19693896
11
1098.01943552
21
1931.19693896
0
LINE
5
75
100
AcDbEntity
8
0
6
CONTINUOUS
62
7
370
-1
100
AcDbLine
10
1166.90831087
20
1931.19693896
11
1166.90831087
21
1904.53026793
0
LINE
5
76
100
AcDbEntity
8
0
6
CONTINUOUS
62
7
370
-1
100
AcDbLine
10
1166.90831087
20
1904.53026793
11
1196.90830958
21
1904.53026793
0
LINE
5
77
100
AcDbEntity
8
0
6
CONTINUOUS
62
7
370
-1
100
AcDbLine
10
1196.90830958
20
1874.5302568
11
1223.57498061
21
1874.5302568
0
LINE
5
78
100
AcDbEntity
8
0
6
CONTINUOUS
62
7
370
-1
100
AcDbLine
10
1196.90830958
20
1824.53025481
11
1196.90830958
21
1767.86362232
0
LINE
5
79
100
AcDbEntity
8
0
6
CONTINUOUS
62
7
370
-1
100
AcDbLine
10
1223.57498061
20
1767.86362232
11
1223.57498061
21
1717.86362033
0
LINE
5
7A
100
AcDbEntity
8
0
6
CONTINUOUS
62
7
370
-1
100
AcDbLine
10
1223.57498061
20
1497.86359669
11
1196.90830958
21
1497.86359669
0
LINE
5
7B
100
AcDbEntity
8
0
6
CONTINUOUS
62
7
370
-1
100
AcDbLine
10
1223.57498061
20
1447.86361954
11
1223.57498061
21
1497.86359669
0
LINE
5
7C
100
AcDbEntity
8
0
6
CONTINUOUS
62
7
370
-1
100
AcDbLine
10
1196.90830958
20
1447.86361954
11
1223.57498061
21
1447.86361954
0
LINE
5
7D
100
AcDbEntity
8
0
6
CONTINUOUS
62
7
370
-1
100
AcDbLine
10
1196.90830958
20
1391.19693738
11
1196.90830958
21
1447.86361954
0
LINE
5
7E
100
AcDbEntity
8
0
6
CONTINUOUS
62
7
370
-1
100
AcDbLine
10
1223.57498061
20
1391.19693738
11
1196.90830958
21
1391.19693738
0
LINE
5
7F
100
AcDbEntity
8
0
6
CONTINUOUS
62
7
370
-1
100
AcDbLine
10
1223.57498061
20
1341.19693539
11
1223.57498061
21
1391.19693738
0
LINE
5
80
100
AcDbEntity
8
0
6
CONTINUOUS
62
7
370
-1
100
AcDbLine
10
1196.90830958
20
1341.19693539
11
1223.57498061
21
1341.19693539
0
LINE
5
81
100
AcDbEntity
8
0
6
CONTINUOUS
62
7
370
-1
100
AcDbLine
10
1196.90830958
20
1284.53027806
11
1196.90830958
21
1341.19693539
0
LINE
5
82
100
AcDbEntity
8
0
6
CONTINUOUS
62
7
370
-1
100
AcDbLine
10
1223.57498061
20
1284.53027806
11
1196.90830958
21
1284.53027806
0
LINE
5
83
100
AcDbEntity
8
0
6
CONTINUOUS
62
7
370
-1
100
AcDbLine
10
1223.57498061
20
1234.53027607
11
1223.57498061
21
1284.53027806
0
LINE
5
84
100
AcDbEntity
8
0
6
CONTINUOUS
62
7
370
-1
100
AcDbLine
10
1196.90830958
20
1234.53027607
11
1223.57498061
21
1234.53027607
0
LINE
5
85
100
AcDbEntity
8
0
6
CONTINUOUS
62
7
370
-1
100
AcDbLine
10
1196.90830958
20
1204.53027736
11
1196.90830958
21
1234.53027607
0
LINE
5
86
100
AcDbEntity
8
0
6
CONTINUOUS
62
7
370
-1
100
AcDbLine
10
1166.90831087
20
1204.53027736
11
1196.90830958
21
1204.53027736
0
LINE
5
87
100
AcDbEntity
8
0
6
CONTINUOUS
62
7
370
-1
100
AcDbLine
10
1166.90831087
20
1177.86360633
11
1166.90831087
21
1204.53027736
0
LINE
5
88
100
AcDbEntity
8
0
6
CONTINUOUS
62
7
370
-1
100
AcDbLine
10
1166.90831087
20
1177.86360633
11
1098.01943552
21
1177.86360633
0
LINE
5
89
100
AcDbEntity
8
0
6
CONTINUOUS
62
7
370
-1
100
AcDbLine
10
1098.01943552
20
1204.53027736
11
1098.01943552
21
1177.86360633
0
LINE
5
8A
100
AcDbEntity
8
0
6
CONTINUOUS
62
7
370
-1
100
AcDbLine
10
1041.35275336
20
1204.53027736
11
1098.01943552
21
1204.53027736
0
LINE
5
8B
100
AcDbEntity
8
0
6
CONTINUOUS
62
7
370
-1
100
AcDbLine
10
1041.35275336
20
1177.86360633
11
1041.35275336
21
1204.53027736
0
LINE
5
8C
100
AcDbEntity
8
0
6
CONTINUOUS
62
7
370
-1
100
AcDbLine
10
1041.35275336
20
1177.86360633
11
972.463865596
21
1177.86360633
0
LINE
5
8D
100
AcDbEntity
8
0
6
CONTINUOUS
62
7
370
-1
100
AcDbLine
10
972.463865596
20
1204.53027736
11
972.463865596
21
1177.86360633
0
LINE
5
8E
100
AcDbEntity
8
0
6
CONTINUOUS
62
7
370
-1
100
AcDbLine
10
915.797208268
20
1204.53027736
11
972.463865596
21
1204.53027736
0
LINE
5
8F
100
AcDbEntity
8
0
6
CONTINUOUS
62
7
370
-1
100
AcDbLine
10
915.797208268
20
1177.86360633
11
915.797208268
21
1204.53027736
0
LINE
5
90
100
AcDbEntity
8
0
6
CONTINUOUS
62
7
370
-1
100
AcDbLine
10
915.797208268
20
1177.86360633
11
846.908320505
21
1177.86360633
0
LINE
5
91
100
AcDbEntity
8
0
6
CONTINUOUS
62
7
370
-1
100
AcDbLine
10
846.908320505
20
1204.53027736
11
846.908320505
21
1177.86360633
0
LINE
5
92
100
AcDbEntity
8
0
6
CONTINUOUS
62
7
370
-1
100
AcDbLine
10
733.574956177
20
1204.53027736
11
846.908320505
21
1204.53027736
0
LINE
5
93
100
AcDbEntity
8
0
6
CONTINUOUS
62
7
370
-1
100
AcDbLine
10
733.574956177
20
1204.53027736
11
733.574956177
21
1177.86360633
0
LINE
5
94
100
AcDbEntity
8
0
6
CONTINUOUS
62
7
370
-1
100
AcDbLine
10
664.686093249
20
1177.86360633
11
664.686093249
21
1204.53027736
0
LINE
5
95
100
AcDbEntity
8
0
6
CONTINUOUS
62
7
370
-1
100
AcDbLine
10
539.130548158
20
1177.86360633
11
608.019411085
21
1177.86360633
0
LINE
5
96
100
AcDbEntity
8
0
6
CONTINUOUS
62
7
370
-1
100
AcDbLine
10
413.575003066
20
1177.86360633
11
482.463865994
21
1177.86360633
0
LINE
5
97
100
AcDbEntity
8
0
6
CONTINUOUS
62
7
370
-1
100
AcDbLine
10
413.575003066
20
1177.86360633
11
413.575003066
21
1204.53027736
0
LINE
5
98
100
AcDbEntity
8
0
6
CONTINUOUS
62
7
370
-1
100
AcDbLine
10
413.575003066
20
1204.53027736
11
383.57499194
21
1204.53027736
0
LINE
5
99
100
AcDbEntity
8
0
6
CONTINUOUS
62
7
370
-1
100
AcDbLine
10
356.908271232
20
1234.53027607
11
356.908271232
21
1284.53027806
0
LINE
5
9A
100
AcDbEntity
8
0
6
CONTINUOUS
62
7
370
-1
100
AcDbLine
10
356.908271232
20
1284.53027806
11
383.57499194
21
1284.53027806
0
LINE
5
9B
100
AcDbEntity
8
0
6
CONTINUOUS
62
7
370
-1
100
AcDbLine
10
383.57499194
20
1284.53027806
11
383.57499194
21
1341.19693539
0
LINE
5
9C
100
AcDbEntity
8
0
6
CONTINUOUS
62
7
370
-1
100
AcDbLine
10
383.57499194
20
1341.19693539
11
356.908271232
21
1341.19693539
0
LINE
5
9D
100
AcDbEntity
8
0
6
CONTINUOUS
62
7
370
-1
100
AcDbLine
10
356.908271232
20
1341.19693539
11
356.908271232
21
1391.19693738
0
LINE
5
9E
100
AcDbEntity
8
0
6
CONTINUOUS
62
7
370
-1
100
AcDbLine
10
356.908271232
20
1391.19693738
11
383.57499194
21
1391.19693738
0
LINE
5
9F
100
AcDbEntity
8
0
6
CONTINUOUS
62
7
370
-1
100
AcDbLine
10
383.57499194
20
1611.19693618
11
383.57499194
21
1497.86359669
0
LINE
5
A0
100
AcDbEntity
8
0
6
CONTINUOUS
62
7
370
-1
100
AcDbLine
10
356.908271232
20
1611.19693618
11
383.57499194
21
1611.19693618
0
LINE
5
A1
100
AcDbEntity
8
0
6
CONTINUOUS
62
7
370
-1
100
AcDbLine
10
383.57499194
20
1661.19693817
11
356.908271232
21
1661.19693817
0
LINE
5
A2
100
AcDbEntity
8
0
6
CONTINUOUS
62
7
370
-1
100
AcDbLine
10
383.57499194
20
1717.86362033
11
383.57499194
21
1661.19693817
0
LINE
5
A3
100
AcDbEntity
8
0
6
CONTINUOUS
62
7
370
-1
100
AcDbLine
10
356.908271232
20
1717.86362033
11
383.57499194
21
1717.86362033
0
LINE
5
A4
100
AcDbEntity
8
0
6
CONTINUOUS
62
7
370
-1
100
AcDbLine
10
383.57499194
20
1767.86362232
11
356.908271232
21
1767.86362232
0
LINE
5
A5
100
AcDbEntity
8
0
6
CONTINUOUS
62
7
370
-1
100
AcDbLine
10
383.57499194
20
1824.53025481
11
383.57499194
21
1767.86362232
0
LINE
5
A6
100
AcDbEntity
8
0
6
CONTINUOUS
62
7
370
-1
100
AcDbLine
10
356.908271232
20
1824.53025481
11
383.57499194
21
1824.53025481
0
LINE
5
A7
100
AcDbEntity
8
0
6
CONTINUOUS
62
7
370
-1
100
AcDbLine
10
383.57499194
20
1874.5302568
11
356.908271232
21
1874.5302568
0
LINE
5
A8
100
AcDbEntity
8
0
6
CONTINUOUS
62
7
370
-1
100
AcDbLine
10
383.57499194
20
1904.53026793
11
383.57499194
21
1874.5302568
0
LINE
5
A9
100
AcDbEntity
8
0
6
CONTINUOUS
62
7
370
-1
100
AcDbLine
10
413.575003066
20
1904.53026793
11
383.57499194
21
1904.53026793
0
LINE
5
AA
100
AcDbEntity
8
0
6
CONTINUOUS
62
7
370
-1
100
AcDbLine
10
413.575003066
20
1931.19693896
11
413.575003066
21
1904.53026793
0
LINE
5
AB
100
AcDbEntity
8
0
6
CONTINUOUS
62
7
370
-1
100
AcDbLine
10
482.463865994
20
1904.53026793
11
482.463865994
21
1931.19693896
0
LINE
5
AC
100
AcDbEntity
8
0
6
CONTINUOUS
62
7
370
-1
100
AcDbLine
10
539.130548158
20
1904.53026793
11
482.463865994
21
1904.53026793
0
LINE
5
AD
100
AcDbEntity
8
0
6
CONTINUOUS
62
7
370
-1
100
AcDbLine
10
539.130548158
20
1931.19693896
11
539.130548158
21
1904.53026793
0
LINE
5
AE
100
AcDbEntity
8
0
6
CONTINUOUS
62
7
370
-1
100
AcDbLine
10
539.130548158
20
1931.19693896
11
608.019411085
21
1931.19693896
0
LINE
5
AF
100
AcDbEntity
8
0
6
CONTINUOUS
62
7
370
-1
100
AcDbLine
10
608.019411085
20
1904.53026793
11
608.019411085
21
1931.19693896
0
LINE
5
B0
100
AcDbEntity
8
0
6
CONTINUOUS
62
7
370
-1
100
AcDbLine
10
664.686093249
20
1904.53026793
11
608.019411085
21
1904.53026793
0
LINE
5
B1
100
AcDbEntity
8
0
6
CONTINUOUS
62
7
370
-1
100
AcDbLine
10
664.686093249
20
1931.19693896
11
664.686093249
21
1904.53026793
0
LINE
5
B2
100
AcDbEntity
8
0
6
CONTINUOUS
62
7
370
-1
100
AcDbLine
10
733.574956177
20
1904.53026793
11
733.574956177
21
1931.19693896
0
LINE
5
B3
100
AcDbEntity
8
0
6
CONTINUOUS
62
7
370
-1
100
AcDbLine
10
915.797208268
20
1931.19693896
11
846.908320505
21
1931.19693896
0
ELLIPSE
5
B4
100
AcDbEntity
8
0
6
CONTINUOUS
62
7
370
-1
100
AcDbEllipse
10
790.241646056
20
1554.53027544
30
0
11
356.666666667
21
0
31
0
40
0.8411214953
41
0
42
6.28318530718
0
LINE
5
B5
100
AcDbEntity
8
0
6
CONTINUOUS
62
7
370
-1
100
AcDbLine
10
383.57499194
20
1447.86361954
11
356.908271232
21
1447.86361954
0
LINE
5
B6
100
AcDbEntity
8
0
6
CONTINUOUS
62
7
370
-1
100
AcDbLine
10
1223.57498061
20
1874.5302568
11
1223.57498061
21
1824.53025481
0
LINE
5
B7
100
AcDbEntity
8
0
6
CONTINUOUS
62
7
370
-1
100
AcDbLine
10
972.463865596
20
1904.53026793
11
972.463865596
21
1931.19693896
0
LINE
5
B8
100
AcDbEntity
8
0
6
CONTINUOUS
62
7
370
-1
100
AcDbLine
10
1041.35275336
20
1904.53026793
11
1098.01943552
21
1904.53026793
0
LINE
5
B9
100
AcDbEntity
8
0
6
CONTINUOUS
62
7
370
-1
100
AcDbLine
10
1196.90830958
20
1717.86362033
11
1196.90830958
21
1661.19693817
0
LINE
5
BA
100
AcDbEntity
8
0
6
CONTINUOUS
62
7
370
-1
100
AcDbLine
10
1196.90830958
20
1661.19693817
11
1223.57498061
21
1661.19693817
0
LINE
5
BB
100
AcDbEntity
8
0
6
CONTINUOUS
62
7
370
-1
100
AcDbLine
10
356.908271232
20
1661.19693817
11
356.908271232
21
1611.19693618
0
LINE
5
BC
100
AcDbEntity
8
0
6
CONTINUOUS
62
7
370
-1
100
AcDbLine
10
664.686093249
20
1931.19693896
11
733.574956177
21
1931.19693896
0
LINE
5
BD
100
AcDbEntity
8
0
6
CONTINUOUS
62
7
370
-1
100
AcDbLine
10
356.908271232
20
1874.5302568
11
356.908271232
21
1824.53025481
0
LINE
5
BE
100
AcDbEntity
8
0
6
CONTINUOUS
62
7
370
-1
100
AcDbLine
10
356.908271232
20
1497.86359669
11
383.57499194
21
1497.86359669
0
LINE
5
BF
100
AcDbEntity
8
0
6
CONTINUOUS
62
7
370
-1
100
AcDbLine
10
413.575003066
20
1931.19693896
11
482.463865994
21
1931.19693896
0
LINE
5
C0
100
AcDbEntity
8
0
6
CONTINUOUS
62
7
370
-1
100
AcDbLine
10
664.686093249
20
1204.53027736
11
608.019411085
21
1204.53027736
0
LINE
5
C1
100
AcDbEntity
8
0
6
CONTINUOUS
62
7
370
-1
100
AcDbLine
10
608.019411085
20
1204.53027736
11
608.019411085
21
1177.86360633
0
LINE
5
C2
100
AcDbEntity
8
0
6
CONTINUOUS
62
7
370
-1
100
AcDbLine
10
539.130548158
20
1177.86360633
11
539.130548158
21
1204.53027736
0
LINE
5
C3
100
AcDbEntity
8
0
6
CONTINUOUS
62
7
370
-1
100
AcDbLine
10
539.130548158
20
1204.53027736
11
482.463865994
21
1204.53027736
0
LINE
5
C4
100
AcDbEntity
8
0
6
CONTINUOUS
62
7
370
-1
100
AcDbLine
10
482.463865994
20
1204.53027736
11
482.463865994
21
1177.86360633
0
LINE
5
C5
100
AcDbEntity
8
0
6
CONTINUOUS
62
7
370
-1
100
AcDbLine
10
383.57499194
20
1391.19693738
11
383.57499194
21
1447.86361954
0
LINE
5
C6
100
AcDbEntity
8
0
6
CONTINUOUS
62
7
370
-1
100
AcDbLine
10
915.797208268
20
1931.19693896
11
915.797208268
21
1904.53026793
0
LINE
5
C7
100
AcDbEntity
8
0
6
CONTINUOUS
62
7
370
-1
100
AcDbLine
10
915.797208268
20
1904.53026793
11
972.463865596
21
1904.53026793
0
LINE
5
C8
100
AcDbEntity
8
0
6
CONTINUOUS
62
7
370
-1
100
AcDbLine
10
664.686093249
20
1177.86360633
11
733.574956177
21
1177.86360633
0
LINE
5
C9
100
AcDbEntity
8
0
6
CONTINUOUS
62
7
370
-1
100
AcDbLine
10
1041.35275336
20
1931.19693896
11
1041.35275336
21
1904.53026793
0
LINE
5
CA
100
AcDbEntity
8
0
6
CONTINUOUS
62
7
370
-1
100
AcDbLine
10
1196.90830958
20
1767.86362232
11
1223.57498061
21
1767.86362232
0
LINE
5
CB
100
AcDbEntity
8
0
6
CONTINUOUS
62
7
370
-1
100
AcDbLine
10
1098.01943552
20
1904.53026793
11
1098.01943552
21
1931.19693896
0
LINE
5
CC
100
AcDbEntity
8
0
6
CONTINUOUS
62
7
370
-1
100
AcDbLine
10
1223.57498061
20
1717.86362033
11
1196.90830958
21
1717.86362033
0
LINE
5
CD
100
AcDbEntity
8
0
6
CONTINUOUS
62
7
370
-1
100
AcDbLine
10
383.57499194
20
1204.53027736
11
383.57499194
21
1234.53027607
0
LINE
5
CE
100
AcDbEntity
8
0
6
CONTINUOUS
62
7
370
-1
100
AcDbLine
10
383.57499194
20
1234.53027607
11
356.908271232
21
1234.53027607
0
LINE
5
CF
100
AcDbEntity
8
0
6
CONTINUOUS
62
7
370
-1
100
AcDbLine
10
356.908271232
20
1447.86361954
11
356.908271232
21
1497.86359669
0
LINE
5
D0
100
AcDbEntity
8
0
6
CONTINUOUS
62
7
370
-1
100
AcDbLine
10
1223.57498061
20
1661.19693817
11
1223.57498061
21
1611.19693618
0
LINE
5
D1
100
AcDbEntity
8
0
6
CONTINUOUS
62
7
370
-1
100
AcDbLine
10
1223.57498061
20
1824.53025481
11
1196.90830958
21
1824.53025481
0
LINE
5
D2
100
AcDbEntity
8
0
6
CONTINUOUS
62
7
370
-1
100
AcDbLine
10
1223.57498061
20
1611.19693618
11
1196.90830958
21
1611.19693618
0
LINE
5
D3
100
AcDbEntity
8
0
6
CONTINUOUS
62
7
370
-1
100
AcDbLine
10
1196.90830958
20
1904.53026793
11
1196.90830958
21
1874.5302568
0
LINE
5
D4
100
AcDbEntity
8
0
6
CONTINUOUS
62
7
370
-1
100
AcDbLine
10
733.574956177
20
1904.53026793
11
846.908320505
21
1904.53026793
0
LINE
5
D5
100
AcDbEntity
8
0
6
CONTINUOUS
62
7
370
-1
100
AcDbLine
10
1196.90830958
20
1611.19693618
11
1196.90830958
21
1497.86359669
0
LINE
5
D6
100
AcDbEntity
8
0
6
CONTINUOUS
62
7
370
-1
100
AcDbLine
10
356.908271232
20
1767.86362232
11
356.908271232
21
1717.86362033
0
LINE
5
D7
100
AcDbEntity
8
0
6
CONTINUOUS
62
7
370
-1
100
AcDbLine
10
846.908320505
20
1904.53026793
11
846.908320505
21
1931.19693896
0
LINE
5
D8
100
AcDbEntity
8
0
6
CONTINUOUS
62
7
370
-1
100
AcDbLine
10
1815.7972192
20
1936.92449829
11
1815.7972192
21
1910.25782726
0
LINE
5
D9
100
AcDbEntity
8
0
6
CONTINUOUS
62
7
370
-1
100
AcDbLine
10
1815.7972192
20
1910.25782726
11
1872.46385169
21
1910.25782726
0
LINE
5
DA
100
AcDbEntity
8
0
6
CONTINUOUS
62
7
370
-1
100
AcDbLine
10
1872.46385169
20
1910.25782726
11
1872.46385169
21
1936.92449829
0
LINE
5
DB
100
AcDbEntity
8
0
6
CONTINUOUS
62
7
370
-1
100
AcDbLine
10
1941.35276429
20
1936.92449829
11
1941.35276429
21
1910.25782726
0
LINE
5
DC
100
AcDbEntity
8
0
6
CONTINUOUS
62
7
370
-1
100
AcDbLine
10
1941.35276429
20
1910.25782726
11
1998.01944645
21
1910.25782726
0
LINE
5
DD
100
AcDbEntity
8
0
6
CONTINUOUS
62
7
370
-1
100
AcDbLine
10
1998.01944645
20
1910.25782726
11
1998.01944645
21
1936.92449829
0
LINE
5
DE
100
AcDbEntity
8
0
6
CONTINUOUS
62
7
370
-1
100
AcDbLine
10
2066.90830938
20
1936.92449829
11
2066.90830938
21
1910.25782726
0
LINE
5
DF
100
AcDbEntity
8
0
6
CONTINUOUS
62
7
370
-1
100
AcDbLine
10
2066.90830938
20
1910.25782726
11
2096.9083205
21
1910.25782726
0
LINE
5
E0
100
AcDbEntity
8
0
6
CONTINUOUS
62
7
370
-1
100
AcDbLine
10
2096.9083205
20
1910.25782726
11
2096.9083205
21
1880.25781613
0
LINE
5
E1
100
AcDbEntity
8
0
6
CONTINUOUS
62
7
370
-1
100
AcDbLine
10
2096.9083205
20
1880.25781613
11
2123.57499154
21
1880.25781613
0
LINE
5
E2
100
AcDbEntity
8
0
6
CONTINUOUS
62
7
370
-1
100
AcDbLine
10
2123.57499154
20
1880.25781613
11
2123.57499154
21
1830.25781414
0
LINE
5
E3
100
AcDbEntity
8
0
6
CONTINUOUS
62
7
370
-1
100
AcDbLine
10
2123.57499154
20
1830.25781414
11
2096.9083205
21
1830.25781414
0
LINE
5
E4
100
AcDbEntity
8
0
6
CONTINUOUS
62
7
370
-1
100
AcDbLine
10
2096.9083205
20
1830.25781414
11
2096.9083205
21
1773.59113198
0
LINE
5
E5
100
AcDbEntity
8
0
6
CONTINUOUS
62
7
370
-1
100
AcDbLine
10
2096.9083205
20
1773.59113198
11
2123.57499154
21
1773.59113198
0
LINE
5
E6
100
AcDbEntity
8
0
6
CONTINUOUS
62
7
370
-1
100
AcDbLine
10
2123.57499154
20
1773.59113198
11
2123.57499154
21
1723.59112999
0
LINE
5
E7
100
AcDbEntity
8
0
6
CONTINUOUS
62
7
370
-1
100
AcDbLine
10
2123.57499154
20
1723.59112999
11
2096.9083205
21
1723.59112999
0
LINE
5
E8
100
AcDbEntity
8
0
6
CONTINUOUS
62
7
370
-1
100
AcDbLine
10
2096.9083205
20
1723.59112999
11
2096.9083205
21
1666.9244975
0
LINE
5
E9
100
AcDbEntity
8
0
6
CONTINUOUS
62
7
370
-1
100
AcDbLine
10
2096.9083205
20
1666.9244975
11
2123.57499154
21
1666.9244975
0
LINE
5
EA
100
AcDbEntity
8
0
6
CONTINUOUS
62
7
370
-1
100
AcDbLine
10
2123.57499154
20
1666.9244975
11
2123.57499154
21
1616.92449551
0
LINE
5
EB
100
AcDbEntity
8
0
6
CONTINUOUS
62
7
370
-1
100
AcDbLine
10
2123.57499154
20
1616.92449551
11
2096.9083205
21
1616.92449551
0
LINE
5
EC
100
AcDbEntity
8
0
6
CONTINUOUS
62
7
370
-1
100
AcDbLine
10
2096.9083205
20
1616.92449551
11
2096.9083205
21
1503.59115602
0
LINE
5
ED
100
AcDbEntity
8
0
6
CONTINUOUS
62
7
370
-1
100
AcDbLine
10
2123.57499154
20
1503.59115602
11
2096.9083205
21
1503.59115602
0
LINE
5
EE
100
AcDbEntity
8
0
6
CONTINUOUS
62
7
370
-1
100
AcDbLine
10
1746.9083066
20
1210.25781186
11
1746.9083066
21
1183.59114703
0
LINE
5
EF
100
AcDbEntity
8
0
6
CONTINUOUS
62
7
370
-1
100
AcDbLine
10
1439.13053425
20
1183.59114703
11
1508.01942201
21
1183.59114703
0
LINE
5
F0
100
AcDbEntity
8
0
6
CONTINUOUS
62
7
370
-1
100
AcDbLine
10
1283.57497803
20
1210.25781186
11
1283.57497803
21
1240.25781057
0
LINE
5
F1
100
AcDbEntity
8
0
6
CONTINUOUS
62
7
370
-1
100
AcDbLine
10
1283.57497803
20
1240.25781057
11
1256.9083132
21
1240.25781057
0
LINE
5
F2
100
AcDbEntity
8
0
6
CONTINUOUS
62
7
370
-1
100
AcDbLine
10
1283.57497803
20
1453.59115403
11
1256.9083132
21
1453.59115403
0
LINE
5
F3
100
AcDbEntity
8
0
6
CONTINUOUS
62
7
370
-1
100
AcDbLine
10
1256.9083132
20
1666.9244975
11
1256.9083132
21
1616.92449551
0
LINE
5
F4
100
AcDbEntity
8
0
6
CONTINUOUS
62
7
370
-1
100
AcDbLine
10
1256.9083132
20
1773.59113198
11
1256.9083132
21
1723.59112999
0
LINE
5
F5
100
AcDbEntity
8
0
6
CONTINUOUS
62
7
370
-1
100
AcDbLine
10
1283.57497803
20
1773.59113198
11
1256.9083132
21
1773.59113198
0
LINE
5
F6
100
AcDbEntity
8
0
6
CONTINUOUS
62
7
370
-1
100
AcDbLine
10
1283.57497803
20
1830.25781414
11
1283.57497803
21
1773.59113198
0
LINE
5
F7
100
AcDbEntity
8
0
6
CONTINUOUS
62
7
370
-1
100
AcDbLine
10
1256.9083132
20
1830.25781414
11
1283.57497803
21
1830.25781414
0
LINE
5
F8
100
AcDbEntity
8
0
6
CONTINUOUS
62
7
370
-1
100
AcDbLine
10
1256.9083132
20
1880.25781613
11
1256.9083132
21
1830.25781414
0
LINE
5
F9
100
AcDbEntity
8
0
6
CONTINUOUS
62
7
370
-1
100
AcDbLine
10
1283.57497803
20
1880.25781613
11
1256.9083132
21
1880.25781613
0
LINE
5
FA
100
AcDbEntity
8
0
6
CONTINUOUS
62
7
370
-1
100
AcDbLine
10
1283.57497803
20
1910.25782726
11
1283.57497803
21
1880.25781613
0
LINE
5
FB
100
AcDbEntity
8
0
6
CONTINUOUS
62
7
370
-1
100
AcDbLine
10
1313.57497907
20
1910.25782726
11
1283.57497803
21
1910.25782726
0
LINE
5
FC
100
AcDbEntity
8
0
6
CONTINUOUS
62
7
370
-1
100
AcDbLine
10
1313.57497907
20
1936.92449829
11
1313.57497907
21
1910.25782726
0
LINE
5
FD
100
AcDbEntity
8
0
6
CONTINUOUS
62
7
370
-1
100
AcDbLine
10
1313.57497907
20
1936.92449829
11
1382.46387071
21
1936.92449829
0
LINE
5
FE
100
AcDbEntity
8
0
6
CONTINUOUS
62
7
370
-1
100
AcDbLine
10
1439.13053425
20
1936.92449829
11
1508.01942201
21
1936.92449829
0
LINE
5
FF
100
AcDbEntity
8
0
6
CONTINUOUS
62
7
370
-1
100
AcDbLine
10
1564.68607934
20
1936.92449829
11
1633.5749671
21
1936.92449829
0
LINE
5
100
100
AcDbEntity
8
0
6
CONTINUOUS
62
7
370
-1
100
AcDbLine
10
1633.5749671
20
1910.25782726
11
1746.9083066
21
1910.25782726
0
LINE
5
101
100
AcDbEntity
8
0
6
CONTINUOUS
62
7
370
-1
100
AcDbLine
10
1746.9083066
20
1910.25782726
11
1746.9083066
21
1936.92449829
0
LINE
5
102
100
AcDbEntity
8
0
6
CONTINUOUS
62
7
370
-1
100
AcDbLine
10
1815.7972192
20
1936.92449829
11
1746.9083066
21
1936.92449829
0
LINE
5
103
100
AcDbEntity
8
0
6
CONTINUOUS
62
7
370
-1
100
AcDbLine
10
1815.7972192
20
1183.59114703
11
1815.7972192
21
1210.25781186
0
LINE
5
104
100
AcDbEntity
8
0
6
CONTINUOUS
62
7
370
-1
100
AcDbLine
10
1508.01942201
20
1910.25782726
11
1508.01942201
21
1936.92449829
0
ELLIPSE
5
105
100
AcDbEntity
8
0
6
CONTINUOUS
62
7
370
-1
100
AcDbEllipse
10
1690.24164606
20
1560.25781106
30
0
11
356.666666667
21
0
31
0
40
0.8411214953
41
0
42
6.28318530718
0
LINE
5
106
100
AcDbEntity
8
0
6
CONTINUOUS
62
7
370
-1
100
AcDbLine
10
1633.5749671
20
1210.25781186
11
1633.5749671
21
1183.59114703
0
LINE
5
107
100
AcDbEntity
8
0
6
CONTINUOUS
62
7
370
-1
100
AcDbLine
10
1256.9083132
20
1503.59115602
11
1283.57497803
21
1503.59115602
0
LINE
5
108
100
AcDbEntity
8
0
6
CONTINUOUS
62
7
370
-1
100
AcDbLine
10
1564.68607934
20
1183.59114703
11
1564.68607934
21
1210.25781186
0
LINE
5
109
100
AcDbEntity
8
0
6
CONTINUOUS
62
7
370
-1
100
AcDbLine
10
1564.68607934
20
1210.25781186
11
1508.01942201
21
1210.25781186
0
LINE
5
10A
100
AcDbEntity
8
0
6
CONTINUOUS
62
7
370
-1
100
AcDbLine
10
1508.01942201
20
1210.25781186
11
1508.01942201
21
1183.59114703
0
LINE
5
10B
100
AcDbEntity
8
0
6
CONTINUOUS
62
7
370
-1
100
AcDbLine
10
1439.13053425
20
1183.59114703
11
1439.13053425
21
1210.25781186
0
LINE
5
10C
100
AcDbEntity
8
0
6
CONTINUOUS
62
7
370
-1
100
AcDbLine
10
1439.13053425
20
1210.25781186
11
1382.46387071
21
1210.25781186
0
LINE
5
10D
100
AcDbEntity
8
0
6
CONTINUOUS
62
7
370
-1
100
AcDbLine
10
1382.46387071
20
1210.25781186
11
1382.46387071
21
1183.59114703
0
LINE
5
10E
100
AcDbEntity
8
0
6
CONTINUOUS
62
7
370
-1
100
AcDbLine
10
1283.57497803
20
1396.92447187
11
1283.57497803
21
1453.59115403
0
LINE
5
10F
100
AcDbEntity
8
0
6
CONTINUOUS
62
7
370
-1
100
AcDbLine
10
1256.9083132
20
1396.92447187
11
1283.57497803
21
1396.92447187
0
LINE
5
110
100
AcDbEntity
8
0
6
CONTINUOUS
62
7
370
-1
100
AcDbLine
10
1283.57497803
20
1290.25781255
11
1283.57497803
21
1346.92446988
0
LINE
5
111
100
AcDbEntity
8
0
6
CONTINUOUS
62
7
370
-1
100
AcDbLine
10
1283.57497803
20
1346.92446988
11
1256.9083132
21
1346.92446988
0
LINE
5
112
100
AcDbEntity
8
0
6
CONTINUOUS
62
7
370
-1
100
AcDbLine
10
1256.9083132
20
1290.25781255
11
1283.57497803
21
1290.25781255
0
LINE
5
113
100
AcDbEntity
8
0
6
CONTINUOUS
62
7
370
-1
100
AcDbLine
10
1313.57497907
20
1183.59114703
11
1313.57497907
21
1210.25781186
0
LINE
5
114
100
AcDbEntity
8
0
6
CONTINUOUS
62
7
370
-1
100
AcDbLine
10
1313.57497907
20
1210.25781186
11
1283.57497803
21
1210.25781186
0
LINE
5
115
100
AcDbEntity
8
0
6
CONTINUOUS
62
7
370
-1
100
AcDbLine
10
1256.9083132
20
1453.59115403
11
1256.9083132
21
1503.59115602
0
LINE
5
116
100
AcDbEntity
8
0
6
CONTINUOUS
62
7
370
-1
100
AcDbLine
10
1564.68607934
20
1183.59114703
11
1633.5749671
21
1183.59114703
0
LINE
5
117
100
AcDbEntity
8
0
6
CONTINUOUS
62
7
370
-1
100
AcDbLine
10
1256.9083132
20
1240.25781057
11
1256.9083132
21
1290.25781255
0
LINE
5
118
100
AcDbEntity
8
0
6
CONTINUOUS
62
7
370
-1
100
AcDbLine
10
1256.9083132
20
1346.92446988
11
1256.9083132
21
1396.92447187
0
LINE
5
119
100
AcDbEntity
8
0
6
CONTINUOUS
62
7
370
-1
100
AcDbLine
10
1313.57497907
20
1183.59114703
11
1382.46387071
21
1183.59114703
0
LINE
5
11A
100
AcDbEntity
8
0
6
CONTINUOUS
62
7
370
-1
100
AcDbLine
10
1633.5749671
20
1210.25781186
11
1746.9083066
21
1210.25781186
0
LINE
5
11B
100
AcDbEntity
8
0
6
CONTINUOUS
62
7
370
-1
100
AcDbLine
10
1815.7972192
20
1183.59114703
11
1746.9083066
21
1183.59114703
0
LINE
5
11C
100
AcDbEntity
8
0
6
CONTINUOUS
62
7
370
-1
100
AcDbLine
10
1815.7972192
20
1210.25781186
11
1872.46385169
21
1210.25781186
0
LINE
5
11D
100
AcDbEntity
8
0
6
CONTINUOUS
62
7
370
-1
100
AcDbLine
10
1872.46385169
20
1210.25781186
11
1872.46385169
21
1183.59114703
0
LINE
5
11E
100
AcDbEntity
8
0
6
CONTINUOUS
62
7
370
-1
100
AcDbLine
10
1941.35276429
20
1183.59114703
11
1941.35276429
21
1210.25781186
0
LINE
5
11F
100
AcDbEntity
8
0
6
CONTINUOUS
62
7
370
-1
100
AcDbLine
10
1941.35276429
20
1210.25781186
11
1998.01944645
21
1210.25781186
0
LINE
5
120
100
AcDbEntity
8
0
6
CONTINUOUS
62
7
370
-1
100
AcDbLine
10
1998.01944645
20
1210.25781186
11
1998.01944645
21
1183.59114703
0
LINE
5
121
100
AcDbEntity
8
0
6
CONTINUOUS
62
7
370
-1
100
AcDbLine
10
2096.9083205
20
1396.92447187
11
2096.9083205
21
1453.59115403
0
LINE
5
122
100
AcDbEntity
8
0
6
CONTINUOUS
62
7
370
-1
100
AcDbLine
10
2096.9083205
20
1453.59115403
11
2123.57499154
21
1453.59115403
0
LINE
5
123
100
AcDbEntity
8
0
6
CONTINUOUS
62
7
370
-1
100
AcDbLine
10
2123.57499154
20
1396.92447187
11
2096.9083205
21
1396.92447187
0
LINE
5
124
100
AcDbEntity
8
0
6
CONTINUOUS
62
7
370
-1
100
AcDbLine
10
2096.9083205
20
1290.25781255
11
2096.9083205
21
1346.92446988
0
LINE
5
125
100
AcDbEntity
8
0
6
CONTINUOUS
62
7
370
-1
100
AcDbLine
10
2096.9083205
20
1346.92446988
11
2123.57499154
21
1346.92446988
0
LINE
5
126
100
AcDbEntity
8
0
6
CONTINUOUS
62
7
370
-1
100
AcDbLine
10
2123.57499154
20
1290.25781255
11
2096.9083205
21
1290.25781255
0
LINE
5
127
100
AcDbEntity
8
0
6
CONTINUOUS
62
7
370
-1
100
AcDbLine
10
2066.90830938
20
1183.59114703
11
2066.90830938
21
1210.25781186
0
LINE
5
128
100
AcDbEntity
8
0
6
CONTINUOUS
62
7
370
-1
100
AcDbLine
10
2066.90830938
20
1210.25781186
11
2096.9083205
21
1210.25781186
0
LINE
5
129
100
AcDbEntity
8
0
6
CONTINUOUS
62
7
370
-1
100
AcDbLine
10
2096.9083205
20
1210.25781186
11
2096.9083205
21
1240.25781057
0
LINE
5
12A
100
AcDbEntity
8
0
6
CONTINUOUS
62
7
370
-1
100
AcDbLine
10
2096.9083205
20
1240.25781057
11
2123.57499154
21
1240.25781057
0
LINE
5
12B
100
AcDbEntity
8
0
6
CONTINUOUS
62
7
370
-1
100
AcDbLine
10
2123.57499154
20
1453.59115403
11
2123.57499154
21
1503.59115602
0
LINE
5
12C
100
AcDbEntity
8
0
6
CONTINUOUS
62
7
370
-1
100
AcDbLine
10
2123.57499154
20
1240.25781057
11
2123.57499154
21
1290.25781255
0
LINE
5
12D
100
AcDbEntity
8
0
6
CONTINUOUS
62
7
370
-1
100
AcDbLine
10
2123.57499154
20
1346.92446988
11
2123.57499154
21
1396.92447187
0
LINE
5
12E
100
AcDbEntity
8
0
6
CONTINUOUS
62
7
370
-1
100
AcDbLine
10
2066.90830938
20
1183.59114703
11
1998.01944645
21
1183.59114703
0
LINE
5
12F
100
AcDbEntity
8
0
6
CONTINUOUS
62
7
370
-1
100
AcDbLine
10
1941.35276429
20
1183.59114703
11
1872.46385169
21
1183.59114703
0
LINE
5
130
100
AcDbEntity
8
0
6
CONTINUOUS
62
7
370
-1
100
AcDbLine
10
1633.5749671
20
1910.25782726
11
1633.5749671
21
1936.92449829
0
LINE
5
131
100
AcDbEntity
8
0
6
CONTINUOUS
62
7
370
-1
100
AcDbLine
10
1283.57497803
20
1616.92449551
11
1283.57497803
21
1503.59115602
0
LINE
5
132
100
AcDbEntity
8
0
6
CONTINUOUS
62
7
370
-1
100
AcDbLine
10
1256.9083132
20
1616.92449551
11
1283.57497803
21
1616.92449551
0
LINE
5
133
100
AcDbEntity
8
0
6
CONTINUOUS
62
7
370
-1
100
AcDbLine
10
1564.68607934
20
1936.92449829
11
1564.68607934
21
1910.25782726
0
LINE
5
134
100
AcDbEntity
8
0
6
CONTINUOUS
62
7
370
-1
100
AcDbLine
10
1564.68607934
20
1910.25782726
11
1508.01942201
21
1910.25782726
0
LINE
5
135
100
AcDbEntity
8
0
6
CONTINUOUS
62
7
370
-1
100
AcDbLine
10
1439.13053425
20
1936.92449829
11
1439.13053425
21
1910.25782726
0
LINE
5
136
100
AcDbEntity
8
0
6
CONTINUOUS
62
7
370
-1
100
AcDbLine
10
1439.13053425
20
1910.25782726
11
1382.46387071
21
1910.25782726
0
LINE
5
137
100
AcDbEntity
8
0
6
CONTINUOUS
62
7
370
-1
100
AcDbLine
10
1382.46387071
20
1910.25782726
11
1382.46387071
21
1936.92449829
0
LINE
5
138
100
AcDbEntity
8
0
6
CONTINUOUS
62
7
370
-1
100
AcDbLine
10
1283.57497803
20
1723.59112999
11
1283.57497803
21
1666.9244975
0
LINE
5
139
100
AcDbEntity
8
0
6
CONTINUOUS
62
7
370
-1
100
AcDbLine
10
1283.57497803
20
1666.9244975
11
1256.9083132
21
1666.9244975
0
LINE
5
13A
100
AcDbEntity
8
0
6
CONTINUOUS
62
7
370
-1
100
AcDbLine
10
1256.9083132
20
1723.59112999
11
1283.57497803
21
1723.59112999
0
LINE
5
13B
100
AcDbEntity
8
0
6
CONTINUOUS
62
7
370
-1
100
AcDbLine
10
2066.90830938
20
1936.92449829
11
1998.01944645
21
1936.92449829
0
LINE
5
13C
100
AcDbEntity
8
0
6
CONTINUOUS
62
7
370
-1
100
AcDbLine
10
1941.35276429
20
1936.92449829
11
1872.46385169
21
1936.92449829
0
LINE
5
13D
100
AcDbEntity
8
0
6
CONTINUOUS
62
7
370
-1
100
AcDbLine
10
1963.97754502
20
310.257813347
11
1963.97754502
21
283.59114231
0
LINE
5
13E
100
AcDbEntity
8
0
6
CONTINUOUS
62
7
370
-1
100
AcDbLine
10
1895.08863242
20
310.257813347
11
1963.97754502
21
310.257813347
0
LINE
5
13F
100
AcDbEntity
8
0
6
CONTINUOUS
62
7
370
-1
100
AcDbLine
10
1895.08863242
20
283.59114231
11
1895.08863242
21
310.257813347
0
LINE
5
140
100
AcDbEntity
8
0
6
CONTINUOUS
62
7
370
-1
100
AcDbLine
10
1838.42195026
20
283.59114231
11
1895.08863242
21
283.59114231
0
LINE
5
141
100
AcDbEntity
8
0
6
CONTINUOUS
62
7
370
-1
100
AcDbLine
10
1838.42195026
20
310.257813347
11
1838.42195026
21
283.59114231
0
LINE
5
142
100
AcDbEntity
8
0
6
CONTINUOUS
62
7
370
-1
100
AcDbLine
10
1769.53308733
20
310.257813347
11
1838.42195026
21
310.257813347
0
LINE
5
143
100
AcDbEntity
8
0
6
CONTINUOUS
62
7
370
-1
100
AcDbLine
10
1769.53308733
20
283.59114231
11
1769.53308733
21
310.257813347
0
LINE
5
144
100
AcDbEntity
8
0
6
CONTINUOUS
62
7
370
-1
100
AcDbLine
10
1739.53307621
20
409.146687401
11
1739.53307621
21
340.257824474
0
LINE
5
145
100
AcDbEntity
8
0
6
CONTINUOUS
62
7
370
-1
100
AcDbLine
10
1739.53307621
20
534.702232493
11
1739.53307621
21
465.813369565
0
LINE
5
146
100
AcDbEntity
8
0
6
CONTINUOUS
62
7
370
-1
100
AcDbLine
10
1712.86640517
20
591.368914657
11
1712.86640517
21
534.702232493
0
LINE
5
147
100
AcDbEntity
8
0
6
CONTINUOUS
62
7
370
-1
100
AcDbLine
10
1739.53307621
20
660.257827255
11
1739.53307621
21
591.368914657
0
LINE
5
148
100
AcDbEntity
8
0
6
CONTINUOUS
62
7
370
-1
100
AcDbLine
10
1739.53307621
20
842.480029675
11
1739.53307621
21
773.591141912
0
LINE
5
149
100
AcDbEntity
8
0
6
CONTINUOUS
62
7
370
-1
100
AcDbLine
10
1739.53307621
20
968.035587185
11
1739.53307621
21
899.146699422
0
LINE
5
14A
100
AcDbEntity
8
0
6
CONTINUOUS
62
7
370
-1
100
AcDbLine
10
1712.86640517
20
1024.70225693
11
1712.86640517
21
968.035587185
0
LINE
5
14B
100
AcDbEntity
8
0
6
CONTINUOUS
62
7
370
-1
100
AcDbLine
10
1739.53307621
20
1093.59114469
11
1739.53307621
21
1024.70225693
0
LINE
5
14C
100
AcDbEntity
8
0
6
CONTINUOUS
62
7
370
-1
100
AcDbLine
10
1739.53307621
20
1093.59114469
11
1712.86640517
21
1093.59114469
0
LINE
5
14D
100
AcDbEntity
8
0
6
CONTINUOUS
62
7
370
-1
100
AcDbLine
10
1769.53308733
20
1150.25781134
11
1769.53308733
21
1123.59114495
0
LINE
5
14E
100
AcDbEntity
8
0
6
CONTINUOUS
62
7
370
-1
100
AcDbLine
10
1769.53308733
20
1123.59114495
11
1838.42195026
21
1123.59114495
0
LINE
5
14F
100
AcDbEntity
8
0
6
CONTINUOUS
62
7
370
-1
100
AcDbLine
10
1838.42195026
20
1123.59114495
11
1838.42195026
21
1150.25781134
0
LINE
5
150
100
AcDbEntity
8
0
6
CONTINUOUS
62
7
370
-1
100
AcDbLine
10
1895.08863242
20
1150.25781134
11
1838.42195026
21
1150.25781134
0
LINE
5
151
100
AcDbEntity
8
0
6
CONTINUOUS
62
7
370
-1
100
AcDbLine
10
1895.08863242
20
1150.25781134
11
1895.08863242
21
1123.59114495
0
LINE
5
152
100
AcDbEntity
8
0
6
CONTINUOUS
62
7
370
-1
100
AcDbLine
10
1895.08863242
20
1123.59114495
11
1963.97754502
21
1123.59114495
0
LINE
5
153
100
AcDbEntity
8
0
6
CONTINUOUS
62
7
370
-1
100
AcDbLine
10
1963.97754502
20
1123.59114495
11
1963.97754502
21
1150.25781134
0
LINE
5
154
100
AcDbEntity
8
0
6
CONTINUOUS
62
7
370
-1
100
AcDbLine
10
2020.64417751
20
1150.25781134
11
1963.97754502
21
1150.25781134
0
LINE
5
155
100
AcDbEntity
8
0
6
CONTINUOUS
62
7
370
-1
100
AcDbLine
10
2020.64417751
20
1150.25781134
11
2020.64417751
21
1123.59114495
0
LINE
5
156
100
AcDbEntity
8
0
6
CONTINUOUS
62
7
370
-1
100
AcDbLine
10
2020.64417751
20
1123.59114495
11
2089.53309011
21
1123.59114495
0
LINE
5
157
100
AcDbEntity
8
0
6
CONTINUOUS
62
7
370
-1
100
AcDbLine
10
2089.53309011
20
1123.59114495
11
2089.53309011
21
1150.25781134
0
LINE
5
158
100
AcDbEntity
8
0
6
CONTINUOUS
62
7
370
-1
100
AcDbLine
10
2146.19977228
20
1150.25781134
11
2089.53309011
21
1150.25781134
0
LINE
5
159
100
AcDbEntity
8
0
6
CONTINUOUS
62
7
370
-1
100
AcDbLine
10
2146.19977228
20
1093.59114469
11
2146.19977228
21
1150.25781134
0
LINE
5
15A
100
AcDbEntity
8
0
6
CONTINUOUS
62
7
370
-1
100
AcDbLine
10
2119.53310124
20
1093.59114469
11
2146.19977228
21
1093.59114469
0
LINE
5
15B
100
AcDbEntity
8
0
6
CONTINUOUS
62
7
370
-1
100
AcDbLine
10
2119.53310124
20
1093.59114469
11
2119.53310124
21
1024.70225693
0
LINE
5
15C
100
AcDbEntity
8
0
6
CONTINUOUS
62
7
370
-1
100
AcDbLine
10
2119.53310124
20
1024.70225693
11
2146.19977228
21
1024.70225693
0
LINE
5
15D
100
AcDbEntity
8
0
6
CONTINUOUS
62
7
370
-1
100
AcDbLine
10
2146.19977228
20
968.035587185
11
2146.19977228
21
1024.70225693
0
LINE
5
15E
100
AcDbEntity
8
0
6
CONTINUOUS
62
7
370
-1
100
AcDbLine
10
2119.53310124
20
968.035587185
11
2146.19977228
21
968.035587185
0
LINE
5
15F
100
AcDbEntity
8
0
6
CONTINUOUS
62
7
370
-1
100
AcDbLine
10
2119.53310124
20
968.035587185
11
2119.53310124
21
899.146699422
0
LINE
5
160
100
AcDbEntity
8
0
6
CONTINUOUS
62
7
370
-1
100
AcDbLine
10
2119.53310124
20
899.146699422
11
2146.19977228
21
899.146699422
0
LINE
5
161
100
AcDbEntity
8
0
6
CONTINUOUS
62
7
370
-1
100
AcDbLine
10
2146.19977228
20
842.480029675
11
2146.19977228
21
899.146699422
0
LINE
5
162
100
AcDbEntity
8
0
6
CONTINUOUS
62
7
370
-1
100
AcDbLine
10
2119.53310124
20
842.480029675
11
2146.19977228
21
842.480029675
0
LINE
5
163
100
AcDbEntity
8
0
6
CONTINUOUS
62
7
370
-1
100
AcDbLine
10
2119.53310124
20
842.480029675
11
2119.53310124
21
773.591141912
0
LINE
5
164
100
AcDbEntity
8
0
6
CONTINUOUS
62
7
370
-1
100
AcDbLine
10
2119.53310124
20
773.591141912
11
2146.19977228
21
773.591141912
0
LINE
5
165
100
AcDbEntity
8
0
6
CONTINUOUS
62
7
370
-1
100
AcDbLine
10
2146.19977228
20
660.257827255
11
2146.19977228
21
773.591141912
0
LINE
5
166
100
AcDbEntity
8
0
6
CONTINUOUS
62
7
370
-1
100
AcDbLine
10
2119.53310124
20
660.257827255
11
2146.19977228
21
660.257827255
0
LINE
5
167
100
AcDbEntity
8
0
6
CONTINUOUS
62
7
370
-1
100
AcDbLine
10
2119.53310124
20
660.257827255
11
2119.53310124
21
591.368914657
0
LINE
5
168
100
AcDbEntity
8
0
6
CONTINUOUS
62
7
370
-1
100
AcDbLine
10
2119.53310124
20
591.368914657
11
2146.19977228
21
591.368914657
0
LINE
5
169
100
AcDbEntity
8
0
6
CONTINUOUS
62
7
370
-1
100
AcDbLine
10
2146.19977228
20
534.702232493
11
2146.19977228
21
591.368914657
0
LINE
5
16A
100
AcDbEntity
8
0
6
CONTINUOUS
62
7
370
-1
100
AcDbLine
10
2119.53310124
20
534.702232493
11
2146.19977228
21
534.702232493
0
LINE
5
16B
100
AcDbEntity
8
0
6
CONTINUOUS
62
7
370
-1
100
AcDbLine
10
2119.53310124
20
534.702232493
11
2119.53310124
21
465.813369565
0
LINE
5
16C
100
AcDbEntity
8
0
6
CONTINUOUS
62
7
370
-1
100
AcDbLine
10
2119.53310124
20
465.813369565
11
2146.19977228
21
465.813369565
0
LINE
5
16D
100
AcDbEntity
8
0
6
CONTINUOUS
62
7
370
-1
100
AcDbLine
10
2146.19977228
20
409.146687401
11
2146.19977228
21
465.813369565
0
LINE
5
16E
100
AcDbEntity
8
0
6
CONTINUOUS
62
7
370
-1
100
AcDbLine
10
2119.53310124
20
409.146687401
11
2146.19977228
21
409.146687401
0
LINE
5
16F
100
AcDbEntity
8
0
6
CONTINUOUS
62
7
370
-1
100
AcDbLine
10
2119.53310124
20
409.146687401
11
2119.53310124
21
340.257824474
0
LINE
5
170
100
AcDbEntity
8
0
6
CONTINUOUS
62
7
370
-1
100
AcDbLine
10
2119.53310124
20
340.257824474
11
2146.19977228
21
340.257824474
0
LINE
5
171
100
AcDbEntity
8
0
6
CONTINUOUS
62
7
370
-1
100
AcDbLine
10
2146.19977228
20
283.59114231
11
2146.19977228
21
340.257824474
0
LINE
5
172
100
AcDbEntity
8
0
6
CONTINUOUS
62
7
370
-1
100
AcDbLine
10
2089.53309011
20
283.59114231
11
2146.19977228
21
283.59114231
0
LINE
5
173
100
AcDbEntity
8
0
6
CONTINUOUS
62
7
370
-1
100
AcDbLine
10
2089.53309011
20
310.257813347
11
2089.53309011
21
283.59114231
0
LINE
5
174
100
AcDbEntity
8
0
6
CONTINUOUS
62
7
370
-1
100
AcDbLine
10
2020.64417751
20
310.257813347
11
2089.53309011
21
310.257813347
0
LINE
5
175
100
AcDbEntity
8
0
6
CONTINUOUS
62
7
370
-1
100
AcDbLine
10
2020.64417751
20
283.59114231
11
2020.64417751
21
310.257813347
0
LINE
5
176
100
AcDbEntity
8
0
6
CONTINUOUS
62
7
370
-1
100
AcDbLine
10
1963.97754502
20
283.59114231
11
2020.64417751
21
283.59114231
0
CIRCLE
5
177
100
AcDbEntity
8
0
6
CONTINUOUS
62
7
370
-1
100
AcDbCircle
10
1846.19975066
20
586.924477731
40
5.5
0
CIRCLE
5
178
100
AcDbEntity
8
0
6
CONTINUOUS
62
7
370
-1
100
AcDbCircle
10
1929.533084
20
753.591144397
40
14.1666666667
0
CIRCLE
5
179
100
AcDbEntity
8
0
6
CONTINUOUS
62
7
370
-1
100
AcDbCircle
10
2012.86641733
20
586.924477731
40
5.5
0
CIRCLE
5
17A
100
AcDbEntity
8
0
6
CONTINUOUS
62
7
370
-1
100
AcDbCircle
10
2012.86641733
20
653.591144397
40
5.5
0
CIRCLE
5
17B
100
AcDbEntity
8
0
6
CONTINUOUS
62
7
370
-1
100
AcDbCircle
10
1846.19975066
20
653.591144397
40
5.5
0
LINE
5
17C
100
AcDbEntity
8
0
6
CONTINUOUS
62
7
370
-1
100
AcDbLine
10
1739.53307621
20
842.480029675
11
1712.86640517
21
842.480029675
0
LINE
5
17D
100
AcDbEntity
8
0
6
CONTINUOUS
62
7
370
-1
100
AcDbLine
10
1739.53307621
20
773.591141912
11
1712.86640517
21
773.591141912
0
LINE
5
17E
100
AcDbEntity
8
0
6
CONTINUOUS
62
7
370
-1
100
AcDbLine
10
1712.86640517
20
283.59114231
11
1769.53308733
21
283.59114231
0
LINE
5
17F
100
AcDbEntity
8
0
6
CONTINUOUS
62
7
370
-1
100
AcDbLine
10
1739.53307621
20
1024.70225693
11
1712.86640517
21
1024.70225693
0
LINE
5
180
100
AcDbEntity
8
0
6
CONTINUOUS
62
7
370
-1
100
AcDbLine
10
1739.53307621
20
340.257824474
11
1712.86640517
21
340.257824474
0
LINE
5
181
100
AcDbEntity
8
0
6
CONTINUOUS
62
7
370
-1
100
AcDbLine
10
1739.53307621
20
409.146687401
11
1712.86640517
21
409.146687401
0
LINE
5
182
100
AcDbEntity
8
0
6
CONTINUOUS
62
7
370
-1
100
AcDbLine
10
1739.53307621
20
899.146699422
11
1712.86640517
21
899.146699422
0
LINE
5
183
100
AcDbEntity
8
0
6
CONTINUOUS
62
7
370
-1
100
AcDbLine
10
1739.53307621
20
465.813369565
11
1712.86640517
21
465.813369565
0
LINE
5
184
100
AcDbEntity
8
0
6
CONTINUOUS
62
7
370
-1
100
AcDbLine
10
1712.86640517
20
340.257824474
11
1712.86640517
21
283.59114231
0
LINE
5
185
100
AcDbEntity
8
0
6
CONTINUOUS
62
7
370
-1
100
AcDbLine
10
1739.53307621
20
534.702232493
11
1712.86640517
21
534.702232493
0
LINE
5
186
100
AcDbEntity
8
0
6
CONTINUOUS
62
7
370
-1
100
AcDbLine
10
1712.86640517
20
465.813369565
11
1712.86640517
21
409.146687401
0
LINE
5
187
100
AcDbEntity
8
0
6
CONTINUOUS
62
7
370
-1
100
AcDbLine
10
1739.53307621
20
660.257827255
11
1712.86640517
21
660.257827255
0
LINE
5
188
100
AcDbEntity
8
0
6
CONTINUOUS
62
7
370
-1
100
AcDbLine
10
1739.53307621
20
591.368914657
11
1712.86640517
21
591.368914657
0
LINE
5
189
100
AcDbEntity
8
0
6
CONTINUOUS
62
7
370
-1
100
AcDbLine
10
1739.53307621
20
968.035587185
11
1712.86640517
21
968.035587185
0
LINE
5
18A
100
AcDbEntity
8
0
6
CONTINUOUS
62
7
370
-1
100
AcDbLine
10
1712.86640517
20
899.146699422
11
1712.86640517
21
842.480029675
0
LINE
5
18B
100
AcDbEntity
8
0
6
CONTINUOUS
62
7
370
-1
100
AcDbLine
10
1712.86640517
20
773.591141912
11
1712.86640517
21
660.257827255
0
LINE
5
18C
100
AcDbEntity
8
0
6
CONTINUOUS
62
7
370
-1
100
AcDbLine
10
1712.86640517
20
1150.25781134
11
1712.86640517
21
1093.59114469
0
LINE
5
18D
100
AcDbEntity
8
0
6
CONTINUOUS
62
7
370
-1
100
AcDbLine
10
1769.53308733
20
1150.25781134
11
1712.86640517
21
1150.25781134
0
CIRCLE
5
18E
100
AcDbEntity
8
0
6
CONTINUOUS
62
7
370
-1
100
AcDbCircle
10
1600.07438122
20
876.924477731
40
13.3333333333
0
CIRCLE
5
18F
100
AcDbEntity
8
0
6
CONTINUOUS
62
7
370
-1
100
AcDbCircle
10
1600.07438122
20
960.257811064
40
13.3333333333
0
CIRCLE
5
190
100
AcDbEntity
8
0
6
CONTINUOUS
62
7
370
-1
100
AcDbCircle
10
1558.40771456
20
960.257811064
40
13.3333333333
0
CIRCLE
5
191
100
AcDbEntity
8
0
6
CONTINUOUS
62
7
370
-1
100
AcDbCircle
10
1516.74104789
20
960.257811064
40
13.3333333333
0
CIRCLE
5
192
100
AcDbEntity
8
0
6
CONTINUOUS
62
7
370
-1
100
AcDbCircle
10
1475.07438122
20
960.257811064
40
13.3333333333
0
CIRCLE
5
193
100
AcDbEntity
8
0
6
CONTINUOUS
62
7
370
-1
100
AcDbCircle
10
1433.40771456
20
960.257811064
40
13.3333333333
0
CIRCLE
5
194
100
AcDbEntity
8
0
6
CONTINUOUS
62
7
370
-1
100
AcDbCircle
10
1391.74104789
20
960.257811064
40
13.3333333333
0
CIRCLE
5
195
100
AcDbEntity
8
0
6
CONTINUOUS
62
7
370
-1
100
AcDbCircle
10
1350.07438122
20
960.257811064
40
13.3333333333
0
CIRCLE
5
196
100
AcDbEntity
8
0
6
CONTINUOUS
62
7
370
-1
100
AcDbCircle
10
1558.40771456
20
876.924477731
40
13.3333333333
0
CIRCLE
5
197
100
AcDbEntity
8
0
6
CONTINUOUS
62
7
370
-1
100
AcDbCircle
10
1516.74104789
20
876.924477731
40
13.3333333333
0
CIRCLE
5
198
100
AcDbEntity
8
0
6
CONTINUOUS
62
7
370
-1
100
AcDbCircle
10
1475.07438122
20
876.924477731
40
13.3333333333
0
CIRCLE
5
199
100
AcDbEntity
8
0
6
CONTINUOUS
62
7
370
-1
100
AcDbCircle
10
1433.40771456
20
876.924477731
40
13.3333333333
0
CIRCLE
5
19A
100
AcDbEntity
8
0
6
CONTINUOUS
62
7
370
-1
100
AcDbCircle
10
1391.74104789
20
876.924477731
40
13.3333333333
0
CIRCLE
5
19B
100
AcDbEntity
8
0
6
CONTINUOUS
62
7
370
-1
100
AcDbCircle
10
1350.07438122
20
876.924477731
40
13.3333333333
0
LINE
5
19C
100
AcDbEntity
8
0
6
CONTINUOUS
62
7
370
-1
100
AcDbLine
10
1440.62993876
20
1010.25781012
11
1425.62993941
21
1010.25781012
0
LINE
5
19D
100
AcDbEntity
8
0
6
CONTINUOUS
62
7
370
-1
100
AcDbLine
10
1440.62993876
20
1036.92447495
11
1440.62993876
21
1010.25781012
0
LINE
5
19E
100
AcDbEntity
8
0
6
CONTINUOUS
62
7
370
-1
100
AcDbLine
10
1509.51882652
20
1036.92447495
11
1440.62993876
21
1036.92447495
0
LINE
5
19F
100
AcDbEntity
8
0
6
CONTINUOUS
62
7
370
-1
100
AcDbLine
10
1509.51882652
20
1036.92447495
11
1509.51882652
21
1010.25781012
0
LINE
5
1A0
100
AcDbEntity
8
0
6
CONTINUOUS
62
7
370
-1
100
AcDbLine
10
1524.51881967
20
1010.25781012
11
1509.51882652
21
1010.25781012
0
ARC
5
1A1
100
AcDbEntity
8
0
6
CONTINUOUS
62
7
370
-1
100
AcDbCircle
10
1537.852159
20
1010.25781106
40
13.3333333333
100
AcDbArc
50
180
51
0
0
LINE
5
1A2
100
AcDbEntity
8
0
6
CONTINUOUS
62
7
370
-1
100
AcDbLine
10
1566.18548385
20
1010.25781012
11
1551.18550312
21
1010.25781012
0
LINE
5
1A3
100
AcDbEntity
8
0
6
CONTINUOUS
62
7
370
-1
100
AcDbLine
10
1566.18548385
20
1036.92447495
11
1566.18548385
21
1010.25781012
0
LINE
5
1A4
100
AcDbEntity
8
0
6
CONTINUOUS
62
7
370
-1
100
AcDbLine
10
1635.07437161
20
1036.92447495
11
1566.18548385
21
1036.92447495
0
LINE
5
1A5
100
AcDbEntity
8
0
6
CONTINUOUS
62
7
370
-1
100
AcDbLine
10
1635.07437161
20
1036.92447495
11
1635.07437161
21
1010.25781012
0
LINE
5
1A6
100
AcDbEntity
8
0
6
CONTINUOUS
62
7
370
-1
100
AcDbLine
10
1691.74105378
20
1010.25781012
11
1635.07437161
21
1010.25781012
0
LINE
5
1A7
100
AcDbEntity
8
0
6
CONTINUOUS
62
7
370
-1
100
AcDbLine
10
1691.74105378
20
980.257805201
11
1691.74105378
21
1010.25781012
0
LINE
5
1A8
100
AcDbEntity
8
0
6
CONTINUOUS
62
7
370
-1
100
AcDbLine
10
1665.07438274
20
980.257805201
11
1691.74105378
21
980.257805201
0
LINE
5
1A9
100
AcDbEntity
8
0
6
CONTINUOUS
62
7
370
-1
100
AcDbLine
10
1665.07438274
20
930.257815632
11
1665.07438274
21
980.257805201
0
LINE
5
1AA
100
AcDbEntity
8
0
6
CONTINUOUS
62
7
370
-1
100
AcDbLine
10
1665.07438274
20
930.257815632
11
1691.74105378
21
930.257815632
0
LINE
5
1AB
100
AcDbEntity
8
0
6
CONTINUOUS
62
7
370
-1
100
AcDbLine
10
1691.74105378
20
873.591145886
11
1691.74105378
21
930.257815632
0
LINE
5
1AC
100
AcDbEntity
8
0
6
CONTINUOUS
62
7
370
-1
100
AcDbLine
10
1665.07438274
20
873.591145886
11
1691.74105378
21
873.591145886
0
LINE
5
1AD
100
AcDbEntity
8
0
6
CONTINUOUS
62
7
370
-1
100
AcDbLine
10
1665.07438274
20
823.591143899
11
1665.07438274
21
873.591145886
0
LINE
5
1AE
100
AcDbEntity
8
0
6
CONTINUOUS
62
7
370
-1
100
AcDbLine
10
1665.07438274
20
823.591143899
11
1691.74105378
21
823.591143899
0
LINE
5
1AF
100
AcDbEntity
8
0
6
CONTINUOUS
62
7
370
-1
100
AcDbLine
10
1691.74105378
20
766.924486571
11
1691.74105378
21
823.591143899
0
LINE
5
1B0
100
AcDbEntity
8
0
6
CONTINUOUS
62
7
370
-1
100
AcDbLine
10
1665.07438274
20
766.924486571
11
1691.74105378
21
766.924486571
0
LINE
5
1B1
100
AcDbEntity
8
0
6
CONTINUOUS
62
7
370
-1
100
AcDbLine
10
1665.07438274
20
716.924484584
11
1665.07438274
21
766.924486571
0
LINE
5
1B2
100
AcDbEntity
8
0
6
CONTINUOUS
62
7
370
-1
100
AcDbLine
10
1665.07438274
20
716.924484584
11
1691.74105378
21
716.924484584
0
LINE
5
1B3
100
AcDbEntity
8
0
6
CONTINUOUS
62
7
370
-1
100
AcDbLine
10
1691.74105378
20
603.591145091
11
1691.74105378
21
716.924484584
0
LINE
5
1B4
100
AcDbEntity
8
0
6
CONTINUOUS
62
7
370
-1
100
AcDbLine
10
1665.07438274
20
603.591145091
11
1691.74105378
21
603.591145091
0
LINE
5
1B5
100
AcDbEntity
8
0
6
CONTINUOUS
62
7
370
-1
100
AcDbLine
10
1665.07438274
20
553.591143104
11
1665.07438274
21
603.591145091
0
LINE
5
1B6
100
AcDbEntity
8
0
6
CONTINUOUS
62
7
370
-1
100
AcDbLine
10
1665.07438274
20
553.591143104
11
1691.74105378
21
553.591143104
0
LINE
5
1B7
100
AcDbEntity
8
0
6
CONTINUOUS
62
7
370
-1
100
AcDbLine
10
1691.74105378
20
496.924460941
11
1691.74105378
21
553.591143104
0
LINE
5
1B8
100
AcDbEntity
8
0
6
CONTINUOUS
62
7
370
-1
100
AcDbLine
10
1665.07438274
20
496.924460941
11
1691.74105378
21
496.924460941
0
LINE
5
1B9
100
AcDbEntity
8
0
6
CONTINUOUS
62
7
370
-1
100
AcDbLine
10
1665.07438274
20
446.924458954
11
1665.07438274
21
496.924460941
0
LINE
5
1BA
100
AcDbEntity
8
0
6
CONTINUOUS
62
7
370
-1
100
AcDbLine
10
1665.07438274
20
446.924458954
11
1691.74105378
21
446.924458954
0
LINE
5
1BB
100
AcDbEntity
8
0
6
CONTINUOUS
62
7
370
-1
100
AcDbLine
10
1691.74105378
20
390.25782646
11
1691.74105378
21
446.924458954
0
LINE
5
1BC
100
AcDbEntity
8
0
6
CONTINUOUS
62
7
370
-1
100
AcDbLine
10
1665.07438274
20
390.25782646
11
1691.74105378
21
390.25782646
0
LINE
5
1BD
100
AcDbEntity
8
0
6
CONTINUOUS
62
7
370
-1
100
AcDbLine
10
1665.07438274
20
340.257824474
11
1665.07438274
21
390.25782646
0
LINE
5
1BE
100
AcDbEntity
8
0
6
CONTINUOUS
62
7
370
-1
100
AcDbLine
10
1665.07438274
20
340.257824474
11
1691.74105378
21
340.257824474
0
LINE
5
1BF
100
AcDbEntity
8
0
6
CONTINUOUS
62
7
370
-1
100
AcDbLine
10
1691.74105378
20
310.257813347
11
1691.74105378
21
340.257824474
0
LINE
5
1C0
100
AcDbEntity
8
0
6
CONTINUOUS
62
7
370
-1
100
AcDbLine
10
1635.07437161
20
310.257813347
11
1691.74105378
21
310.257813347
0
LINE
5
1C1
100
AcDbEntity
8
0
6
CONTINUOUS
62
7
370
-1
100
AcDbLine
10
1635.07437161
20
283.59114231
11
1635.07437161
21
310.257813347
0
LINE
5
1C2
100
AcDbEntity
8
0
6
CONTINUOUS
62
7
370
-1
100
AcDbLine
10
1635.07437161
20
283.59114231
11
1566.18548385
21
283.59114231
0
LINE
5
1C3
100
AcDbEntity
8
0
6
CONTINUOUS
62
7
370
-1
100
AcDbLine
10
1566.18548385
20
283.59114231
11
1566.18548385
21
310.257813347
0
LINE
5
1C4
100
AcDbEntity
8
0
6
CONTINUOUS
62
7
370
-1
100
AcDbLine
10
1509.51882652
20
310.257813347
11
1566.18548385
21
310.257813347
0
LINE
5
1C5
100
AcDbEntity
8
0
6
CONTINUOUS
62
7
370
-1
100
AcDbLine
10
1509.51882652
20
283.59114231
11
1509.51882652
21
310.257813347
0
LINE
5
1C6
100
AcDbEntity
8
0
6
CONTINUOUS
62
7
370
-1
100
AcDbLine
10
1509.51882652
20
283.59114231
11
1440.62993876
21
283.59114231
0
LINE
5
1C7
100
AcDbEntity
8
0
6
CONTINUOUS
62
7
370
-1
100
AcDbLine
10
1440.62993876
20
283.59114231
11
1440.62993876
21
310.257813347
0
LINE
5
1C8
100
AcDbEntity
8
0
6
CONTINUOUS
62
7
370
-1
100
AcDbLine
10
1383.96326901
20
283.59114231
11
1315.07438125
21
283.59114231
0
LINE
5
1C9
100
AcDbEntity
8
0
6
CONTINUOUS
62
7
370
-1
100
AcDbLine
10
1258.4077115
20
340.257824474
11
1258.4077115
21
310.257813347
0
LINE
5
1CA
100
AcDbEntity
8
0
6
CONTINUOUS
62
7
370
-1
100
AcDbLine
10
1285.07438254
20
340.257824474
11
1258.4077115
21
340.257824474
0
LINE
5
1CB
100
AcDbEntity
8
0
6
CONTINUOUS
62
7
370
-1
100
AcDbLine
10
1285.07438254
20
340.257824474
11
1285.07438254
21
390.25782646
0
LINE
5
1CC
100
AcDbEntity
8
0
6
CONTINUOUS
62
7
370
-1
100
AcDbLine
10
1285.07438254
20
390.25782646
11
1258.4077115
21
390.25782646
0
LINE
5
1CD
100
AcDbEntity
8
0
6
CONTINUOUS
62
7
370
-1
100
AcDbLine
10
1258.4077115
20
446.924458954
11
1258.4077115
21
390.25782646
0
LINE
5
1CE
100
AcDbEntity
8
0
6
CONTINUOUS
62
7
370
-1
100
AcDbLine
10
1285.07438254
20
446.924458954
11
1258.4077115
21
446.924458954
0
LINE
5
1CF
100
AcDbEntity
8
0
6
CONTINUOUS
62
7
370
-1
100
AcDbLine
10
1285.07438254
20
446.924458954
11
1285.07438254
21
496.924460941
0
LINE
5
1D0
100
AcDbEntity
8
0
6
CONTINUOUS
62
7
370
-1
100
AcDbLine
10
1285.07438254
20
496.924460941
11
1258.4077115
21
496.924460941
0
LINE
5
1D1
100
AcDbEntity
8
0
6
CONTINUOUS
62
7
370
-1
100
AcDbLine
10
1258.4077115
20
553.591143104
11
1258.4077115
21
496.924460941
0
LINE
5
1D2
100
AcDbEntity
8
0
6
CONTINUOUS
62
7
370
-1
100
AcDbLine
10
1285.07438254
20
553.591143104
11
1258.4077115
21
553.591143104
0
LINE
5
1D3
100
AcDbEntity
8
0
6
CONTINUOUS
62
7
370
-1
100
AcDbLine
10
1285.07438254
20
553.591143104
11
1285.07438254
21
603.591145091
0
LINE
5
1D4
100
AcDbEntity
8
0
6
CONTINUOUS
62
7
370
-1
100
AcDbLine
10
1285.07438254
20
603.591145091
11
1258.4077115
21
603.591145091
0
LINE
5
1D5
100
AcDbEntity
8
0
6
CONTINUOUS
62
7
370
-1
100
AcDbLine
10
1258.4077115
20
716.924484584
11
1258.4077115
21
603.591145091
0
LINE
5
1D6
100
AcDbEntity
8
0
6
CONTINUOUS
62
7
370
-1
100
AcDbLine
10
1285.07438254
20
716.924484584
11
1258.4077115
21
716.924484584
0
LINE
5
1D7
100
AcDbEntity
8
0
6
CONTINUOUS
62
7
370
-1
100
AcDbLine
10
1285.07438254
20
716.924484584
11
1285.07438254
21
766.924486571
0
LINE
5
1D8
100
AcDbEntity
8
0
6
CONTINUOUS
62
7
370
-1
100
AcDbLine
10
1285.07438254
20
766.924486571
11
1258.4077115
21
766.924486571
0
LINE
5
1D9
100
AcDbEntity
8
0
6
CONTINUOUS
62
7
370
-1
100
AcDbLine
10
1258.4077115
20
823.591143899
11
1258.4077115
21
766.924486571
0
LINE
5
1DA
100
AcDbEntity
8
0
6
CONTINUOUS
62
7
370
-1
100
AcDbLine
10
1285.07438254
20
823.591143899
11
1258.4077115
21
823.591143899
0
LINE
5
1DB
100
AcDbEntity
8
0
6
CONTINUOUS
62
7
370
-1
100
AcDbLine
10
1285.07438254
20
823.591143899
11
1285.07438254
21
873.591145886
0
LINE
5
1DC
100
AcDbEntity
8
0
6
CONTINUOUS
62
7
370
-1
100
AcDbLine
10
1285.07438254
20
873.591145886
11
1258.4077115
21
873.591145886
0
LINE
5
1DD
100
AcDbEntity
8
0
6
CONTINUOUS
62
7
370
-1
100
AcDbLine
10
1258.4077115
20
930.257815632
11
1258.4077115
21
873.591145886
0
LINE
5
1DE
100
AcDbEntity
8
0
6
CONTINUOUS
62
7
370
-1
100
AcDbLine
10
1285.07438254
20
930.257815632
11
1258.4077115
21
930.257815632
0
LINE
5
1DF
100
AcDbEntity
8
0
6
CONTINUOUS
62
7
370
-1
100
AcDbLine
10
1285.07438254
20
930.257815632
11
1285.07438254
21
980.257805201
0
LINE
5
1E0
100
AcDbEntity
8
0
6
CONTINUOUS
62
7
370
-1
100
AcDbLine
10
1285.07438254
20
980.257805201
11
1258.4077115
21
980.257805201
0
LINE
5
1E1
100
AcDbEntity
8
0
6
CONTINUOUS
62
7
370
-1
100
AcDbLine
10
1258.4077115
20
1010.25781012
11
1258.4077115
21
980.257805201
0
LINE
5
1E2
100
AcDbEntity
8
0
6
CONTINUOUS
62
7
370
-1
100
AcDbLine
10
1383.96326901
20
1036.92447495
11
1315.07438125
21
1036.92447495
0
LINE
5
1E3
100
AcDbEntity
8
0
6
CONTINUOUS
62
7
370
-1
100
AcDbLine
10
1383.96326901
20
1036.92447495
11
1383.96326901
21
1010.25781012
0
ARC
5
1E4
100
AcDbEntity
8
0
6
CONTINUOUS
62
7
370
-1
100
AcDbCircle
10
1412.29660345
20
1010.25781106
40
13.3333333333
100
AcDbArc
50
180
51
0
0
LINE
5
1E5
100
AcDbEntity
8
0
6
CONTINUOUS
62
7
370
-1
100
AcDbLine
10
1315.07438125
20
1036.92447495
11
1315.07438125
21
1010.25781012
0
LINE
5
1E6
100
AcDbEntity
8
0
6
CONTINUOUS
62
7
370
-1
100
AcDbLine
10
1258.4077115
20
310.257813347
11
1315.07438125
21
310.257813347
0
LINE
5
1E7
100
AcDbEntity
8
0
6
CONTINUOUS
62
7
370
-1
100
AcDbLine
10
1383.96326901
20
310.257813347
11
1440.62993876
21
310.257813347
0
LINE
5
1E8
100
AcDbEntity
8
0
6
CONTINUOUS
62
7
370
-1
100
AcDbLine
10
1383.96326901
20
283.59114231
11
1383.96326901
21
310.257813347
0
LINE
5
1E9
100
AcDbEntity
8
0
6
CONTINUOUS
62
7
370
-1
100
AcDbLine
10
1315.07438125
20
283.59114231
11
1315.07438125
21
310.257813347
0
LINE
5
1EA
100
AcDbEntity
8
0
6
CONTINUOUS
62
7
370
-1
100
AcDbLine
10
1315.07438125
20
1010.25781012
11
1258.4077115
21
1010.25781012
0
LINE
5
1EB
100
AcDbEntity
8
0
6
CONTINUOUS
62
7
370
-1
100
AcDbLine
10
1398.96326837
20
1010.25781012
11
1383.96326901
21
1010.25781012
0
LINE
5
1EC
100
AcDbEntity
8
0
6
CONTINUOUS
62
7
370
-1
100
AcDbLine
10
583.885689098
20
570.257793877
11
533.885687111
21
570.257793877
0
LINE
5
1ED
100
AcDbEntity
8
0
6
CONTINUOUS
62
7
370
-1
100
AcDbLine
10
533.885687111
20
570.257793877
11
533.885687111
21
536.924492332
0
LINE
5
1EE
100
AcDbEntity
8
0
6
CONTINUOUS
62
7
370
-1
100
AcDbLine
10
533.885687111
20
536.924492332
11
583.885689098
21
536.924492332
0
LINE
5
1EF
100
AcDbEntity
8
0
6
CONTINUOUS
62
7
370
-1
100
AcDbLine
10
583.885689098
20
536.924492332
11
583.885689098
21
570.257793877
0
LINE
5
1F0
100
AcDbEntity
8
0
6
CONTINUOUS
62
7
370
-1
100
AcDbLine
10
583.885689098
20
670.25779785
11
533.885687111
21
670.25779785
0
LINE
5
1F1
100
AcDbEntity
8
0
6
CONTINUOUS
62
7
370
-1
100
AcDbLine
10
533.885687111
20
670.25779785
11
533.885687111
21
636.924496306
0
LINE
5
1F2
100
AcDbEntity
8
0
6
CONTINUOUS
62
7
370
-1
100
AcDbLine
10
533.885687111
20
636.924496306
11
583.885689098
21
636.924496306
0
LINE
5
1F3
100
AcDbEntity
8
0
6
CONTINUOUS
62
7
370
-1
100
AcDbLine
10
583.885689098
20
636.924496306
11
583.885689098
21
670.25779785
0
LINE
5
1F4
100
AcDbEntity
8
0
6
CONTINUOUS
62
7
370
-1
100
AcDbLine
10
583.885689098
20
818.591133766
11
533.885687111
21
818.591133766
0
LINE
5
1F5
100
AcDbEntity
8
0
6
CONTINUOUS
62
7
370
-1
100
AcDbLine
10
533.885687111
20
818.591133766
11
533.885687111
21
785.257807387
0
LINE
5
1F6
100
AcDbEntity
8
0
6
CONTINUOUS
62
7
370
-1
100
AcDbLine
10
533.885687111
20
785.257807387
11
583.885689098
21
785.257807387
0
LINE
5
1F7
100
AcDbEntity
8
0
6
CONTINUOUS
62
7
370
-1
100
AcDbLine
10
583.885689098
20
785.257807387
11
583.885689098
21
818.591133766
0
CIRCLE
5
1F8
100
AcDbEntity
8
0
6
CONTINUOUS
62
7
370
-1
100
AcDbCircle
10
625.552370349
20
801.924477731
40
7.5
0
CIRCLE
5
1F9
100
AcDbEntity
8
0
6
CONTINUOUS
62
7
370
-1
100
AcDbCircle
10
492.219037016
20
801.924477731
40
7.5
0
CIRCLE
5
1FA
100
AcDbEntity
8
0
6
CONTINUOUS
62
7
370
-1
100
AcDbCircle
10
492.219037016
20
653.591144397
40
7.5
0
CIRCLE
5
1FB
100
AcDbEntity
8
0
6
CONTINUOUS
62
7
370
-1
100
AcDbCircle
10
625.552370349
20
653.591144397
40
7.5
0
CIRCLE
5
1FC
100
AcDbEntity
8
0
6
CONTINUOUS
62
7
370
-1
100
AcDbCircle
10
625.552370349
20
553.591144397
40
7.5
0
CIRCLE
5
1FD
100
AcDbEntity
8
0
6
CONTINUOUS
62
7
370
-1
100
AcDbCircle
10
492.219037016
20
553.591144397
40
7.5
0
LINE
5
1FE
100
AcDbEntity
8
0
6
CONTINUOUS
62
7
370
-1
100
AcDbLine
10
524.441281476
20
1010.25781012
11
509.441275913
21
1010.25781012
0
LINE
5
1FF
100
AcDbEntity
8
0
6
CONTINUOUS
62
7
370
-1
100
AcDbLine
10
524.441281476
20
1036.92447495
11
524.441281476
21
1010.25781012
0
LINE
5
200
100
AcDbEntity
8
0
6
CONTINUOUS
62
7
370
-1
100
AcDbLine
10
593.330144404
20
1036.92447495
11
524.441281476
21
1036.92447495
0
LINE
5
201
100
AcDbEntity
8
0
6
CONTINUOUS
62
7
370
-1
100
AcDbLine
10
593.330144404
20
1036.92447495
11
593.330144404
21
1010.25781012
0
LINE
5
202
100
AcDbEntity
8
0
6
CONTINUOUS
62
7
370
-1
100
AcDbLine
10
608.330149967
20
1010.25781012
11
593.330144404
21
1010.25781012
0
ARC
5
203
100
AcDbEntity
8
0
6
CONTINUOUS
62
7
370
-1
100
AcDbCircle
10
621.66348146
20
1010.25781106
40
13.3333333333
100
AcDbArc
50
180
51
0
0
LINE
5
204
100
AcDbEntity
8
0
6
CONTINUOUS
62
7
370
-1
100
AcDbLine
10
649.996826568
20
1010.25781012
11
634.996821005
21
1010.25781012
0
LINE
5
205
100
AcDbEntity
8
0
6
CONTINUOUS
62
7
370
-1
100
AcDbLine
10
649.996826568
20
1036.92447495
11
649.996826568
21
1010.25781012
0
LINE
5
206
100
AcDbEntity
8
0
6
CONTINUOUS
62
7
370
-1
100
AcDbLine
10
718.885689495
20
1036.92447495
11
649.996826568
21
1036.92447495
0
LINE
5
207
100
AcDbEntity
8
0
6
CONTINUOUS
62
7
370
-1
100
AcDbLine
10
718.885689495
20
1036.92447495
11
718.885689495
21
1010.25781012
0
LINE
5
208
100
AcDbEntity
8
0
6
CONTINUOUS
62
7
370
-1
100
AcDbLine
10
775.552371659
20
1010.25781012
11
718.885689495
21
1010.25781012
0
LINE
5
209
100
AcDbEntity
8
0
6
CONTINUOUS
62
7
370
-1
100
AcDbLine
10
775.552371659
20
980.257805201
11
775.552371659
21
1010.25781012
0
LINE
5
20A
100
AcDbEntity
8
0
6
CONTINUOUS
62
7
370
-1
100
AcDbLine
10
748.885700622
20
980.257805201
11
775.552371659
21
980.257805201
0
LINE
5
20B
100
AcDbEntity
8
0
6
CONTINUOUS
62
7
370
-1
100
AcDbLine
10
748.885700622
20
930.257815632
11
748.885700622
21
980.257805201
0
LINE
5
20C
100
AcDbEntity
8
0
6
CONTINUOUS
62
7
370
-1
100
AcDbLine
10
748.885700622
20
930.257815632
11
775.552371659
21
930.257815632
0
LINE
5
20D
100
AcDbEntity
8
0
6
CONTINUOUS
62
7
370
-1
100
AcDbLine
10
775.552371659
20
873.591145886
11
775.552371659
21
930.257815632
0
LINE
5
20E
100
AcDbEntity
8
0
6
CONTINUOUS
62
7
370
-1
100
AcDbLine
10
748.885700622
20
873.591145886
11
775.552371659
21
873.591145886
0
LINE
5
20F
100
AcDbEntity
8
0
6
CONTINUOUS
62
7
370
-1
100
AcDbLine
10
748.885700622
20
823.591143899
11
748.885700622
21
873.591145886
0
LINE
5
210
100
AcDbEntity
8
0
6
CONTINUOUS
62
7
370
-1
100
AcDbLine
10
748.885700622
20
823.591143899
11
775.552371659
21
823.591143899
0
LINE
5
211
100
AcDbEntity
8
0
6
CONTINUOUS
62
7
370
-1
100
AcDbLine
10
775.552371659
20
766.924486571
11
775.552371659
21
823.591143899
0
LINE
5
212
100
AcDbEntity
8
0
6
CONTINUOUS
62
7
370
-1
100
AcDbLine
10
748.885700622
20
766.924486571
11
775.552371659
21
766.924486571
0
LINE
5
213
100
AcDbEntity
8
0
6
CONTINUOUS
62
7
370
-1
100
AcDbLine
10
748.885700622
20
716.924484584
11
748.885700622
21
766.924486571
0
LINE
5
214
100
AcDbEntity
8
0
6
CONTINUOUS
62
7
370
-1
100
AcDbLine
10
748.885700622
20
716.924484584
11
775.552371659
21
716.924484584
0
LINE
5
215
100
AcDbEntity
8
0
6
CONTINUOUS
62
7
370
-1
100
AcDbLine
10
775.552371659
20
603.591145091
11
775.552371659
21
716.924484584
0
LINE
5
216
100
AcDbEntity
8
0
6
CONTINUOUS
62
7
370
-1
100
AcDbLine
10
748.885700622
20
603.591145091
11
775.552371659
21
603.591145091
0
LINE
5
217
100
AcDbEntity
8
0
6
CONTINUOUS
62
7
370
-1
100
AcDbLine
10
748.885700622
20
553.591143104
11
748.885700622
21
603.591145091
0
LINE
5
218
100
AcDbEntity
8
0
6
CONTINUOUS
62
7
370
-1
100
AcDbLine
10
748.885700622
20
553.591143104
11
775.552371659
21
553.591143104
0
LINE
5
219
100
AcDbEntity
8
0
6
CONTINUOUS
62
7
370
-1
100
AcDbLine
10
775.552371659
20
496.924460941
11
775.552371659
21
553.591143104
0
LINE
5
21A
100
AcDbEntity
8
0
6
CONTINUOUS
62
7
370
-1
100
AcDbLine
10
748.885700622
20
496.924460941
11
775.552371659
21
496.924460941
0
LINE
5
21B
100
AcDbEntity
8
0
6
CONTINUOUS
62
7
370
-1
100
AcDbLine
10
748.885700622
20
446.924458954
11
748.885700622
21
496.924460941
0
LINE
5
21C
100
AcDbEntity
8
0
6
CONTINUOUS
62
7
370
-1
100
AcDbLine
10
748.885700622
20
446.924458954
11
775.552371659
21
446.924458954
0
LINE
5
21D
100
AcDbEntity
8
0
6
CONTINUOUS
62
7
370
-1
100
AcDbLine
10
775.552371659
20
390.25782646
11
775.552371659
21
446.924458954
0
LINE
5
21E
100
AcDbEntity
8
0
6
CONTINUOUS
62
7
370
-1
100
AcDbLine
10
748.885700622
20
390.25782646
11
775.552371659
21
390.25782646
0
LINE
5
21F
100
AcDbEntity
8
0
6
CONTINUOUS
62
7
370
-1
100
AcDbLine
10
748.885700622
20
340.257824474
11
748.885700622
21
390.25782646
0
LINE
5
220
100
AcDbEntity
8
0
6
CONTINUOUS
62
7
370
-1
100
AcDbLine
10
748.885700622
20
340.257824474
11
775.552371659
21
340.257824474
0
LINE
5
221
100
AcDbEntity
8
0
6
CONTINUOUS
62
7
370
-1
100
AcDbLine
10
775.552371659
20
310.257813347
11
775.552371659
21
340.257824474
0
LINE
5
222
100
AcDbEntity
8
0
6
CONTINUOUS
62
7
370
-1
100
AcDbLine
10
718.885689495
20
283.59114231
11
649.996826568
21
283.59114231
0
LINE
5
223
100
AcDbEntity
8
0
6
CONTINUOUS
62
7
370
-1
100
AcDbLine
10
593.330144404
20
310.257813347
11
649.996826568
21
310.257813347
0
LINE
5
224
100
AcDbEntity
8
0
6
CONTINUOUS
62
7
370
-1
100
AcDbLine
10
593.330144404
20
283.59114231
11
593.330144404
21
310.257813347
0
LINE
5
225
100
AcDbEntity
8
0
6
CONTINUOUS
62
7
370
-1
100
AcDbLine
10
593.330144404
20
283.59114231
11
524.441281476
21
283.59114231
0
LINE
5
226
100
AcDbEntity
8
0
6
CONTINUOUS
62
7
370
-1
100
AcDbLine
10
524.441281476
20
283.59114231
11
524.441281476
21
310.257813347
0
LINE
5
227
100
AcDbEntity
8
0
6
CONTINUOUS
62
7
370
-1
100
AcDbLine
10
467.774599312
20
310.257813347
11
524.441281476
21
310.257813347
0
LINE
5
228
100
AcDbEntity
8
0
6
CONTINUOUS
62
7
370
-1
100
AcDbLine
10
467.774599312
20
283.59114231
11
467.774599312
21
310.257813347
0
LINE
5
229
100
AcDbEntity
8
0
6
CONTINUOUS
62
7
370
-1
100
AcDbLine
10
467.774599312
20
283.59114231
11
398.885736384
21
283.59114231
0
LINE
5
22A
100
AcDbEntity
8
0
6
CONTINUOUS
62
7
370
-1
100
AcDbLine
10
398.885736384
20
283.59114231
11
398.885736384
21
310.257813347
0
LINE
5
22B
100
AcDbEntity
8
0
6
CONTINUOUS
62
7
370
-1
100
AcDbLine
10
342.21900455
20
310.257813347
11
398.885736384
21
310.257813347
0
LINE
5
22C
100
AcDbEntity
8
0
6
CONTINUOUS
62
7
370
-1
100
AcDbLine
10
342.21900455
20
340.257824474
11
342.21900455
21
310.257813347
0
LINE
5
22D
100
AcDbEntity
8
0
6
CONTINUOUS
62
7
370
-1
100
AcDbLine
10
368.885725258
20
340.257824474
11
342.21900455
21
340.257824474
0
LINE
5
22E
100
AcDbEntity
8
0
6
CONTINUOUS
62
7
370
-1
100
AcDbLine
10
368.885725258
20
340.257824474
11
368.885725258
21
390.25782646
0
LINE
5
22F
100
AcDbEntity
8
0
6
CONTINUOUS
62
7
370
-1
100
AcDbLine
10
368.885725258
20
390.25782646
11
342.21900455
21
390.25782646
0
LINE
5
230
100
AcDbEntity
8
0
6
CONTINUOUS
62
7
370
-1
100
AcDbLine
10
342.21900455
20
446.924458954
11
342.21900455
21
390.25782646
0
LINE
5
231
100
AcDbEntity
8
0
6
CONTINUOUS
62
7
370
-1
100
AcDbLine
10
368.885725258
20
446.924458954
11
342.21900455
21
446.924458954
0
LINE
5
232
100
AcDbEntity
8
0
6
CONTINUOUS
62
7
370
-1
100
AcDbLine
10
368.885725258
20
446.924458954
11
368.885725258
21
496.924460941
0
LINE
5
233
100
AcDbEntity
8
0
6
CONTINUOUS
62
7
370
-1
100
AcDbLine
10
368.885725258
20
496.924460941
11
342.21900455
21
496.924460941
0
LINE
5
234
100
AcDbEntity
8
0
6
CONTINUOUS
62
7
370
-1
100
AcDbLine
10
342.21900455
20
553.591143104
11
342.21900455
21
496.924460941
0
LINE
5
235
100
AcDbEntity
8
0
6
CONTINUOUS
62
7
370
-1
100
AcDbLine
10
368.885725258
20
553.591143104
11
342.21900455
21
553.591143104
0
LINE
5
236
100
AcDbEntity
8
0
6
CONTINUOUS
62
7
370
-1
100
AcDbLine
10
368.885725258
20
553.591143104
11
368.885725258
21
603.591145091
0
LINE
5
237
100
AcDbEntity
8
0
6
CONTINUOUS
62
7
370
-1
100
AcDbLine
10
368.885725258
20
603.591145091
11
342.21900455
21
603.591145091
0
LINE
5
238
100
AcDbEntity
8
0
6
CONTINUOUS
62
7
370
-1
100
AcDbLine
10
342.21900455
20
716.924484584
11
342.21900455
21
603.591145091
0
LINE
5
239
100
AcDbEntity
8
0
6
CONTINUOUS
62
7
370
-1
100
AcDbLine
10
368.885725258
20
716.924484584
11
342.21900455
21
716.924484584
0
LINE
5
23A
100
AcDbEntity
8
0
6
CONTINUOUS
62
7
370
-1
100
AcDbLine
10
368.885725258
20
716.924484584
11
368.885725258
21
766.924486571
0
LINE
5
23B
100
AcDbEntity
8
0
6
CONTINUOUS
62
7
370
-1
100
AcDbLine
10
368.885725258
20
766.924486571
11
342.21900455
21
766.924486571
0
LINE
5
23C
100
AcDbEntity
8
0
6
CONTINUOUS
62
7
370
-1
100
AcDbLine
10
342.21900455
20
823.591143899
11
342.21900455
21
766.924486571
0
LINE
5
23D
100
AcDbEntity
8
0
6
CONTINUOUS
62
7
370
-1
100
AcDbLine
10
368.885725258
20
823.591143899
11
342.21900455
21
823.591143899
0
LINE
5
23E
100
AcDbEntity
8
0
6
CONTINUOUS
62
7
370
-1
100
AcDbLine
10
368.885725258
20
823.591143899
11
368.885725258
21
873.591145886
0
LINE
5
23F
100
AcDbEntity
8
0
6
CONTINUOUS
62
7
370
-1
100
AcDbLine
10
368.885725258
20
873.591145886
11
342.21900455
21
873.591145886
0
LINE
5
240
100
AcDbEntity
8
0
6
CONTINUOUS
62
7
370
-1
100
AcDbLine
10
342.21900455
20
930.257815632
11
342.21900455
21
873.591145886
0
LINE
5
241
100
AcDbEntity
8
0
6
CONTINUOUS
62
7
370
-1
100
AcDbLine
10
368.885725258
20
930.257815632
11
342.21900455
21
930.257815632
0
LINE
5
242
100
AcDbEntity
8
0
6
CONTINUOUS
62
7
370
-1
100
AcDbLine
10
368.885725258
20
930.257815632
11
368.885725258
21
980.257805201
0
LINE
5
243
100
AcDbEntity
8
0
6
CONTINUOUS
62
7
370
-1
100
AcDbLine
10
368.885725258
20
980.257805201
11
342.21900455
21
980.257805201
0
LINE
5
244
100
AcDbEntity
8
0
6
CONTINUOUS
62
7
370
-1
100
AcDbLine
10
342.21900455
20
1010.25781012
11
342.21900455
21
980.257805201
0
LINE
5
245
100
AcDbEntity
8
0
6
CONTINUOUS
62
7
370
-1
100
AcDbLine
10
398.885736384
20
1010.25781012
11
342.21900455
21
1010.25781012
0
LINE
5
246
100
AcDbEntity
8
0
6
CONTINUOUS
62
7
370
-1
100
AcDbLine
10
398.885736384
20
1036.92447495
11
398.885736384
21
1010.25781012
0
LINE
5
247
100
AcDbEntity
8
0
6
CONTINUOUS
62
7
370
-1
100
AcDbLine
10
467.774599312
20
1036.92447495
11
398.885736384
21
1036.92447495
0
LINE
5
248
100
AcDbEntity
8
0
6
CONTINUOUS
62
7
370
-1
100
AcDbLine
10
467.774599312
20
1036.92447495
11
467.774599312
21
1010.25781012
0
LINE
5
249
100
AcDbEntity
8
0
6
CONTINUOUS
62
7
370
-1
100
AcDbLine
10
482.774604875
20
1010.25781012
11
467.774599312
21
1010.25781012
0
ARC
5
24A
100
AcDbEntity
8
0
6
CONTINUOUS
62
7
370
-1
100
AcDbCircle
10
496.107925905
20
1010.25781106
40
13.3333333333
100
AcDbArc
50
180
51
0
0
LINE
5
24B
100
AcDbEntity
8
0
6
CONTINUOUS
62
7
370
-1
100
AcDbLine
10
718.885689495
20
310.257813347
11
775.552371659
21
310.257813347
0
LINE
5
24C
100
AcDbEntity
8
0
6
CONTINUOUS
62
7
370
-1
100
AcDbLine
10
718.885689495
20
283.59114231
11
718.885689495
21
310.257813347
0
LINE
5
24D
100
AcDbEntity
8
0
6
CONTINUOUS
62
7
370
-1
100
AcDbLine
10
649.996826568
20
283.59114231
11
649.996826568
21
310.257813347
0
LINE
5
24E
100
AcDbEntity
8
0
6
CONTINUOUS
62
7
370
-1
100
AcDbLine
10
806.237687189
20
340.257824474
11
806.237687189
21
283.59114231
0
LINE
5
24F
100
AcDbEntity
8
0
6
CONTINUOUS
62
7
370
-1
100
AcDbLine
10
832.904358226
20
340.257824474
11
806.237687189
21
340.257824474
0
LINE
5
250
100
AcDbEntity
8
0
6
CONTINUOUS
62
7
370
-1
100
AcDbLine
10
832.904358226
20
409.146687401
11
832.904358226
21
340.257824474
0
LINE
5
251
100
AcDbEntity
8
0
6
CONTINUOUS
62
7
370
-1
100
AcDbLine
10
832.904358226
20
409.146687401
11
806.237687189
21
409.146687401
0
LINE
5
252
100
AcDbEntity
8
0
6
CONTINUOUS
62
7
370
-1
100
AcDbLine
10
806.237687189
20
465.813369565
11
806.237687189
21
409.146687401
0
LINE
5
253
100
AcDbEntity
8
0
6
CONTINUOUS
62
7
370
-1
100
AcDbLine
10
832.904358226
20
465.813369565
11
806.237687189
21
465.813369565
0
LINE
5
254
100
AcDbEntity
8
0
6
CONTINUOUS
62
7
370
-1
100
AcDbLine
10
832.904358226
20
534.702232493
11
832.904358226
21
465.813369565
0
LINE
5
255
100
AcDbEntity
8
0
6
CONTINUOUS
62
7
370
-1
100
AcDbLine
10
832.904358226
20
534.702232493
11
806.237687189
21
534.702232493
0
LINE
5
256
100
AcDbEntity
8
0
6
CONTINUOUS
62
7
370
-1
100
AcDbLine
10
806.237687189
20
591.368914657
11
806.237687189
21
534.702232493
0
LINE
5
257
100
AcDbEntity
8
0
6
CONTINUOUS
62
7
370
-1
100
AcDbLine
10
832.904358226
20
591.368914657
11
806.237687189
21
591.368914657
0
LINE
5
258
100
AcDbEntity
8
0
6
CONTINUOUS
62
7
370
-1
100
AcDbLine
10
832.904358226
20
660.257827255
11
832.904358226
21
591.368914657
0
LINE
5
259
100
AcDbEntity
8
0
6
CONTINUOUS
62
7
370
-1
100
AcDbLine
10
832.904358226
20
660.257827255
11
806.237687189
21
660.257827255
0
LINE
5
25A
100
AcDbEntity
8
0
6
CONTINUOUS
62
7
370
-1
100
AcDbLine
10
806.237687189
20
773.591141912
11
806.237687189
21
660.257827255
0
LINE
5
25B
100
AcDbEntity
8
0
6
CONTINUOUS
62
7
370
-1
100
AcDbLine
10
832.904358226
20
773.591141912
11
806.237687189
21
773.591141912
0
LINE
5
25C
100
AcDbEntity
8
0
6
CONTINUOUS
62
7
370
-1
100
AcDbLine
10
832.904358226
20
842.480029675
11
806.237687189
21
842.480029675
0
LINE
5
25D
100
AcDbEntity
8
0
6
CONTINUOUS
62
7
370
-1
100
AcDbLine
10
806.237687189
20
899.146699422
11
806.237687189
21
842.480029675
0
LINE
5
25E
100
AcDbEntity
8
0
6
CONTINUOUS
62
7
370
-1
100
AcDbLine
10
832.904358226
20
968.035587185
11
832.904358226
21
899.146699422
0
LINE
5
25F
100
AcDbEntity
8
0
6
CONTINUOUS
62
7
370
-1
100
AcDbLine
10
832.904358226
20
968.035587185
11
806.237687189
21
968.035587185
0
LINE
5
260
100
AcDbEntity
8
0
6
CONTINUOUS
62
7
370
-1
100
AcDbLine
10
806.237687189
20
1024.70225693
11
806.237687189
21
968.035587185
0
LINE
5
261
100
AcDbEntity
8
0
6
CONTINUOUS
62
7
370
-1
100
AcDbLine
10
832.904358226
20
1024.70225693
11
806.237687189
21
1024.70225693
0
LINE
5
262
100
AcDbEntity
8
0
6
CONTINUOUS
62
7
370
-1
100
AcDbLine
10
832.904358226
20
1093.59114469
11
832.904358226
21
1024.70225693
0
LINE
5
263
100
AcDbEntity
8
0
6
CONTINUOUS
62
7
370
-1
100
AcDbLine
10
832.904358226
20
1093.59114469
11
806.237687189
21
1093.59114469
0
LINE
5
264
100
AcDbEntity
8
0
6
CONTINUOUS
62
7
370
-1
100
AcDbLine
10
862.904369353
20
1150.25781134
11
806.237687189
21
1150.25781134
0
LINE
5
265
100
AcDbEntity
8
0
6
CONTINUOUS
62
7
370
-1
100
AcDbLine
10
862.904369353
20
1150.25781134
11
862.904369353
21
1123.59114495
0
LINE
5
266
100
AcDbEntity
8
0
6
CONTINUOUS
62
7
370
-1
100
AcDbLine
10
862.904369353
20
1123.59114495
11
931.79323228
21
1123.59114495
0
LINE
5
267
100
AcDbEntity
8
0
6
CONTINUOUS
62
7
370
-1
100
AcDbLine
10
931.79323228
20
1123.59114495
11
931.79323228
21
1150.25781134
0
LINE
5
268
100
AcDbEntity
8
0
6
CONTINUOUS
62
7
370
-1
100
AcDbLine
10
988.459914444
20
1150.25781134
11
931.79323228
21
1150.25781134
0
LINE
5
269
100
AcDbEntity
8
0
6
CONTINUOUS
62
7
370
-1
100
AcDbLine
10
988.459914444
20
1150.25781134
11
988.459914444
21
1123.59114495
0
LINE
5
26A
100
AcDbEntity
8
0
6
CONTINUOUS
62
7
370
-1
100
AcDbLine
10
988.459914444
20
1123.59114495
11
1057.34880221
21
1123.59114495
0
LINE
5
26B
100
AcDbEntity
8
0
6
CONTINUOUS
62
7
370
-1
100
AcDbLine
10
1057.34880221
20
1123.59114495
11
1057.34880221
21
1150.25781134
0
LINE
5
26C
100
AcDbEntity
8
0
6
CONTINUOUS
62
7
370
-1
100
AcDbLine
10
1114.01545954
20
1150.25781134
11
1057.34880221
21
1150.25781134
0
LINE
5
26D
100
AcDbEntity
8
0
6
CONTINUOUS
62
7
370
-1
100
AcDbLine
10
1114.01545954
20
1150.25781134
11
1114.01545954
21
1123.59114495
0
LINE
5
26E
100
AcDbEntity
8
0
6
CONTINUOUS
62
7
370
-1
100
AcDbLine
10
1114.01545954
20
1123.59114495
11
1182.9043473
21
1123.59114495
0
LINE
5
26F
100
AcDbEntity
8
0
6
CONTINUOUS
62
7
370
-1
100
AcDbLine
10
1182.9043473
20
1123.59114495
11
1182.9043473
21
1150.25781134
0
LINE
5
270
100
AcDbEntity
8
0
6
CONTINUOUS
62
7
370
-1
100
AcDbLine
10
1239.57101705
20
1150.25781134
11
1182.9043473
21
1150.25781134
0
LINE
5
271
100
AcDbEntity
8
0
6
CONTINUOUS
62
7
370
-1
100
AcDbLine
10
1239.57101705
20
1093.59114469
11
1239.57101705
21
1150.25781134
0
LINE
5
272
100
AcDbEntity
8
0
6
CONTINUOUS
62
7
370
-1
100
AcDbLine
10
1212.90434601
20
1093.59114469
11
1239.57101705
21
1093.59114469
0
LINE
5
273
100
AcDbEntity
8
0
6
CONTINUOUS
62
7
370
-1
100
AcDbLine
10
1212.90434601
20
1093.59114469
11
1212.90434601
21
1024.70225693
0
LINE
5
274
100
AcDbEntity
8
0
6
CONTINUOUS
62
7
370
-1
100
AcDbLine
10
1212.90434601
20
1024.70225693
11
1239.57101705
21
1024.70225693
0
LINE
5
275
100
AcDbEntity
8
0
6
CONTINUOUS
62
7
370
-1
100
AcDbLine
10
1239.57101705
20
968.035587185
11
1239.57101705
21
1024.70225693
0
LINE
5
276
100
AcDbEntity
8
0
6
CONTINUOUS
62
7
370
-1
100
AcDbLine
10
1212.90434601
20
968.035587185
11
1239.57101705
21
968.035587185
0
LINE
5
277
100
AcDbEntity
8
0
6
CONTINUOUS
62
7
370
-1
100
AcDbLine
10
1212.90434601
20
968.035587185
11
1212.90434601
21
899.146699422
0
LINE
5
278
100
AcDbEntity
8
0
6
CONTINUOUS
62
7
370
-1
100
AcDbLine
10
1212.90434601
20
899.146699422
11
1239.57101705
21
899.146699422
0
LINE
5
279
100
AcDbEntity
8
0
6
CONTINUOUS
62
7
370
-1
100
AcDbLine
10
1239.57101705
20
842.480029675
11
1239.57101705
21
899.146699422
0
LINE
5
27A
100
AcDbEntity
8
0
6
CONTINUOUS
62
7
370
-1
100
AcDbLine
10
1212.90434601
20
842.480029675
11
1239.57101705
21
842.480029675
0
LINE
5
27B
100
AcDbEntity
8
0
6
CONTINUOUS
62
7
370
-1
100
AcDbLine
10
1212.90434601
20
842.480029675
11
1212.90434601
21
773.591141912
0
LINE
5
27C
100
AcDbEntity
8
0
6
CONTINUOUS
62
7
370
-1
100
AcDbLine
10
1212.90434601
20
773.591141912
11
1239.57101705
21
773.591141912
0
LINE
5
27D
100
AcDbEntity
8
0
6
CONTINUOUS
62
7
370
-1
100
AcDbLine
10
1239.57101705
20
660.257827255
11
1239.57101705
21
773.591141912
0
LINE
5
27E
100
AcDbEntity
8
0
6
CONTINUOUS
62
7
370
-1
100
AcDbLine
10
1212.90434601
20
660.257827255
11
1212.90434601
21
591.368914657
0
LINE
5
27F
100
AcDbEntity
8
0
6
CONTINUOUS
62
7
370
-1
100
AcDbLine
10
1239.57101705
20
534.702232493
11
1239.57101705
21
591.368914657
0
LINE
5
280
100
AcDbEntity
8
0
6
CONTINUOUS
62
7
370
-1
100
AcDbLine
10
1212.90434601
20
534.702232493
11
1239.57101705
21
534.702232493
0
LINE
5
281
100
AcDbEntity
8
0
6
CONTINUOUS
62
7
370
-1
100
AcDbLine
10
1212.90434601
20
534.702232493
11
1212.90434601
21
465.813369565
0
LINE
5
282
100
AcDbEntity
8
0
6
CONTINUOUS
62
7
370
-1
100
AcDbLine
10
1212.90434601
20
465.813369565
11
1239.57101705
21
465.813369565
0
LINE
5
283
100
AcDbEntity
8
0
6
CONTINUOUS
62
7
370
-1
100
AcDbLine
10
1239.57101705
20
409.146687401
11
1239.57101705
21
465.813369565
0
LINE
5
284
100
AcDbEntity
8
0
6
CONTINUOUS
62
7
370
-1
100
AcDbLine
10
1212.90434601
20
409.146687401
11
1239.57101705
21
409.146687401
0
LINE
5
285
100
AcDbEntity
8
0
6
CONTINUOUS
62
7
370
-1
100
AcDbLine
10
1212.90434601
20
409.146687401
11
1212.90434601
21
340.257824474
0
LINE
5
286
100
AcDbEntity
8
0
6
CONTINUOUS
62
7
370
-1
100
AcDbLine
10
1212.90434601
20
340.257824474
11
1239.57101705
21
340.257824474
0
LINE
5
287
100
AcDbEntity
8
0
6
CONTINUOUS
62
7
370
-1
100
AcDbLine
10
1182.9043473
20
283.59114231
11
1239.57101705
21
283.59114231
0
LINE
5
288
100
AcDbEntity
8
0
6
CONTINUOUS
62
7
370
-1
100
AcDbLine
10
1182.9043473
20
310.257813347
11
1182.9043473
21
283.59114231
0
LINE
5
289
100
AcDbEntity
8
0
6
CONTINUOUS
62
7
370
-1
100
AcDbLine
10
1114.01545954
20
310.257813347
11
1182.9043473
21
310.257813347
0
LINE
5
28A
100
AcDbEntity
8
0
6
CONTINUOUS
62
7
370
-1
100
AcDbLine
10
1114.01545954
20
283.59114231
11
1114.01545954
21
310.257813347
0
LINE
5
28B
100
AcDbEntity
8
0
6
CONTINUOUS
62
7
370
-1
100
AcDbLine
10
1057.34880221
20
283.59114231
11
1114.01545954
21
283.59114231
0
LINE
5
28C
100
AcDbEntity
8
0
6
CONTINUOUS
62
7
370
-1
100
AcDbLine
10
1057.34880221
20
310.257813347
11
1057.34880221
21
283.59114231
0
LINE
5
28D
100
AcDbEntity
8
0
6
CONTINUOUS
62
7
370
-1
100
AcDbLine
10
988.459914444
20
310.257813347
11
1057.34880221
21
310.257813347
0
LINE
5
28E
100
AcDbEntity
8
0
6
CONTINUOUS
62
7
370
-1
100
AcDbLine
10
988.459914444
20
283.59114231
11
988.459914444
21
310.257813347
0
LINE
5
28F
100
AcDbEntity
8
0
6
CONTINUOUS
62
7
370
-1
100
AcDbLine
10
931.79323228
20
283.59114231
11
988.459914444
21
283.59114231
0
LINE
5
290
100
AcDbEntity
8
0
6
CONTINUOUS
62
7
370
-1
100
AcDbLine
10
931.79323228
20
310.257813347
11
931.79323228
21
283.59114231
0
LINE
5
291
100
AcDbEntity
8
0
6
CONTINUOUS
62
7
370
-1
100
AcDbLine
10
862.904369353
20
310.257813347
11
931.79323228
21
310.257813347
0
LINE
5
292
100
AcDbEntity
8
0
6
CONTINUOUS
62
7
370
-1
100
AcDbLine
10
862.904369353
20
283.59114231
11
862.904369353
21
310.257813347
0
LINE
5
293
100
AcDbEntity
8
0
6
CONTINUOUS
62
7
370
-1
100
AcDbLine
10
806.237687189
20
283.59114231
11
862.904369353
21
283.59114231
0
CIRCLE
5
294
100
AcDbEntity
8
0
6
CONTINUOUS
62
7
370
-1
100
AcDbCircle
10
1089.57101514
20
753.591144397
40
11
0
CIRCLE
5
295
100
AcDbEntity
8
0
6
CONTINUOUS
62
7
370
-1
100
AcDbCircle
10
1022.90434847
20
820.257811064
40
11
0
CIRCLE
5
296
100
AcDbEntity
8
0
6
CONTINUOUS
62
7
370
-1
100
AcDbCircle
10
956.237681808
20
753.591144397
40
11
0
CIRCLE
5
297
100
AcDbEntity
8
0
6
CONTINUOUS
62
7
370
-1
100
AcDbCircle
10
1022.90434847
20
686.924477731
40
11
0
LINE
5
298
100
AcDbEntity
8
0
6
CONTINUOUS
62
7
370
-1
100
AcDbLine
10
1212.90434601
20
591.368914657
11
1239.57101705
21
591.368914657
0
LINE
5
299
100
AcDbEntity
8
0
6
CONTINUOUS
62
7
370
-1
100
AcDbLine
10
1239.57101705
20
283.59114231
11
1239.57101705
21
340.257824474
0
LINE
5
29A
100
AcDbEntity
8
0
6
CONTINUOUS
62
7
370
-1
100
AcDbLine
10
832.904358226
20
899.146699422
11
806.237687189
21
899.146699422
0
LINE
5
29B
100
AcDbEntity
8
0
6
CONTINUOUS
62
7
370
-1
100
AcDbLine
10
832.904358226
20
842.480029675
11
832.904358226
21
773.591141912
0
LINE
5
29C
100
AcDbEntity
8
0
6
CONTINUOUS
62
7
370
-1
100
AcDbLine
10
1212.90434601
20
660.257827255
11
1239.57101705
21
660.257827255
0
LINE
5
29D
100
AcDbEntity
8
0
6
CONTINUOUS
62
7
370
-1
100
AcDbLine
10
806.237687189
20
1150.25781134
11
806.237687189
21
1093.59114469
0
ENDSEC
0
SECTION
2
OBJECTS
0
DICTIONARY
5
C
330
0
100
AcDbDictionary
281
1
3
ACAD_GROUP
350
D
0
DICTIONARY
5
D
330
C
100
AcDbDictionary
281
1
0
ENDSEC
0
EOF
