  0
SECTION
  2
HEADER
  9
$ACADVER
  1
AC1014
  9
$ACADMAINTVER
 70
     9
  9
$DWGCODEPAGE
  3
ANSI_1252
  9
$INSBASE
 10
0.0
 20
0.0
 30
0.0
  9
$EXTMIN
 10
0.0
 20
0.0
 30
0.0
  9
$EXTMAX
 10
2794.0
 20
2159.0
 30
0.0
  9
$LIMMIN
 10
0.0
 20
0.0
  9
$LIMMAX
 10
2794.0
 20
2159.0
  9
$ORTHOMODE
 70
     0
  9
$REGENMODE
 70
     1
  9
$FILLMODE
 70
     1
  9
$QTEXTMODE
 70
     0
  9
$MIRRTEXT
 70
     1
  9
$DRAGMODE
 70
     2
  9
$LTSCALE
 40
10.0
  9
$OSMODE
 70
    37
  9
$ATTMODE
 70
     1
  9
$TEXTSIZE
 40
25.0
  9
$TRACEWID
 40
1.0
  9
$TEXTSTYLE
  7
STANDARD
  9
$CLAYER
  8
0
  9
$CELTYPE
  6
BYLAYER
  9
$CECOLOR
 62
   256
  9
$CELTSCALE
 40
1.0
  9
$DELOBJ
 70
     1
  9
$DISPSILH
 70
     0
  9
$DIMSCALE
 40
1.0
  9
$DIMASZ
 40
30.0
  9
$DIMEXO
 40
10.0
  9
$DIMDLI
 40
3.75
  9
$DIMRND
 40
0.0
  9
$DIMDLE
 40
0.0
  9
$DIMEXE
 40
10.0
  9
$DIMTP
 40
0.0
  9
$DIMTM
 40
0.0
  9
$DIMTXT
 40
25.0
  9
$DIMCEN
 40
2.5
  9
$DIMTSZ
 40
0.0
  9
$DIMTOL
 70
     0
  9
$DIMLIM
 70
     0
  9
$DIMTIH
 70
     1
  9
$DIMTOH
 70
     1
  9
$DIMSE1
 70
     0
  9
$DIMSE2
 70
     0
  9
$DIMTAD
 70
     1
  9
$DIMZIN
 70
     0
  9
$DIMBLK
  1

  9
$DIMASO
 70
     1
  9
$DIMSHO
 70
     1
  9
$DIMPOST
  1

  9
$DIMAPOST
  1

  9
$DIMALT
 70
     0
  9
$DIMALTD
 70
     3
  9
$DIMALTF
 40
0.0393700787
  9
$DIMLFAC
 40
1.0
  9
$DIMTOFL
 70
     1
  9
$DIMTVP
 40
0.0
  9
$DIMTIX
 70
     0
  9
$DIMSOXD
 70
     0
  9
$DIMSAH
 70
     0
  9
$DIMBLK1
  1

  9
$DIMBLK2
  1

  9
$DIMSTYLE
  2
ISO-25
  9
$DIMCLRD
 70
     0
  9
$DIMCLRE
 70
     0
  9
$DIMCLRT
 70
     0
  9
$DIMTFAC
 40
1.0
  9
$DIMGAP
 40
15.24
  9
$DIMJUST
 70
     0
  9
$DIMSD1
 70
     0
  9
$DIMSD2
 70
     0
  9
$DIMTOLJ
 70
     0
  9
$DIMTZIN
 70
     0
  9
$DIMALTZ
 70
     0
  9
$DIMALTTZ
 70
     0
  9
$DIMFIT
 70
     3
  9
$DIMUPT
 70
     0
  9
$DIMUNIT
 70
     2
  9
$DIMDEC
 70
     2
  9
$DIMTDEC
 70
     2
  9
$DIMALTU
 70
     2
  9
$DIMALTTD
 70
     3
  9
$DIMTXSTY
  7
STANDARD
  9
$DIMAUNIT
 70
     0
  9
$LUNITS
 70
     2
  9
$LUPREC
 70
     2
  9
$SKETCHINC
 40
1.0
  9
$FILLETRAD
 40
10.0
  9
$AUNITS
 70
     0
  9
$AUPREC
 70
     2
  9
$MENU
  1
.
  9
$ELEVATION
 40
0.0
  9
$PELEVATION
 40
0.0
  9
$THICKNESS
 40
0.0
  9
$LIMCHECK
 70
     0
  9
$CHAMFERA
 40
0.0
  9
$CHAMFERB
 40
0.0
  9
$CHAMFERC
 40
0.0
  9
$CHAMFERD
 40
0.0
  9
$SKPOLY
 70
     0
  9
$TDCREATE
 40
2457064.563306747
  9
$TDUPDATE
 40
2457064.563307326
  9
$TDINDWG
 40
0.0000000116
  9
$TDUSRTIMER
 40
0.0000000116
  9
$USRTIMER
 70
     1
  9
$ANGBASE
 50
0.0
  9
$ANGDIR
 70
     0
  9
$PDMODE
 70
     0
  9
$PDSIZE
 40
-1.0
  9
$PLINEWID
 40
0.0
  9
$COORDS
 70
     1
  9
$SPLFRAME
 70
     0
  9
$SPLINETYPE
 70
     6
  9
$SPLINESEGS
 70
     8
  9
$ATTDIA
 70
     0
  9
$ATTREQ
 70
     1
  9
$HANDLING
 70
     1
  9
$HANDSEED
  5
2D0
  9
$SURFTAB1
 70
     6
  9
$SURFTAB2
 70
     6
  9
$SURFTYPE
 70
     6
  9
$SURFU
 70
     6
  9
$SURFV
 70
     6
  9
$UCSNAME
  2

  9
$UCSORG
 10
0.0
 20
0.0
 30
0.0
  9
$UCSXDIR
 10
1.0
 20
0.0
 30
0.0
  9
$UCSYDIR
 10
0.0
 20
1.0
 30
0.0
  9
$PUCSNAME
  2

  9
$PUCSORG
 10
0.0
 20
0.0
 30
0.0
  9
$PUCSXDIR
 10
1.0
 20
0.0
 30
0.0
  9
$PUCSYDIR
 10
0.0
 20
1.0
 30
0.0
  9
$USERI1
 70
     0
  9
$USERI2
 70
     0
  9
$USERI3
 70
     0
  9
$USERI4
 70
     0
  9
$USERI5
 70
     0
  9
$USERR1
 40
0.0
  9
$USERR2
 40
0.0
  9
$USERR3
 40
0.0
  9
$USERR4
 40
0.0
  9
$USERR5
 40
0.0
  9
$WORLDVIEW
 70
     1
  9
$SHADEDGE
 70
     3
  9
$SHADEDIF
 70
    70
  9
$TILEMODE
 70
     1
  9
$MAXACTVP
 70
    64
  9
$PINSBASE
 10
0.0
 20
0.0
 30
0.0
  9
$PLIMCHECK
 70
     0
  9
$PEXTMIN
 10
1.0000000000E+20
 20
1.0000000000E+20
 30
1.0000000000E+20
  9
$PEXTMAX
 10
-1.0000000000E+20
 20
-1.0000000000E+20
 30
-1.0000000000E+20
  9
$PLIMMIN
 10
0.0
 20
0.0
  9
$PLIMMAX
 10
420.0
 20
297.0
  9
$UNITMODE
 70
     0
  9
$VISRETAIN
 70
     1
  9
$PLINEGEN
 70
     0
  9
$PSLTSCALE
 70
     1
  9
$TREEDEPTH
 70
  3020
  9
$PICKSTYLE
 70
     1
  9
$CMLSTYLE
  2
STANDARD
  9
$CMLJUST
 70
     0
  9
$CMLSCALE
 40
20.0
  9
$PROXYGRAPHICS
 70
     1
  9
$MEASUREMENT
 70
     1
  0
ENDSEC
  0
SECTION
  2
CLASSES
  0
CLASS
  1
ACDBDICTIONARYWDFLT
  2
AcDbDictionaryWithDefault
  3
ObjectDBX Classes
 90
        0
280
     0
281
     0
  0
CLASS
  1
VISUALSTYLE
  2
AcDbVisualStyle
  3
ObjectDBX Classes
 90
     4095
280
     0
281
     0
  0
CLASS
  1
MATERIAL
  2
AcDbMaterial
  3
ObjectDBX Classes
 90
     1153
280
     0
281
     0
  0
CLASS
  1
SCALE
  2
AcDbScale
  3
ObjectDBX Classes
 90
     1153
280
     0
281
     0
  0
CLASS
  1
SUN
  2
AcDbSun
  3
SCENEOE
 90
     1153
280
     0
281
     0
  0
CLASS
  1
XRECORD
  2
AcDbXrecord
  3
ObjectDBX Classes
 90
        0
280
     0
281
     0
  0
CLASS
  1
LWPOLYLINE
  2
AcDbPolyline
  3
ObjectDBX Classes
 90
        0
280
     0
281
     1
  0
CLASS
  1
HATCH
  2
AcDbHatch
  3
ObjectDBX Classes
 90
        0
280
     0
281
     1
  0
ENDSEC
  0
SECTION
  2
TABLES
  0
TABLE
  2
VPORT
  5
8
330
0
100
AcDbSymbolTable
 70
     1
  0
VPORT
  5
29
330
8
100
AcDbSymbolTableRecord
100
AcDbViewportTableRecord
  2
*ACTIVE
 70
     0
 10
0.0
 20
0.0
 11
1.0
 21
1.0
 12
1397.0
 22
1079.5
 13
0.0
 23
0.0
 14
10.0
 24
10.0
 15
10.0
 25
10.0
 16
0.0
 26
0.0
 36
1.0
 17
0.0
 27
0.0
 37
0.0
 40
2159.0
 41
1.2941176471
 42
50.0
 43
0.0
 44
0.0
 50
0.0
 51
0.0
 71
     0
 72
  2000
 73
     1
 74
     3
 75
     0
 76
     0
 77
     0
 78
     0
  0
ENDTAB
  0
TABLE
  2
LTYPE
  5
5
330
0
100
AcDbSymbolTable
 70
     6
  0
LTYPE
  5
14
330
5
100
AcDbSymbolTableRecord
100
AcDbLinetypeTableRecord
  2
BYBLOCK
 70
     0
  3

 72
    65
 73
     0
 40
0.0
  0
LTYPE
  5
15
330
5
100
AcDbSymbolTableRecord
100
AcDbLinetypeTableRecord
  2
BYLAYER
 70
     0
  3

 72
    65
 73
     0
 40
0.0
  0
LTYPE
  5
16
330
5
100
AcDbSymbolTableRecord
100
AcDbLinetypeTableRecord
  2
CONTINUOUS
 70
     0
  3
Solid line
 72
    65
 73
     0
 40
0.0
  0
LTYPE
  5
6A
330
5
100
AcDbSymbolTableRecord
100
AcDbLinetypeTableRecord
  2
HIDDEN
 70
     0
  3
Hidden __ __ __ __ __ __ __ __ __ __ __ __ __ __
 72
    65
 73
     2
 40
1.905
 49
1.27
 74
     0
 49
-0.635
 74
     0
  0
LTYPE
  5
6B
330
5
100
AcDbSymbolTableRecord
100
AcDbLinetypeTableRecord
  2
PHANTOM
 70
     0
  3
Phantom ______  __  __  ______  __  __  ______
 72
    65
 73
     6
 40
12.7
 49
6.35
 74
     0
 49
-1.27
 74
     0
 49
1.27
 74
     0
 49
-1.27
 74
     0
 49
1.27
 74
     0
 49
-1.27
 74
     0
  0
LTYPE
  5
6C
330
5
100
AcDbSymbolTableRecord
100
AcDbLinetypeTableRecord
  2
CENTER
 70
     0
  3
Center ____ _ ____ _ ____ _ ____ _ ____ _ ____
 72
    65
 73
     4
 40
10.16
 49
6.35
 74
     0
 49
-1.27
 74
     0
 49
1.27
 74
     0
 49
-1.27
 74
     0
  0
LTYPE
  5
6D
330
5
100
AcDbSymbolTableRecord
100
AcDbLinetypeTableRecord
  2
CENTERX2
 70
     0
  3
Center (2x) ________  __  ________  __  _____
 72
    65
 73
     4
 40
20.32
 49
12.7
 74
     0
 49
-2.54
 74
     0
 49
2.54
 74
     0
 49
-2.54
 74
     0
  0
LTYPE
  5
6E
330
5
100
AcDbSymbolTableRecord
100
AcDbLinetypeTableRecord
  2
DOT2
 70
     0
  3
Dot (.5x) ........................................
 72
    65
 73
     2
 40
0.635
 49
0.0
 74
     0
 49
-0.635
 74
     0
  0
ENDTAB
  0
TABLE
  2
LAYER
  5
2
330
0
100
AcDbSymbolTable
 70
     2
  0
LAYER
  5
10
330
2
100
AcDbSymbolTableRecord
100
AcDbLayerTableRecord
  2
0
 70
     0
 62
     7
  6
CONTINUOUS
  0
LAYER
  5
6F
330
2
100
AcDbSymbolTableRecord
100
AcDbLayerTableRecord
  2
QUOTE
 70
     0
 62
     5
  6
CONTINUOUS
  0
ENDTAB
  0
TABLE
  2
STYLE
  5
3
330
0
100
AcDbSymbolTable
 70
     2
  0
STYLE
  5
11
330
3
100
AcDbSymbolTableRecord
100
AcDbTextStyleTableRecord
  2
STANDARD
 70
     0
 40
0.0
 41
1.0
 50
0.0
 71
     0
 42
25.0
  3
txt
  4

  0
STYLE
  5
2A0
330
3
100
AcDbSymbolTableRecord
100
AcDbTextStyleTableRecord
  2
SLDTEXTSTYLE0
 70
     0
 40
0.0
 41
0.75
 50
0.0
 71
     0
 42
25.0
  3
TXT
  4

  0
ENDTAB
  0
TABLE
  2
VIEW
  5
6
330
0
100
AcDbSymbolTable
 70
     0
  0
ENDTAB
  0
TABLE
  2
UCS
  5
7
330
0
100
AcDbSymbolTable
 70
     0
  0
ENDTAB
  0
TABLE
  2
APPID
  5
9
330
0
100
AcDbSymbolTable
 70
     1
  0
APPID
  5
12
330
9
100
AcDbSymbolTableRecord
100
AcDbRegAppTableRecord
  2
ACAD
 70
     0
  0
ENDTAB
  0
TABLE
  2
DIMSTYLE
  5
A
330
0
100
AcDbSymbolTable
 70
     2
  0
DIMSTYLE
105
27
330
A
100
AcDbSymbolTableRecord
100
AcDbDimStyleTableRecord
  2
ISO-25
 70
     0
  3

  4

  5

  6

  7

 40
1.0
 41
2.5
 42
0.625
 43
3.75
 44
1.25
 45
0.0
 46
0.0
 47
0.0
 48
0.0
140
2.5
141
2.5
142
0.0
143
0.0393700787
144
1.0
145
0.0
146
1.0
147
0.625
 71
     0
 72
     0
 73
     0
 74
     0
 75
     0
 76
     0
 77
     1
 78
     8
170
     0
171
     3
172
     1
173
     0
174
     0
175
     0
176
     0
177
     0
178
     0
270
     2
271
     2
272
     2
273
     2
274
     3
340
11
275
     0
280
     0
281
     0
282
     0
283
     0
284
     8
285
     0
286
     0
287
     3
288
     0
  0
DIMSTYLE
105
2A1
102
{ACAD_REACTORS
330
29F
330
2B2
330
2BC
330
2C6
102
}
330
A
100
AcDbSymbolTableRecord
100
AcDbDimStyleTableRecord
  2
SLDDIMSTYLE0
 70
     0
  3

  4

  5

  6
CLOSED
  7
CLOSED
 40
1.0
 41
30.0
 42
0.0625
 43
0.38
 44
0.0
 45
0.000000001
 46
0.0
 47
0.0
 48
0.0
140
25.0
141
0.09
142
0.0
143
25.4
144
0.3
145
0.0
146
1.0
147
6.25
 71
     0
 72
     0
 73
     0
 74
     0
 75
     0
 76
     0
 77
     1
 78
    12
170
     0
171
     2
172
     0
173
     1
174
     0
175
     0
176
     0
177
     0
178
     0
270
     2
271
     2
272
     2
273
     2
274
     2
340
2A0
275
     0
280
     0
281
     0
282
     0
283
     1
284
    12
285
     0
286
     0
287
     3
288
     0
  0
ENDTAB
  0
TABLE
  2
BLOCK_RECORD
  5
1
330
0
100
AcDbSymbolTable
 70
     6
  0
BLOCK_RECORD
  5
1F
330
1
100
AcDbSymbolTableRecord
100
AcDbBlockTableRecord
  2
*MODEL_SPACE
  0
BLOCK_RECORD
  5
1B
330
1
100
AcDbSymbolTableRecord
100
AcDbBlockTableRecord
  2
*PAPER_SPACE
  0
BLOCK_RECORD
  5
23
330
1
100
AcDbSymbolTableRecord
100
AcDbBlockTableRecord
  2
*PAPER_SPACE0
  0
BLOCK_RECORD
  5
2A2
330
1
100
AcDbSymbolTableRecord
100
AcDbBlockTableRecord
  2
_CLOSED
  0
BLOCK_RECORD
  5
2A9
330
1
100
AcDbSymbolTableRecord
100
AcDbBlockTableRecord
  2
_D
  0
BLOCK_RECORD
  5
2B3
330
1
100
AcDbSymbolTableRecord
100
AcDbBlockTableRecord
  2
_D_1
  0
BLOCK_RECORD
  5
2BD
330
1
100
AcDbSymbolTableRecord
100
AcDbBlockTableRecord
  2
_D_2
  0
BLOCK_RECORD
  5
2C7
330
1
100
AcDbSymbolTableRecord
100
AcDbBlockTableRecord
  2
_D_3
  0
ENDTAB
  0
ENDSEC
  0
SECTION
  2
BLOCKS
  0
BLOCK
  5
20
330
1F
100
AcDbEntity
  8
0
100
AcDbBlockBegin
  2
*MODEL_SPACE
 70
     0
 10
0.0
 20
0.0
 30
0.0
  3
*MODEL_SPACE
  1

  0
ENDBLK
  5
21
330
1F
100
AcDbEntity
  8
0
100
AcDbBlockEnd
  0
BLOCK
  5
1C
330
1B
100
AcDbEntity
 67
     1
  8
0
100
AcDbBlockBegin
  2
*PAPER_SPACE
 70
     0
 10
0.0
 20
0.0
 30
0.0
  3
*PAPER_SPACE
  1

  0
ENDBLK
  5
1D
330
1B
100
AcDbEntity
 67
     1
  8
0
100
AcDbBlockEnd
  0
BLOCK
  5
24
330
23
100
AcDbEntity
  8
0
100
AcDbBlockBegin
  2
*PAPER_SPACE0
 70
     0
 10
0.0
 20
0.0
 30
0.0
  3
*PAPER_SPACE0
  1
*PAPER_SPACE0
  0
ENDBLK
  5
25
330
23
100
AcDbEntity
  8
0
100
AcDbBlockEnd
  0
BLOCK
  5
2A3
330
2A2
100
AcDbEntity
  8
0
100
AcDbBlockBegin
  2
_CLOSED
 70
     0
 10
0.0
 20
0.0
 30
0.0
  3
_CLOSED
  1
_CLOSED
  0
LINE
  5
2A5
330
2A2
100
AcDbEntity
  8
0
  6
BYBLOCK
 62
     0
100
AcDbLine
 10
-1.0
 20
0.166667
 30
0.0
 11
0.0
 21
0.0
 31
0.0
  0
LINE
  5
2A6
330
2A2
100
AcDbEntity
  8
0
  6
BYBLOCK
 62
     0
100
AcDbLine
 10
0.0
 20
0.0
 30
0.0
 11
-1.0
 21
-0.166667
 31
0.0
  0
LINE
  5
2A7
330
2A2
100
AcDbEntity
  8
0
  6
BYBLOCK
 62
     0
100
AcDbLine
 10
-1.0
 20
0.166667
 30
0.0
 11
-1.0
 21
-0.166667
 31
0.0
  0
LINE
  5
2A8
330
2A2
100
AcDbEntity
  8
0
  6
BYBLOCK
 62
     0
100
AcDbLine
 10
0.0
 20
0.0
 30
0.0
 11
-1.0
 21
0.0
 31
0.0
  0
ENDBLK
  5
2A4
330
2A2
100
AcDbEntity
  8
0
100
AcDbBlockEnd
  0
BLOCK
  5
2AA
330
2A9
100
AcDbEntity
  8
0
100
AcDbBlockBegin
  2
_D
 70
     0
 10
0.0
 20
0.0
 30
0.0
  3
_D
  1
_D
  0
INSERT
  5
2AC
330
2A9
100
AcDbEntity
  8
QUOTE
 62
     5
100
AcDbBlockReference
  2
_CLOSED
 10
356.9083127228
 20
1987.8578778637
 30
133.1287908476
 41
30.0
 42
30.0
 50
180.0
  0
INSERT
  5
2AD
330
2A9
100
AcDbEntity
  8
QUOTE
 62
     5
100
AcDbBlockReference
  2
_CLOSED
 10
1223.5749793894
 20
1987.8578778637
 30
133.1287908476
 41
30.0
 42
30.0
 50
0.0
  0
LINE
  5
2AE
330
2A9
100
AcDbEntity
  8
QUOTE
 62
     5
100
AcDbLine
 10
356.9083127228
 20
1884.530275444
 30
0.0
 11
356.9083127228
 21
1997.8578778637
 31
0.0
  0
LINE
  5
2AF
330
2A9
100
AcDbEntity
  8
QUOTE
 62
     5
100
AcDbLine
 10
1223.5749793894
 20
1884.530275444
 30
0.0
 11
1223.5749793894
 21
1997.8578778637
 31
0.0
  0
LINE
  5
2B0
330
2A9
100
AcDbEntity
  8
QUOTE
 62
     5
100
AcDbLine
 10
356.9083127228
 20
1987.8578778637
 30
0.0
 11
1223.5749793894
 21
1987.8578778637
 31
0.0
  0
MTEXT
  5
2B1
330
2A9
100
AcDbEntity
  8
QUOTE
 62
     5
100
AcDbMText
 10
762.5333140018
 20
2020.0845731042
 30
0.0
 40
25.0
 41
0.0
 71
     1
 72
     1
  1
260
  7
SLDTEXTSTYLE0
  0
ENDBLK
  5
2AB
330
2A9
100
AcDbEntity
  8
0
100
AcDbBlockEnd
  0
BLOCK
  5
2B4
330
2B3
100
AcDbEntity
  8
0
100
AcDbBlockBegin
  2
_D_1
 70
     0
 10
0.0
 20
0.0
 30
0.0
  3
_D_1
  1
_D_1
  0
INSERT
  5
2B6
330
2B3
100
AcDbEntity
  8
QUOTE
 62
     5
100
AcDbBlockReference
  2
_CLOSED
 10
267.3076980712
 20
1931.1969421107
 30
133.1287908476
 41
30.0
 42
30.0
 50
90.0
  0
INSERT
  5
2B7
330
2B3
100
AcDbEntity
  8
QUOTE
 62
     5
100
AcDbBlockReference
  2
_CLOSED
 10
267.3076980712
 20
1177.8636087774
 30
133.1287908476
 41
30.0
 42
30.0
 50
270.0
  0
LINE
  5
2B8
330
2B3
100
AcDbEntity
  8
QUOTE
 62
     5
100
AcDbLine
 10
654.6860905005
 20
1931.1969421107
 30
0.0
 11
257.3076980712
 21
1931.1969421107
 31
0.0
  0
LINE
  5
2B9
330
2B3
100
AcDbEntity
  8
QUOTE
 62
     5
100
AcDbLine
 10
654.6860905005
 20
1177.8636087774
 30
0.0
 11
257.3076980712
 21
1177.8636087774
 31
0.0
  0
LINE
  5
2BA
330
2B3
100
AcDbEntity
  8
QUOTE
 62
     5
100
AcDbLine
 10
267.3076980712
 20
1931.1969421107
 30
0.0
 11
267.3076980712
 21
1177.8636087774
 31
0.0
  0
MTEXT
  5
2BB
330
2B3
100
AcDbEntity
  8
QUOTE
 62
     5
100
AcDbMText
 10
235.0810028306
 20
1526.8219433897
 30
0.0
 40
25.0
 41
0.0
 71
     1
 72
     1
  1
226
  7
SLDTEXTSTYLE0
 11
-7.044195017643634E-15
 21
1.0
 31
0.0
  0
ENDBLK
  5
2B5
330
2B3
100
AcDbEntity
  8
0
100
AcDbBlockEnd
  0
BLOCK
  5
2BE
330
2BD
100
AcDbEntity
  8
0
100
AcDbBlockBegin
  2
_D_2
 70
     0
 10
0.0
 20
0.0
 30
0.0
  3
_D_2
  1
_D_2
  0
INSERT
  5
2C0
330
2BD
100
AcDbEntity
  8
QUOTE
 62
     5
100
AcDbBlockReference
  2
_CLOSED
 10
342.2190370159
 20
200.1708156477
 30
133.1287908476
 41
30.0
 42
30.0
 50
180.0
  0
INSERT
  5
2C1
330
2BD
100
AcDbEntity
  8
QUOTE
 62
     5
100
AcDbBlockReference
  2
_CLOSED
 10
775.5523703492
 20
200.1708156477
 30
133.1287908476
 41
30.0
 42
30.0
 50
0.0
  0
LINE
  5
2C2
330
2BD
100
AcDbEntity
  8
QUOTE
 62
     5
100
AcDbLine
 10
342.2190370159
 20
300.2578110638
 30
0.0
 11
342.2190370159
 21
190.1708156477
 31
0.0
  0
LINE
  5
2C3
330
2BD
100
AcDbEntity
  8
QUOTE
 62
     5
100
AcDbLine
 10
775.5523703492
 20
300.2578110638
 30
0.0
 11
775.5523703492
 21
190.1708156477
 31
0.0
  0
LINE
  5
2C4
330
2BD
100
AcDbEntity
  8
QUOTE
 62
     5
100
AcDbLine
 10
342.2190370159
 20
200.1708156477
 30
0.0
 11
775.5523703492
 21
200.1708156477
 31
0.0
  0
MTEXT
  5
2C5
330
2BD
100
AcDbEntity
  8
QUOTE
 62
     5
100
AcDbMText
 10
531.1773716283
 20
232.3975108883
 30
0.0
 40
25.0
 41
0.0
 71
     1
 72
     1
  1
130
  7
SLDTEXTSTYLE0
  0
ENDBLK
  5
2BF
330
2BD
100
AcDbEntity
  8
0
100
AcDbBlockEnd
  0
BLOCK
  5
2C8
330
2C7
100
AcDbEntity
  8
0
100
AcDbBlockBegin
  2
_D_3
 70
     0
 10
0.0
 20
0.0
 30
0.0
  3
_D_3
  1
_D_3
  0
INSERT
  5
2CA
330
2C7
100
AcDbEntity
  8
QUOTE
 62
     5
100
AcDbBlockReference
  2
_CLOSED
 10
275.063768503
 20
283.5911443972
 30
133.1287908476
 41
30.0
 42
30.0
 50
270.0
  0
INSERT
  5
2CB
330
2C7
100
AcDbEntity
  8
QUOTE
 62
     5
100
AcDbBlockReference
  2
_CLOSED
 10
275.063768503
 20
1036.9244777305
 30
133.1287908476
 41
30.0
 42
30.0
 50
90.0
  0
LINE
  5
2CC
330
2C7
100
AcDbEntity
  8
QUOTE
 62
     5
100
AcDbLine
 10
514.4412592381
 20
283.5911443972
 30
0.0
 11
265.063768503
 21
283.5911443972
 31
0.0
  0
LINE
  5
2CD
330
2C7
100
AcDbEntity
  8
QUOTE
 62
     5
100
AcDbLine
 10
514.4412592381
 20
1036.9244777305
 30
0.0
 11
265.063768503
 21
1036.9244777305
 31
0.0
  0
LINE
  5
2CE
330
2C7
100
AcDbEntity
  8
QUOTE
 62
     5
100
AcDbLine
 10
275.063768503
 20
283.5911443972
 30
0.0
 11
275.063768503
 21
1036.9244777305
 31
0.0
  0
MTEXT
  5
2CF
330
2C7
100
AcDbEntity
  8
QUOTE
 62
     5
100
AcDbMText
 10
242.8370732625
 20
632.5494790095
 30
0.0
 40
25.0
 41
0.0
 71
     1
 72
     1
  1
226
  7
SLDTEXTSTYLE0
 11
6.123233995736766E-17
 21
1.0
 31
0.0
  0
ENDBLK
  5
2C9
330
2C7
100
AcDbEntity
  8
0
100
AcDbBlockEnd
  0
ENDSEC
  0
SECTION
  2
ENTITIES
  0
LINE
  5
70
330
1F
100
AcDbEntity
  8
0
  6
CONTINUOUS
 62
     7
100
AcDbLine
 10
1041.3527533595
 20
1931.1969389647
 30
0.0
 11
972.4638655965
 21
1931.1969389647
 31
0.0
  0
LINE
  5
71
330
1F
100
AcDbEntity
  8
0
  6
CONTINUOUS
 62
     7
100
AcDbLine
 10
1166.9083108687
 20
1931.1969389647
 30
0.0
 11
1098.0194355234
 21
1931.1969389647
 31
0.0
  0
LINE
  5
72
330
1F
100
AcDbEntity
  8
0
  6
CONTINUOUS
 62
     7
100
AcDbLine
 10
1166.9083108687
 20
1931.1969389647
 30
0.0
 11
1166.9083108687
 21
1904.5302679271
 31
0.0
  0
LINE
  5
73
330
1F
100
AcDbEntity
  8
0
  6
CONTINUOUS
 62
     7
100
AcDbLine
 10
1166.9083108687
 20
1904.5302679271
 30
0.0
 11
1196.9083095773
 21
1904.5302679271
 31
0.0
  0
LINE
  5
74
330
1F
100
AcDbEntity
  8
0
  6
CONTINUOUS
 62
     7
100
AcDbLine
 10
1196.9083095773
 20
1874.5302568009
 30
0.0
 11
1223.574980615
 21
1874.5302568009
 31
0.0
  0
LINE
  5
75
330
1F
100
AcDbEntity
  8
0
  6
CONTINUOUS
 62
     7
100
AcDbLine
 10
1196.9083095773
 20
1824.530254814
 30
0.0
 11
1196.9083095773
 21
1767.8636223207
 31
0.0
  0
LINE
  5
76
330
1F
100
AcDbEntity
  8
0
  6
CONTINUOUS
 62
     7
100
AcDbLine
 10
1223.574980615
 20
1767.8636223207
 30
0.0
 11
1223.574980615
 21
1717.8636203339
 31
0.0
  0
LINE
  5
77
330
1F
100
AcDbEntity
  8
0
  6
CONTINUOUS
 62
     7
100
AcDbLine
 10
1223.574980615
 20
1497.8635966907
 30
0.0
 11
1196.9083095773
 21
1497.8635966907
 31
0.0
  0
LINE
  5
78
330
1F
100
AcDbEntity
  8
0
  6
CONTINUOUS
 62
     7
100
AcDbLine
 10
1223.574980615
 20
1447.8636195391
 30
0.0
 11
1223.574980615
 21
1497.8635966907
 31
0.0
  0
LINE
  5
79
330
1F
100
AcDbEntity
  8
0
  6
CONTINUOUS
 62
     7
100
AcDbLine
 10
1196.9083095773
 20
1447.8636195391
 30
0.0
 11
1223.574980615
 21
1447.8636195391
 31
0.0
  0
LINE
  5
7A
330
1F
100
AcDbEntity
  8
0
  6
CONTINUOUS
 62
     7
100
AcDbLine
 10
1196.9083095773
 20
1391.1969373753
 30
0.0
 11
1196.9083095773
 21
1447.8636195391
 31
0.0
  0
LINE
  5
7B
330
1F
100
AcDbEntity
  8
0
  6
CONTINUOUS
 62
     7
100
AcDbLine
 10
1223.574980615
 20
1391.1969373753
 30
0.0
 11
1196.9083095773
 21
1391.1969373753
 31
0.0
  0
LINE
  5
7C
330
1F
100
AcDbEntity
  8
0
  6
CONTINUOUS
 62
     7
100
AcDbLine
 10
1223.574980615
 20
1341.1969353884
 30
0.0
 11
1223.574980615
 21
1391.1969373753
 31
0.0
  0
LINE
  5
7D
330
1F
100
AcDbEntity
  8
0
  6
CONTINUOUS
 62
     7
100
AcDbLine
 10
1196.9083095773
 20
1341.1969353884
 30
0.0
 11
1223.574980615
 21
1341.1969353884
 31
0.0
  0
LINE
  5
7E
330
1F
100
AcDbEntity
  8
0
  6
CONTINUOUS
 62
     7
100
AcDbLine
 10
1196.9083095773
 20
1284.5302780598
 30
0.0
 11
1196.9083095773
 21
1341.1969353884
 31
0.0
  0
LINE
  5
7F
330
1F
100
AcDbEntity
  8
0
  6
CONTINUOUS
 62
     7
100
AcDbLine
 10
1223.574980615
 20
1284.5302780598
 30
0.0
 11
1196.9083095773
 21
1284.5302780598
 31
0.0
  0
LINE
  5
80
330
1F
100
AcDbEntity
  8
0
  6
CONTINUOUS
 62
     7
100
AcDbLine
 10
1223.574980615
 20
1234.530276073
 30
0.0
 11
1223.574980615
 21
1284.5302780598
 31
0.0
  0
LINE
  5
81
330
1F
100
AcDbEntity
  8
0
  6
CONTINUOUS
 62
     7
100
AcDbLine
 10
1196.9083095773
 20
1234.530276073
 30
0.0
 11
1223.574980615
 21
1234.530276073
 31
0.0
  0
LINE
  5
82
330
1F
100
AcDbEntity
  8
0
  6
CONTINUOUS
 62
     7
100
AcDbLine
 10
1196.9083095773
 20
1204.5302773645
 30
0.0
 11
1196.9083095773
 21
1234.530276073
 31
0.0
  0
LINE
  5
83
330
1F
100
AcDbEntity
  8
0
  6
CONTINUOUS
 62
     7
100
AcDbLine
 10
1166.9083108687
 20
1204.5302773645
 30
0.0
 11
1196.9083095773
 21
1204.5302773645
 31
0.0
  0
LINE
  5
84
330
1F
100
AcDbEntity
  8
0
  6
CONTINUOUS
 62
     7
100
AcDbLine
 10
1166.9083108687
 20
1177.8636063268
 30
0.0
 11
1166.9083108687
 21
1204.5302773645
 31
0.0
  0
LINE
  5
85
330
1F
100
AcDbEntity
  8
0
  6
CONTINUOUS
 62
     7
100
AcDbLine
 10
1166.9083108687
 20
1177.8636063268
 30
0.0
 11
1098.0194355234
 21
1177.8636063268
 31
0.0
  0
LINE
  5
86
330
1F
100
AcDbEntity
  8
0
  6
CONTINUOUS
 62
     7
100
AcDbLine
 10
1098.0194355234
 20
1204.5302773645
 30
0.0
 11
1098.0194355234
 21
1177.8636063268
 31
0.0
  0
LINE
  5
87
330
1F
100
AcDbEntity
  8
0
  6
CONTINUOUS
 62
     7
100
AcDbLine
 10
1041.3527533595
 20
1204.5302773645
 30
0.0
 11
1098.0194355234
 21
1204.5302773645
 31
0.0
  0
LINE
  5
88
330
1F
100
AcDbEntity
  8
0
  6
CONTINUOUS
 62
     7
100
AcDbLine
 10
1041.3527533595
 20
1177.8636063268
 30
0.0
 11
1041.3527533595
 21
1204.5302773645
 31
0.0
  0
LINE
  5
89
330
1F
100
AcDbEntity
  8
0
  6
CONTINUOUS
 62
     7
100
AcDbLine
 10
1041.3527533595
 20
1177.8636063268
 30
0.0
 11
972.4638655965
 21
1177.8636063268
 31
0.0
  0
LINE
  5
8A
330
1F
100
AcDbEntity
  8
0
  6
CONTINUOUS
 62
     7
100
AcDbLine
 10
972.4638655965
 20
1204.5302773645
 30
0.0
 11
972.4638655965
 21
1177.8636063268
 31
0.0
  0
LINE
  5
8B
330
1F
100
AcDbEntity
  8
0
  6
CONTINUOUS
 62
     7
100
AcDbLine
 10
915.7972082679
 20
1204.5302773645
 30
0.0
 11
972.4638655965
 21
1204.5302773645
 31
0.0
  0
LINE
  5
8C
330
1F
100
AcDbEntity
  8
0
  6
CONTINUOUS
 62
     7
100
AcDbLine
 10
915.7972082679
 20
1177.8636063268
 30
0.0
 11
915.7972082679
 21
1204.5302773645
 31
0.0
  0
LINE
  5
8D
330
1F
100
AcDbEntity
  8
0
  6
CONTINUOUS
 62
     7
100
AcDbLine
 10
915.7972082679
 20
1177.8636063268
 30
0.0
 11
846.9083205048
 21
1177.8636063268
 31
0.0
  0
LINE
  5
8E
330
1F
100
AcDbEntity
  8
0
  6
CONTINUOUS
 62
     7
100
AcDbLine
 10
846.9083205048
 20
1204.5302773645
 30
0.0
 11
846.9083205048
 21
1177.8636063268
 31
0.0
  0
LINE
  5
8F
330
1F
100
AcDbEntity
  8
0
  6
CONTINUOUS
 62
     7
100
AcDbLine
 10
733.5749561771
 20
1204.5302773645
 30
0.0
 11
846.9083205048
 21
1204.5302773645
 31
0.0
  0
LINE
  5
90
330
1F
100
AcDbEntity
  8
0
  6
CONTINUOUS
 62
     7
100
AcDbLine
 10
733.5749561771
 20
1204.5302773645
 30
0.0
 11
733.5749561771
 21
1177.8636063268
 31
0.0
  0
LINE
  5
91
330
1F
100
AcDbEntity
  8
0
  6
CONTINUOUS
 62
     7
100
AcDbLine
 10
664.6860932493
 20
1177.8636063268
 30
0.0
 11
664.6860932493
 21
1204.5302773645
 31
0.0
  0
LINE
  5
92
330
1F
100
AcDbEntity
  8
0
  6
CONTINUOUS
 62
     7
100
AcDbLine
 10
539.1305481577
 20
1177.8636063268
 30
0.0
 11
608.0194110855
 21
1177.8636063268
 31
0.0
  0
LINE
  5
93
330
1F
100
AcDbEntity
  8
0
  6
CONTINUOUS
 62
     7
100
AcDbLine
 10
413.5750030661
 20
1177.8636063268
 30
0.0
 11
482.4638659938
 21
1177.8636063268
 31
0.0
  0
LINE
  5
94
330
1F
100
AcDbEntity
  8
0
  6
CONTINUOUS
 62
     7
100
AcDbLine
 10
413.5750030661
 20
1177.8636063268
 30
0.0
 11
413.5750030661
 21
1204.5302773645
 31
0.0
  0
LINE
  5
95
330
1F
100
AcDbEntity
  8
0
  6
CONTINUOUS
 62
     7
100
AcDbLine
 10
413.5750030661
 20
1204.5302773645
 30
0.0
 11
383.5749919399
 21
1204.5302773645
 31
0.0
  0
LINE
  5
96
330
1F
100
AcDbEntity
  8
0
  6
CONTINUOUS
 62
     7
100
AcDbLine
 10
356.9082712317
 20
1234.530276073
 30
0.0
 11
356.9082712317
 21
1284.5302780598
 31
0.0
  0
LINE
  5
97
330
1F
100
AcDbEntity
  8
0
  6
CONTINUOUS
 62
     7
100
AcDbLine
 10
356.9082712317
 20
1284.5302780598
 30
0.0
 11
383.5749919399
 21
1284.5302780598
 31
0.0
  0
LINE
  5
98
330
1F
100
AcDbEntity
  8
0
  6
CONTINUOUS
 62
     7
100
AcDbLine
 10
383.5749919399
 20
1284.5302780598
 30
0.0
 11
383.5749919399
 21
1341.1969353884
 31
0.0
  0
LINE
  5
99
330
1F
100
AcDbEntity
  8
0
  6
CONTINUOUS
 62
     7
100
AcDbLine
 10
383.5749919399
 20
1341.1969353884
 30
0.0
 11
356.9082712317
 21
1341.1969353884
 31
0.0
  0
LINE
  5
9A
330
1F
100
AcDbEntity
  8
0
  6
CONTINUOUS
 62
     7
100
AcDbLine
 10
356.9082712317
 20
1341.1969353884
 30
0.0
 11
356.9082712317
 21
1391.1969373753
 31
0.0
  0
LINE
  5
9B
330
1F
100
AcDbEntity
  8
0
  6
CONTINUOUS
 62
     7
100
AcDbLine
 10
356.9082712317
 20
1391.1969373753
 30
0.0
 11
383.5749919399
 21
1391.1969373753
 31
0.0
  0
LINE
  5
9C
330
1F
100
AcDbEntity
  8
0
  6
CONTINUOUS
 62
     7
100
AcDbLine
 10
383.5749919399
 20
1611.1969361832
 30
0.0
 11
383.5749919399
 21
1497.8635966907
 31
0.0
  0
LINE
  5
9D
330
1F
100
AcDbEntity
  8
0
  6
CONTINUOUS
 62
     7
100
AcDbLine
 10
356.9082712317
 20
1611.1969361832
 30
0.0
 11
383.5749919399
 21
1611.1969361832
 31
0.0
  0
LINE
  5
9E
330
1F
100
AcDbEntity
  8
0
  6
CONTINUOUS
 62
     7
100
AcDbLine
 10
383.5749919399
 20
1661.19693817
 30
0.0
 11
356.9082712317
 21
1661.19693817
 31
0.0
  0
LINE
  5
9F
330
1F
100
AcDbEntity
  8
0
  6
CONTINUOUS
 62
     7
100
AcDbLine
 10
383.5749919399
 20
1717.8636203339
 30
0.0
 11
383.5749919399
 21
1661.19693817
 31
0.0
  0
LINE
  5
A0
330
1F
100
AcDbEntity
  8
0
  6
CONTINUOUS
 62
     7
100
AcDbLine
 10
356.9082712317
 20
1717.8636203339
 30
0.0
 11
383.5749919399
 21
1717.8636203339
 31
0.0
  0
LINE
  5
A1
330
1F
100
AcDbEntity
  8
0
  6
CONTINUOUS
 62
     7
100
AcDbLine
 10
383.5749919399
 20
1767.8636223207
 30
0.0
 11
356.9082712317
 21
1767.8636223207
 31
0.0
  0
LINE
  5
A2
330
1F
100
AcDbEntity
  8
0
  6
CONTINUOUS
 62
     7
100
AcDbLine
 10
383.5749919399
 20
1824.530254814
 30
0.0
 11
383.5749919399
 21
1767.8636223207
 31
0.0
  0
LINE
  5
A3
330
1F
100
AcDbEntity
  8
0
  6
CONTINUOUS
 62
     7
100
AcDbLine
 10
356.9082712317
 20
1824.530254814
 30
0.0
 11
383.5749919399
 21
1824.530254814
 31
0.0
  0
LINE
  5
A4
330
1F
100
AcDbEntity
  8
0
  6
CONTINUOUS
 62
     7
100
AcDbLine
 10
383.5749919399
 20
1874.5302568009
 30
0.0
 11
356.9082712317
 21
1874.5302568009
 31
0.0
  0
LINE
  5
A5
330
1F
100
AcDbEntity
  8
0
  6
CONTINUOUS
 62
     7
100
AcDbLine
 10
383.5749919399
 20
1904.5302679271
 30
0.0
 11
383.5749919399
 21
1874.5302568009
 31
0.0
  0
LINE
  5
A6
330
1F
100
AcDbEntity
  8
0
  6
CONTINUOUS
 62
     7
100
AcDbLine
 10
413.5750030661
 20
1904.5302679271
 30
0.0
 11
383.5749919399
 21
1904.5302679271
 31
0.0
  0
LINE
  5
A7
330
1F
100
AcDbEntity
  8
0
  6
CONTINUOUS
 62
     7
100
AcDbLine
 10
413.5750030661
 20
1931.1969389647
 30
0.0
 11
413.5750030661
 21
1904.5302679271
 31
0.0
  0
LINE
  5
A8
330
1F
100
AcDbEntity
  8
0
  6
CONTINUOUS
 62
     7
100
AcDbLine
 10
482.4638659938
 20
1904.5302679271
 30
0.0
 11
482.4638659938
 21
1931.1969389647
 31
0.0
  0
LINE
  5
A9
330
1F
100
AcDbEntity
  8
0
  6
CONTINUOUS
 62
     7
100
AcDbLine
 10
539.1305481577
 20
1904.5302679271
 30
0.0
 11
482.4638659938
 21
1904.5302679271
 31
0.0
  0
LINE
  5
AA
330
1F
100
AcDbEntity
  8
0
  6
CONTINUOUS
 62
     7
100
AcDbLine
 10
539.1305481577
 20
1931.1969389647
 30
0.0
 11
539.1305481577
 21
1904.5302679271
 31
0.0
  0
LINE
  5
AB
330
1F
100
AcDbEntity
  8
0
  6
CONTINUOUS
 62
     7
100
AcDbLine
 10
539.1305481577
 20
1931.1969389647
 30
0.0
 11
608.0194110855
 21
1931.1969389647
 31
0.0
  0
LINE
  5
AC
330
1F
100
AcDbEntity
  8
0
  6
CONTINUOUS
 62
     7
100
AcDbLine
 10
608.0194110855
 20
1904.5302679271
 30
0.0
 11
608.0194110855
 21
1931.1969389647
 31
0.0
  0
LINE
  5
AD
330
1F
100
AcDbEntity
  8
0
  6
CONTINUOUS
 62
     7
100
AcDbLine
 10
664.6860932493
 20
1904.5302679271
 30
0.0
 11
608.0194110855
 21
1904.5302679271
 31
0.0
  0
LINE
  5
AE
330
1F
100
AcDbEntity
  8
0
  6
CONTINUOUS
 62
     7
100
AcDbLine
 10
664.6860932493
 20
1931.1969389647
 30
0.0
 11
664.6860932493
 21
1904.5302679271
 31
0.0
  0
LINE
  5
AF
330
1F
100
AcDbEntity
  8
0
  6
CONTINUOUS
 62
     7
100
AcDbLine
 10
733.5749561771
 20
1904.5302679271
 30
0.0
 11
733.5749561771
 21
1931.1969389647
 31
0.0
  0
LINE
  5
B0
330
1F
100
AcDbEntity
  8
0
  6
CONTINUOUS
 62
     7
100
AcDbLine
 10
915.7972082679
 20
1931.1969389647
 30
0.0
 11
846.9083205048
 21
1931.1969389647
 31
0.0
  0
ELLIPSE
  5
B1
330
1F
100
AcDbEntity
  8
0
  6
CONTINUOUS
 62
     7
100
AcDbEllipse
 10
790.2416460561
 20
1554.530275444
 30
0.0
 11
356.6666666666666
 21
0.0
 31
0.0
210
0.0
220
-5.447494307494097E-16
230
1.0
 40
0.8411214953
 41
0.0
 42
6.283185307179586
  0
LINE
  5
B2
330
1F
100
AcDbEntity
  8
0
  6
CONTINUOUS
 62
     7
100
AcDbLine
 10
383.5749919399
 20
1447.8636195391
 30
0.0
 11
356.9082712317
 21
1447.8636195391
 31
0.0
  0
LINE
  5
B3
330
1F
100
AcDbEntity
  8
0
  6
CONTINUOUS
 62
     7
100
AcDbLine
 10
1223.574980615
 20
1874.5302568009
 30
0.0
 11
1223.574980615
 21
1824.530254814
 31
0.0
  0
LINE
  5
B4
330
1F
100
AcDbEntity
  8
0
  6
CONTINUOUS
 62
     7
100
AcDbLine
 10
972.4638655965
 20
1904.5302679271
 30
0.0
 11
972.4638655965
 21
1931.1969389647
 31
0.0
  0
LINE
  5
B5
330
1F
100
AcDbEntity
  8
0
  6
CONTINUOUS
 62
     7
100
AcDbLine
 10
1041.3527533595
 20
1904.5302679271
 30
0.0
 11
1098.0194355234
 21
1904.5302679271
 31
0.0
  0
LINE
  5
B6
330
1F
100
AcDbEntity
  8
0
  6
CONTINUOUS
 62
     7
100
AcDbLine
 10
1196.9083095773
 20
1717.8636203339
 30
0.0
 11
1196.9083095773
 21
1661.19693817
 31
0.0
  0
LINE
  5
B7
330
1F
100
AcDbEntity
  8
0
  6
CONTINUOUS
 62
     7
100
AcDbLine
 10
1196.9083095773
 20
1661.19693817
 30
0.0
 11
1223.574980615
 21
1661.19693817
 31
0.0
  0
LINE
  5
B8
330
1F
100
AcDbEntity
  8
0
  6
CONTINUOUS
 62
     7
100
AcDbLine
 10
356.9082712317
 20
1661.19693817
 30
0.0
 11
356.9082712317
 21
1611.1969361832
 31
0.0
  0
LINE
  5
B9
330
1F
100
AcDbEntity
  8
0
  6
CONTINUOUS
 62
     7
100
AcDbLine
 10
664.6860932493
 20
1931.1969389647
 30
0.0
 11
733.5749561771
 21
1931.1969389647
 31
0.0
  0
LINE
  5
BA
330
1F
100
AcDbEntity
  8
0
  6
CONTINUOUS
 62
     7
100
AcDbLine
 10
356.9082712317
 20
1874.5302568009
 30
0.0
 11
356.9082712317
 21
1824.530254814
 31
0.0
  0
LINE
  5
BB
330
1F
100
AcDbEntity
  8
0
  6
CONTINUOUS
 62
     7
100
AcDbLine
 10
356.9082712317
 20
1497.8635966907
 30
0.0
 11
383.5749919399
 21
1497.8635966907
 31
0.0
  0
LINE
  5
BC
330
1F
100
AcDbEntity
  8
0
  6
CONTINUOUS
 62
     7
100
AcDbLine
 10
413.5750030661
 20
1931.1969389647
 30
0.0
 11
482.4638659938
 21
1931.1969389647
 31
0.0
  0
LINE
  5
BD
330
1F
100
AcDbEntity
  8
0
  6
CONTINUOUS
 62
     7
100
AcDbLine
 10
664.6860932493
 20
1204.5302773645
 30
0.0
 11
608.0194110855
 21
1204.5302773645
 31
0.0
  0
LINE
  5
BE
330
1F
100
AcDbEntity
  8
0
  6
CONTINUOUS
 62
     7
100
AcDbLine
 10
608.0194110855
 20
1204.5302773645
 30
0.0
 11
608.0194110855
 21
1177.8636063268
 31
0.0
  0
LINE
  5
BF
330
1F
100
AcDbEntity
  8
0
  6
CONTINUOUS
 62
     7
100
AcDbLine
 10
539.1305481577
 20
1177.8636063268
 30
0.0
 11
539.1305481577
 21
1204.5302773645
 31
0.0
  0
LINE
  5
C0
330
1F
100
AcDbEntity
  8
0
  6
CONTINUOUS
 62
     7
100
AcDbLine
 10
539.1305481577
 20
1204.5302773645
 30
0.0
 11
482.4638659938
 21
1204.5302773645
 31
0.0
  0
LINE
  5
C1
330
1F
100
AcDbEntity
  8
0
  6
CONTINUOUS
 62
     7
100
AcDbLine
 10
482.4638659938
 20
1204.5302773645
 30
0.0
 11
482.4638659938
 21
1177.8636063268
 31
0.0
  0
LINE
  5
C2
330
1F
100
AcDbEntity
  8
0
  6
CONTINUOUS
 62
     7
100
AcDbLine
 10
383.5749919399
 20
1391.1969373753
 30
0.0
 11
383.5749919399
 21
1447.8636195391
 31
0.0
  0
LINE
  5
C3
330
1F
100
AcDbEntity
  8
0
  6
CONTINUOUS
 62
     7
100
AcDbLine
 10
915.7972082679
 20
1931.1969389647
 30
0.0
 11
915.7972082679
 21
1904.5302679271
 31
0.0
  0
LINE
  5
C4
330
1F
100
AcDbEntity
  8
0
  6
CONTINUOUS
 62
     7
100
AcDbLine
 10
915.7972082679
 20
1904.5302679271
 30
0.0
 11
972.4638655965
 21
1904.5302679271
 31
0.0
  0
LINE
  5
C5
330
1F
100
AcDbEntity
  8
0
  6
CONTINUOUS
 62
     7
100
AcDbLine
 10
664.6860932493
 20
1177.8636063268
 30
0.0
 11
733.5749561771
 21
1177.8636063268
 31
0.0
  0
LINE
  5
C6
330
1F
100
AcDbEntity
  8
0
  6
CONTINUOUS
 62
     7
100
AcDbLine
 10
1041.3527533595
 20
1931.1969389647
 30
0.0
 11
1041.3527533595
 21
1904.5302679271
 31
0.0
  0
LINE
  5
C7
330
1F
100
AcDbEntity
  8
0
  6
CONTINUOUS
 62
     7
100
AcDbLine
 10
1196.9083095773
 20
1767.8636223207
 30
0.0
 11
1223.574980615
 21
1767.8636223207
 31
0.0
  0
LINE
  5
C8
330
1F
100
AcDbEntity
  8
0
  6
CONTINUOUS
 62
     7
100
AcDbLine
 10
1098.0194355234
 20
1904.5302679271
 30
0.0
 11
1098.0194355234
 21
1931.1969389647
 31
0.0
  0
LINE
  5
C9
330
1F
100
AcDbEntity
  8
0
  6
CONTINUOUS
 62
     7
100
AcDbLine
 10
1223.574980615
 20
1717.8636203339
 30
0.0
 11
1196.9083095773
 21
1717.8636203339
 31
0.0
  0
LINE
  5
CA
330
1F
100
AcDbEntity
  8
0
  6
CONTINUOUS
 62
     7
100
AcDbLine
 10
383.5749919399
 20
1204.5302773645
 30
0.0
 11
383.5749919399
 21
1234.530276073
 31
0.0
  0
LINE
  5
CB
330
1F
100
AcDbEntity
  8
0
  6
CONTINUOUS
 62
     7
100
AcDbLine
 10
383.5749919399
 20
1234.530276073
 30
0.0
 11
356.9082712317
 21
1234.530276073
 31
0.0
  0
LINE
  5
CC
330
1F
100
AcDbEntity
  8
0
  6
CONTINUOUS
 62
     7
100
AcDbLine
 10
356.9082712317
 20
1447.8636195391
 30
0.0
 11
356.9082712317
 21
1497.8635966907
 31
0.0
  0
LINE
  5
CD
330
1F
100
AcDbEntity
  8
0
  6
CONTINUOUS
 62
     7
100
AcDbLine
 10
1223.574980615
 20
1661.19693817
 30
0.0
 11
1223.574980615
 21
1611.1969361832
 31
0.0
  0
LINE
  5
CE
330
1F
100
AcDbEntity
  8
0
  6
CONTINUOUS
 62
     7
100
AcDbLine
 10
1223.574980615
 20
1824.530254814
 30
0.0
 11
1196.9083095773
 21
1824.530254814
 31
0.0
  0
LINE
  5
CF
330
1F
100
AcDbEntity
  8
0
  6
CONTINUOUS
 62
     7
100
AcDbLine
 10
1223.574980615
 20
1611.1969361832
 30
0.0
 11
1196.9083095773
 21
1611.1969361832
 31
0.0
  0
LINE
  5
D0
330
1F
100
AcDbEntity
  8
0
  6
CONTINUOUS
 62
     7
100
AcDbLine
 10
1196.9083095773
 20
1904.5302679271
 30
0.0
 11
1196.9083095773
 21
1874.5302568009
 31
0.0
  0
LINE
  5
D1
330
1F
100
AcDbEntity
  8
0
  6
CONTINUOUS
 62
     7
100
AcDbLine
 10
733.5749561771
 20
1904.5302679271
 30
0.0
 11
846.9083205048
 21
1904.5302679271
 31
0.0
  0
LINE
  5
D2
330
1F
100
AcDbEntity
  8
0
  6
CONTINUOUS
 62
     7
100
AcDbLine
 10
1196.9083095773
 20
1611.1969361832
 30
0.0
 11
1196.9083095773
 21
1497.8635966907
 31
0.0
  0
LINE
  5
D3
330
1F
100
AcDbEntity
  8
0
  6
CONTINUOUS
 62
     7
100
AcDbLine
 10
356.9082712317
 20
1767.8636223207
 30
0.0
 11
356.9082712317
 21
1717.8636203339
 31
0.0
  0
LINE
  5
D4
330
1F
100
AcDbEntity
  8
0
  6
CONTINUOUS
 62
     7
100
AcDbLine
 10
846.9083205048
 20
1904.5302679271
 30
0.0
 11
846.9083205048
 21
1931.1969389647
 31
0.0
  0
LINE
  5
D5
330
1F
100
AcDbEntity
  8
0
  6
CONTINUOUS
 62
     7
100
AcDbLine
 10
1815.7972191954
 20
1936.9244982928
 30
0.0
 11
1815.7972191954
 21
1910.2578272551
 31
0.0
  0
LINE
  5
D6
330
1F
100
AcDbEntity
  8
0
  6
CONTINUOUS
 62
     7
100
AcDbLine
 10
1815.7972191954
 20
1910.2578272551
 30
0.0
 11
1872.4638516887
 21
1910.2578272551
 31
0.0
  0
LINE
  5
D7
330
1F
100
AcDbEntity
  8
0
  6
CONTINUOUS
 62
     7
100
AcDbLine
 10
1872.4638516887
 20
1910.2578272551
 30
0.0
 11
1872.4638516887
 21
1936.9244982928
 31
0.0
  0
LINE
  5
D8
330
1F
100
AcDbEntity
  8
0
  6
CONTINUOUS
 62
     7
100
AcDbLine
 10
1941.352764287
 20
1936.9244982928
 30
0.0
 11
1941.352764287
 21
1910.2578272551
 31
0.0
  0
LINE
  5
D9
330
1F
100
AcDbEntity
  8
0
  6
CONTINUOUS
 62
     7
100
AcDbLine
 10
1941.352764287
 20
1910.2578272551
 30
0.0
 11
1998.0194464509
 21
1910.2578272551
 31
0.0
  0
LINE
  5
DA
330
1F
100
AcDbEntity
  8
0
  6
CONTINUOUS
 62
     7
100
AcDbLine
 10
1998.0194464509
 20
1910.2578272551
 30
0.0
 11
1998.0194464509
 21
1936.9244982928
 31
0.0
  0
LINE
  5
DB
330
1F
100
AcDbEntity
  8
0
  6
CONTINUOUS
 62
     7
100
AcDbLine
 10
2066.9083093786
 20
1936.9244982928
 30
0.0
 11
2066.9083093786
 21
1910.2578272551
 31
0.0
  0
LINE
  5
DC
330
1F
100
AcDbEntity
  8
0
  6
CONTINUOUS
 62
     7
100
AcDbLine
 10
2066.9083093786
 20
1910.2578272551
 30
0.0
 11
2096.9083205048
 21
1910.2578272551
 31
0.0
  0
LINE
  5
DD
330
1F
100
AcDbEntity
  8
0
  6
CONTINUOUS
 62
     7
100
AcDbLine
 10
2096.9083205048
 20
1910.2578272551
 30
0.0
 11
2096.9083205048
 21
1880.2578161289
 31
0.0
  0
LINE
  5
DE
330
1F
100
AcDbEntity
  8
0
  6
CONTINUOUS
 62
     7
100
AcDbLine
 10
2096.9083205048
 20
1880.2578161289
 30
0.0
 11
2123.5749915425
 21
1880.2578161289
 31
0.0
  0
LINE
  5
DF
330
1F
100
AcDbEntity
  8
0
  6
CONTINUOUS
 62
     7
100
AcDbLine
 10
2123.5749915425
 20
1880.2578161289
 30
0.0
 11
2123.5749915425
 21
1830.2578141421
 31
0.0
  0
LINE
  5
E0
330
1F
100
AcDbEntity
  8
0
  6
CONTINUOUS
 62
     7
100
AcDbLine
 10
2123.5749915425
 20
1830.2578141421
 30
0.0
 11
2096.9083205048
 21
1830.2578141421
 31
0.0
  0
LINE
  5
E1
330
1F
100
AcDbEntity
  8
0
  6
CONTINUOUS
 62
     7
100
AcDbLine
 10
2096.9083205048
 20
1830.2578141421
 30
0.0
 11
2096.9083205048
 21
1773.5911319782
 31
0.0
  0
LINE
  5
E2
330
1F
100
AcDbEntity
  8
0
  6
CONTINUOUS
 62
     7
100
AcDbLine
 10
2096.9083205048
 20
1773.5911319782
 30
0.0
 11
2123.5749915425
 21
1773.5911319782
 31
0.0
  0
LINE
  5
E3
330
1F
100
AcDbEntity
  8
0
  6
CONTINUOUS
 62
     7
100
AcDbLine
 10
2123.5749915425
 20
1773.5911319782
 30
0.0
 11
2123.5749915425
 21
1723.5911299914
 31
0.0
  0
LINE
  5
E4
330
1F
100
AcDbEntity
  8
0
  6
CONTINUOUS
 62
     7
100
AcDbLine
 10
2123.5749915425
 20
1723.5911299914
 30
0.0
 11
2096.9083205048
 21
1723.5911299914
 31
0.0
  0
LINE
  5
E5
330
1F
100
AcDbEntity
  8
0
  6
CONTINUOUS
 62
     7
100
AcDbLine
 10
2096.9083205048
 20
1723.5911299914
 30
0.0
 11
2096.9083205048
 21
1666.9244974981
 31
0.0
  0
LINE
  5
E6
330
1F
100
AcDbEntity
  8
0
  6
CONTINUOUS
 62
     7
100
AcDbLine
 10
2096.9083205048
 20
1666.9244974981
 30
0.0
 11
2123.5749915425
 21
1666.9244974981
 31
0.0
  0
LINE
  5
E7
330
1F
100
AcDbEntity
  8
0
  6
CONTINUOUS
 62
     7
100
AcDbLine
 10
2123.5749915425
 20
1666.9244974981
 30
0.0
 11
2123.5749915425
 21
1616.9244955113
 31
0.0
  0
LINE
  5
E8
330
1F
100
AcDbEntity
  8
0
  6
CONTINUOUS
 62
     7
100
AcDbLine
 10
2123.5749915425
 20
1616.9244955113
 30
0.0
 11
2096.9083205048
 21
1616.9244955113
 31
0.0
  0
LINE
  5
E9
330
1F
100
AcDbEntity
  8
0
  6
CONTINUOUS
 62
     7
100
AcDbLine
 10
2096.9083205048
 20
1616.9244955113
 30
0.0
 11
2096.9083205048
 21
1503.5911560188
 31
0.0
  0
LINE
  5
EA
330
1F
100
AcDbEntity
  8
0
  6
CONTINUOUS
 62
     7
100
AcDbLine
 10
2123.5749915425
 20
1503.5911560188
 30
0.0
 11
2096.9083205048
 21
1503.5911560188
 31
0.0
  0
LINE
  5
EB
330
1F
100
AcDbEntity
  8
0
  6
CONTINUOUS
 62
     7
100
AcDbLine
 10
1746.9083065971
 20
1210.2578118573
 30
0.0
 11
1746.9083065971
 21
1183.5911470284
 31
0.0
  0
LINE
  5
EC
330
1F
100
AcDbEntity
  8
0
  6
CONTINUOUS
 62
     7
100
AcDbLine
 10
1439.1305342499
 20
1183.5911470284
 30
0.0
 11
1508.019422013
 21
1183.5911470284
 31
0.0
  0
LINE
  5
ED
330
1F
100
AcDbEntity
  8
0
  6
CONTINUOUS
 62
     7
100
AcDbLine
 10
1283.5749780321
 20
1210.2578118573
 30
0.0
 11
1283.5749780321
 21
1240.2578105658
 31
0.0
  0
LINE
  5
EE
330
1F
100
AcDbEntity
  8
0
  6
CONTINUOUS
 62
     7
100
AcDbLine
 10
1283.5749780321
 20
1240.2578105658
 30
0.0
 11
1256.9083132033
 21
1240.2578105658
 31
0.0
  0
LINE
  5
EF
330
1F
100
AcDbEntity
  8
0
  6
CONTINUOUS
 62
     7
100
AcDbLine
 10
1283.5749780321
 20
1453.591154032
 30
0.0
 11
1256.9083132033
 21
1453.591154032
 31
0.0
  0
LINE
  5
F0
330
1F
100
AcDbEntity
  8
0
  6
CONTINUOUS
 62
     7
100
AcDbLine
 10
1256.9083132033
 20
1666.9244974981
 30
0.0
 11
1256.9083132033
 21
1616.9244955113
 31
0.0
  0
LINE
  5
F1
330
1F
100
AcDbEntity
  8
0
  6
CONTINUOUS
 62
     7
100
AcDbLine
 10
1256.9083132033
 20
1773.5911319782
 30
0.0
 11
1256.9083132033
 21
1723.5911299914
 31
0.0
  0
LINE
  5
F2
330
1F
100
AcDbEntity
  8
0
  6
CONTINUOUS
 62
     7
100
AcDbLine
 10
1283.5749780321
 20
1773.5911319782
 30
0.0
 11
1256.9083132033
 21
1773.5911319782
 31
0.0
  0
LINE
  5
F3
330
1F
100
AcDbEntity
  8
0
  6
CONTINUOUS
 62
     7
100
AcDbLine
 10
1283.5749780321
 20
1830.2578141421
 30
0.0
 11
1283.5749780321
 21
1773.5911319782
 31
0.0
  0
LINE
  5
F4
330
1F
100
AcDbEntity
  8
0
  6
CONTINUOUS
 62
     7
100
AcDbLine
 10
1256.9083132033
 20
1830.2578141421
 30
0.0
 11
1283.5749780321
 21
1830.2578141421
 31
0.0
  0
LINE
  5
F5
330
1F
100
AcDbEntity
  8
0
  6
CONTINUOUS
 62
     7
100
AcDbLine
 10
1256.9083132033
 20
1880.2578161289
 30
0.0
 11
1256.9083132033
 21
1830.2578141421
 31
0.0
  0
LINE
  5
F6
330
1F
100
AcDbEntity
  8
0
  6
CONTINUOUS
 62
     7
100
AcDbLine
 10
1283.5749780321
 20
1880.2578161289
 30
0.0
 11
1256.9083132033
 21
1880.2578161289
 31
0.0
  0
LINE
  5
F7
330
1F
100
AcDbEntity
  8
0
  6
CONTINUOUS
 62
     7
100
AcDbLine
 10
1283.5749780321
 20
1910.2578272551
 30
0.0
 11
1283.5749780321
 21
1880.2578161289
 31
0.0
  0
LINE
  5
F8
330
1F
100
AcDbEntity
  8
0
  6
CONTINUOUS
 62
     7
100
AcDbLine
 10
1313.574979069
 20
1910.2578272551
 30
0.0
 11
1283.5749780321
 21
1910.2578272551
 31
0.0
  0
LINE
  5
F9
330
1F
100
AcDbEntity
  8
0
  6
CONTINUOUS
 62
     7
100
AcDbLine
 10
1313.574979069
 20
1936.9244982928
 30
0.0
 11
1313.574979069
 21
1910.2578272551
 31
0.0
  0
LINE
  5
FA
330
1F
100
AcDbEntity
  8
0
  6
CONTINUOUS
 62
     7
100
AcDbLine
 10
1313.574979069
 20
1936.9244982928
 30
0.0
 11
1382.4638707125
 21
1936.9244982928
 31
0.0
  0
LINE
  5
FB
330
1F
100
AcDbEntity
  8
0
  6
CONTINUOUS
 62
     7
100
AcDbLine
 10
1439.1305342499
 20
1936.9244982928
 30
0.0
 11
1508.019422013
 21
1936.9244982928
 31
0.0
  0
LINE
  5
FC
330
1F
100
AcDbEntity
  8
0
  6
CONTINUOUS
 62
     7
100
AcDbLine
 10
1564.6860793416
 20
1936.9244982928
 30
0.0
 11
1633.5749671046
 21
1936.9244982928
 31
0.0
  0
LINE
  5
FD
330
1F
100
AcDbEntity
  8
0
  6
CONTINUOUS
 62
     7
100
AcDbLine
 10
1633.5749671046
 20
1910.2578272551
 30
0.0
 11
1746.9083065971
 21
1910.2578272551
 31
0.0
  0
LINE
  5
FE
330
1F
100
AcDbEntity
  8
0
  6
CONTINUOUS
 62
     7
100
AcDbLine
 10
1746.9083065971
 20
1910.2578272551
 30
0.0
 11
1746.9083065971
 21
1936.9244982928
 31
0.0
  0
LINE
  5
FF
330
1F
100
AcDbEntity
  8
0
  6
CONTINUOUS
 62
     7
100
AcDbLine
 10
1815.7972191954
 20
1936.9244982928
 30
0.0
 11
1746.9083065971
 21
1936.9244982928
 31
0.0
  0
LINE
  5
100
330
1F
100
AcDbEntity
  8
0
  6
CONTINUOUS
 62
     7
100
AcDbLine
 10
1815.7972191954
 20
1183.5911470284
 30
0.0
 11
1815.7972191954
 21
1210.2578118573
 31
0.0
  0
LINE
  5
101
330
1F
100
AcDbEntity
  8
0
  6
CONTINUOUS
 62
     7
100
AcDbLine
 10
1508.019422013
 20
1910.2578272551
 30
0.0
 11
1508.019422013
 21
1936.9244982928
 31
0.0
  0
ELLIPSE
  5
102
330
1F
100
AcDbEntity
  8
0
  6
CONTINUOUS
 62
     7
100
AcDbEllipse
 10
1690.2416460561
 20
1560.2578110638
 30
0.0
 11
356.6666666666667
 21
0.0
 31
0.0
210
0.0
220
-5.447494307494097E-16
230
1.0
 40
0.8411214953
 41
0.0
 42
6.283185307179586
  0
LINE
  5
103
330
1F
100
AcDbEntity
  8
0
  6
CONTINUOUS
 62
     7
100
AcDbLine
 10
1633.5749671046
 20
1210.2578118573
 30
0.0
 11
1633.5749671046
 21
1183.5911470284
 31
0.0
  0
LINE
  5
104
330
1F
100
AcDbEntity
  8
0
  6
CONTINUOUS
 62
     7
100
AcDbLine
 10
1256.9083132033
 20
1503.5911560188
 30
0.0
 11
1283.5749780321
 21
1503.5911560188
 31
0.0
  0
LINE
  5
105
330
1F
100
AcDbEntity
  8
0
  6
CONTINUOUS
 62
     7
100
AcDbLine
 10
1564.6860793416
 20
1183.5911470284
 30
0.0
 11
1564.6860793416
 21
1210.2578118573
 31
0.0
  0
LINE
  5
106
330
1F
100
AcDbEntity
  8
0
  6
CONTINUOUS
 62
     7
100
AcDbLine
 10
1564.6860793416
 20
1210.2578118573
 30
0.0
 11
1508.019422013
 21
1210.2578118573
 31
0.0
  0
LINE
  5
107
330
1F
100
AcDbEntity
  8
0
  6
CONTINUOUS
 62
     7
100
AcDbLine
 10
1508.019422013
 20
1210.2578118573
 30
0.0
 11
1508.019422013
 21
1183.5911470284
 31
0.0
  0
LINE
  5
108
330
1F
100
AcDbEntity
  8
0
  6
CONTINUOUS
 62
     7
100
AcDbLine
 10
1439.1305342499
 20
1183.5911470284
 30
0.0
 11
1439.1305342499
 21
1210.2578118573
 31
0.0
  0
LINE
  5
109
330
1F
100
AcDbEntity
  8
0
  6
CONTINUOUS
 62
     7
100
AcDbLine
 10
1439.1305342499
 20
1210.2578118573
 30
0.0
 11
1382.4638707125
 21
1210.2578118573
 31
0.0
  0
LINE
  5
10A
330
1F
100
AcDbEntity
  8
0
  6
CONTINUOUS
 62
     7
100
AcDbLine
 10
1382.4638707125
 20
1210.2578118573
 30
0.0
 11
1382.4638707125
 21
1183.5911470284
 31
0.0
  0
LINE
  5
10B
330
1F
100
AcDbEntity
  8
0
  6
CONTINUOUS
 62
     7
100
AcDbLine
 10
1283.5749780321
 20
1396.9244718681
 30
0.0
 11
1283.5749780321
 21
1453.591154032
 31
0.0
  0
LINE
  5
10C
330
1F
100
AcDbEntity
  8
0
  6
CONTINUOUS
 62
     7
100
AcDbLine
 10
1256.9083132033
 20
1396.9244718681
 30
0.0
 11
1283.5749780321
 21
1396.9244718681
 31
0.0
  0
LINE
  5
10D
330
1F
100
AcDbEntity
  8
0
  6
CONTINUOUS
 62
     7
100
AcDbLine
 10
1283.5749780321
 20
1290.2578125527
 30
0.0
 11
1283.5749780321
 21
1346.9244698813
 31
0.0
  0
LINE
  5
10E
330
1F
100
AcDbEntity
  8
0
  6
CONTINUOUS
 62
     7
100
AcDbLine
 10
1283.5749780321
 20
1346.9244698813
 30
0.0
 11
1256.9083132033
 21
1346.9244698813
 31
0.0
  0
LINE
  5
10F
330
1F
100
AcDbEntity
  8
0
  6
CONTINUOUS
 62
     7
100
AcDbLine
 10
1256.9083132033
 20
1290.2578125527
 30
0.0
 11
1283.5749780321
 21
1290.2578125527
 31
0.0
  0
LINE
  5
110
330
1F
100
AcDbEntity
  8
0
  6
CONTINUOUS
 62
     7
100
AcDbLine
 10
1313.574979069
 20
1183.5911470284
 30
0.0
 11
1313.574979069
 21
1210.2578118573
 31
0.0
  0
LINE
  5
111
330
1F
100
AcDbEntity
  8
0
  6
CONTINUOUS
 62
     7
100
AcDbLine
 10
1313.574979069
 20
1210.2578118573
 30
0.0
 11
1283.5749780321
 21
1210.2578118573
 31
0.0
  0
LINE
  5
112
330
1F
100
AcDbEntity
  8
0
  6
CONTINUOUS
 62
     7
100
AcDbLine
 10
1256.9083132033
 20
1453.591154032
 30
0.0
 11
1256.9083132033
 21
1503.5911560188
 31
0.0
  0
LINE
  5
113
330
1F
100
AcDbEntity
  8
0
  6
CONTINUOUS
 62
     7
100
AcDbLine
 10
1564.6860793416
 20
1183.5911470284
 30
0.0
 11
1633.5749671046
 21
1183.5911470284
 31
0.0
  0
LINE
  5
114
330
1F
100
AcDbEntity
  8
0
  6
CONTINUOUS
 62
     7
100
AcDbLine
 10
1256.9083132033
 20
1240.2578105658
 30
0.0
 11
1256.9083132033
 21
1290.2578125527
 31
0.0
  0
LINE
  5
115
330
1F
100
AcDbEntity
  8
0
  6
CONTINUOUS
 62
     7
100
AcDbLine
 10
1256.9083132033
 20
1346.9244698813
 30
0.0
 11
1256.9083132033
 21
1396.9244718681
 31
0.0
  0
LINE
  5
116
330
1F
100
AcDbEntity
  8
0
  6
CONTINUOUS
 62
     7
100
AcDbLine
 10
1313.574979069
 20
1183.5911470284
 30
0.0
 11
1382.4638707125
 21
1183.5911470284
 31
0.0
  0
LINE
  5
117
330
1F
100
AcDbEntity
  8
0
  6
CONTINUOUS
 62
     7
100
AcDbLine
 10
1633.5749671046
 20
1210.2578118573
 30
0.0
 11
1746.9083065971
 21
1210.2578118573
 31
0.0
  0
LINE
  5
118
330
1F
100
AcDbEntity
  8
0
  6
CONTINUOUS
 62
     7
100
AcDbLine
 10
1815.7972191954
 20
1183.5911470284
 30
0.0
 11
1746.9083065971
 21
1183.5911470284
 31
0.0
  0
LINE
  5
119
330
1F
100
AcDbEntity
  8
0
  6
CONTINUOUS
 62
     7
100
AcDbLine
 10
1815.7972191954
 20
1210.2578118573
 30
0.0
 11
1872.4638516887
 21
1210.2578118573
 31
0.0
  0
LINE
  5
11A
330
1F
100
AcDbEntity
  8
0
  6
CONTINUOUS
 62
     7
100
AcDbLine
 10
1872.4638516887
 20
1210.2578118573
 30
0.0
 11
1872.4638516887
 21
1183.5911470284
 31
0.0
  0
LINE
  5
11B
330
1F
100
AcDbEntity
  8
0
  6
CONTINUOUS
 62
     7
100
AcDbLine
 10
1941.352764287
 20
1183.5911470284
 30
0.0
 11
1941.352764287
 21
1210.2578118573
 31
0.0
  0
LINE
  5
11C
330
1F
100
AcDbEntity
  8
0
  6
CONTINUOUS
 62
     7
100
AcDbLine
 10
1941.352764287
 20
1210.2578118573
 30
0.0
 11
1998.0194464509
 21
1210.2578118573
 31
0.0
  0
LINE
  5
11D
330
1F
100
AcDbEntity
  8
0
  6
CONTINUOUS
 62
     7
100
AcDbLine
 10
1998.0194464509
 20
1210.2578118573
 30
0.0
 11
1998.0194464509
 21
1183.5911470284
 31
0.0
  0
LINE
  5
11E
330
1F
100
AcDbEntity
  8
0
  6
CONTINUOUS
 62
     7
100
AcDbLine
 10
2096.9083205048
 20
1396.9244718681
 30
0.0
 11
2096.9083205048
 21
1453.591154032
 31
0.0
  0
LINE
  5
11F
330
1F
100
AcDbEntity
  8
0
  6
CONTINUOUS
 62
     7
100
AcDbLine
 10
2096.9083205048
 20
1453.591154032
 30
0.0
 11
2123.5749915425
 21
1453.591154032
 31
0.0
  0
LINE
  5
120
330
1F
100
AcDbEntity
  8
0
  6
CONTINUOUS
 62
     7
100
AcDbLine
 10
2123.5749915425
 20
1396.9244718681
 30
0.0
 11
2096.9083205048
 21
1396.9244718681
 31
0.0
  0
LINE
  5
121
330
1F
100
AcDbEntity
  8
0
  6
CONTINUOUS
 62
     7
100
AcDbLine
 10
2096.9083205048
 20
1290.2578125527
 30
0.0
 11
2096.9083205048
 21
1346.9244698813
 31
0.0
  0
LINE
  5
122
330
1F
100
AcDbEntity
  8
0
  6
CONTINUOUS
 62
     7
100
AcDbLine
 10
2096.9083205048
 20
1346.9244698813
 30
0.0
 11
2123.5749915425
 21
1346.9244698813
 31
0.0
  0
LINE
  5
123
330
1F
100
AcDbEntity
  8
0
  6
CONTINUOUS
 62
     7
100
AcDbLine
 10
2123.5749915425
 20
1290.2578125527
 30
0.0
 11
2096.9083205048
 21
1290.2578125527
 31
0.0
  0
LINE
  5
124
330
1F
100
AcDbEntity
  8
0
  6
CONTINUOUS
 62
     7
100
AcDbLine
 10
2066.9083093786
 20
1183.5911470284
 30
0.0
 11
2066.9083093786
 21
1210.2578118573
 31
0.0
  0
LINE
  5
125
330
1F
100
AcDbEntity
  8
0
  6
CONTINUOUS
 62
     7
100
AcDbLine
 10
2066.9083093786
 20
1210.2578118573
 30
0.0
 11
2096.9083205048
 21
1210.2578118573
 31
0.0
  0
LINE
  5
126
330
1F
100
AcDbEntity
  8
0
  6
CONTINUOUS
 62
     7
100
AcDbLine
 10
2096.9083205048
 20
1210.2578118573
 30
0.0
 11
2096.9083205048
 21
1240.2578105658
 31
0.0
  0
LINE
  5
127
330
1F
100
AcDbEntity
  8
0
  6
CONTINUOUS
 62
     7
100
AcDbLine
 10
2096.9083205048
 20
1240.2578105658
 30
0.0
 11
2123.5749915425
 21
1240.2578105658
 31
0.0
  0
LINE
  5
128
330
1F
100
AcDbEntity
  8
0
  6
CONTINUOUS
 62
     7
100
AcDbLine
 10
2123.5749915425
 20
1453.591154032
 30
0.0
 11
2123.5749915425
 21
1503.5911560188
 31
0.0
  0
LINE
  5
129
330
1F
100
AcDbEntity
  8
0
  6
CONTINUOUS
 62
     7
100
AcDbLine
 10
2123.5749915425
 20
1240.2578105658
 30
0.0
 11
2123.5749915425
 21
1290.2578125527
 31
0.0
  0
LINE
  5
12A
330
1F
100
AcDbEntity
  8
0
  6
CONTINUOUS
 62
     7
100
AcDbLine
 10
2123.5749915425
 20
1346.9244698813
 30
0.0
 11
2123.5749915425
 21
1396.9244718681
 31
0.0
  0
LINE
  5
12B
330
1F
100
AcDbEntity
  8
0
  6
CONTINUOUS
 62
     7
100
AcDbLine
 10
2066.9083093786
 20
1183.5911470284
 30
0.0
 11
1998.0194464509
 21
1183.5911470284
 31
0.0
  0
LINE
  5
12C
330
1F
100
AcDbEntity
  8
0
  6
CONTINUOUS
 62
     7
100
AcDbLine
 10
1941.352764287
 20
1183.5911470284
 30
0.0
 11
1872.4638516887
 21
1183.5911470284
 31
0.0
  0
LINE
  5
12D
330
1F
100
AcDbEntity
  8
0
  6
CONTINUOUS
 62
     7
100
AcDbLine
 10
1633.5749671046
 20
1910.2578272551
 30
0.0
 11
1633.5749671046
 21
1936.9244982928
 31
0.0
  0
LINE
  5
12E
330
1F
100
AcDbEntity
  8
0
  6
CONTINUOUS
 62
     7
100
AcDbLine
 10
1283.5749780321
 20
1616.9244955113
 30
0.0
 11
1283.5749780321
 21
1503.5911560188
 31
0.0
  0
LINE
  5
12F
330
1F
100
AcDbEntity
  8
0
  6
CONTINUOUS
 62
     7
100
AcDbLine
 10
1256.9083132033
 20
1616.9244955113
 30
0.0
 11
1283.5749780321
 21
1616.9244955113
 31
0.0
  0
LINE
  5
130
330
1F
100
AcDbEntity
  8
0
  6
CONTINUOUS
 62
     7
100
AcDbLine
 10
1564.6860793416
 20
1936.9244982928
 30
0.0
 11
1564.6860793416
 21
1910.2578272551
 31
0.0
  0
LINE
  5
131
330
1F
100
AcDbEntity
  8
0
  6
CONTINUOUS
 62
     7
100
AcDbLine
 10
1564.6860793416
 20
1910.2578272551
 30
0.0
 11
1508.019422013
 21
1910.2578272551
 31
0.0
  0
LINE
  5
132
330
1F
100
AcDbEntity
  8
0
  6
CONTINUOUS
 62
     7
100
AcDbLine
 10
1439.1305342499
 20
1936.9244982928
 30
0.0
 11
1439.1305342499
 21
1910.2578272551
 31
0.0
  0
LINE
  5
133
330
1F
100
AcDbEntity
  8
0
  6
CONTINUOUS
 62
     7
100
AcDbLine
 10
1439.1305342499
 20
1910.2578272551
 30
0.0
 11
1382.4638707125
 21
1910.2578272551
 31
0.0
  0
LINE
  5
134
330
1F
100
AcDbEntity
  8
0
  6
CONTINUOUS
 62
     7
100
AcDbLine
 10
1382.4638707125
 20
1910.2578272551
 30
0.0
 11
1382.4638707125
 21
1936.9244982928
 31
0.0
  0
LINE
  5
135
330
1F
100
AcDbEntity
  8
0
  6
CONTINUOUS
 62
     7
100
AcDbLine
 10
1283.5749780321
 20
1723.5911299914
 30
0.0
 11
1283.5749780321
 21
1666.9244974981
 31
0.0
  0
LINE
  5
136
330
1F
100
AcDbEntity
  8
0
  6
CONTINUOUS
 62
     7
100
AcDbLine
 10
1283.5749780321
 20
1666.9244974981
 30
0.0
 11
1256.9083132033
 21
1666.9244974981
 31
0.0
  0
LINE
  5
137
330
1F
100
AcDbEntity
  8
0
  6
CONTINUOUS
 62
     7
100
AcDbLine
 10
1256.9083132033
 20
1723.5911299914
 30
0.0
 11
1283.5749780321
 21
1723.5911299914
 31
0.0
  0
LINE
  5
138
330
1F
100
AcDbEntity
  8
0
  6
CONTINUOUS
 62
     7
100
AcDbLine
 10
2066.9083093786
 20
1936.9244982928
 30
0.0
 11
1998.0194464509
 21
1936.9244982928
 31
0.0
  0
LINE
  5
139
330
1F
100
AcDbEntity
  8
0
  6
CONTINUOUS
 62
     7
100
AcDbLine
 10
1941.352764287
 20
1936.9244982928
 30
0.0
 11
1872.4638516887
 21
1936.9244982928
 31
0.0
  0
LINE
  5
13A
330
1F
100
AcDbEntity
  8
0
  6
CONTINUOUS
 62
     7
100
AcDbLine
 10
1963.9775450214
 20
310.2578133474
 30
0.0
 11
1963.9775450214
 21
283.5911423097
 31
0.0
  0
LINE
  5
13B
330
1F
100
AcDbEntity
  8
0
  6
CONTINUOUS
 62
     7
100
AcDbLine
 10
1895.0886324231
 20
310.2578133474
 30
0.0
 11
1963.9775450214
 21
310.2578133474
 31
0.0
  0
LINE
  5
13C
330
1F
100
AcDbEntity
  8
0
  6
CONTINUOUS
 62
     7
100
AcDbLine
 10
1895.0886324231
 20
283.5911423097
 30
0.0
 11
1895.0886324231
 21
310.2578133474
 31
0.0
  0
LINE
  5
13D
330
1F
100
AcDbEntity
  8
0
  6
CONTINUOUS
 62
     7
100
AcDbLine
 10
1838.4219502592
 20
283.5911423097
 30
0.0
 11
1895.0886324231
 21
283.5911423097
 31
0.0
  0
LINE
  5
13E
330
1F
100
AcDbEntity
  8
0
  6
CONTINUOUS
 62
     7
100
AcDbLine
 10
1838.4219502592
 20
310.2578133474
 30
0.0
 11
1838.4219502592
 21
283.5911423097
 31
0.0
  0
LINE
  5
13F
330
1F
100
AcDbEntity
  8
0
  6
CONTINUOUS
 62
     7
100
AcDbLine
 10
1769.5330873315
 20
310.2578133474
 30
0.0
 11
1838.4219502592
 21
310.2578133474
 31
0.0
  0
LINE
  5
140
330
1F
100
AcDbEntity
  8
0
  6
CONTINUOUS
 62
     7
100
AcDbLine
 10
1769.5330873315
 20
283.5911423097
 30
0.0
 11
1769.5330873315
 21
310.2578133474
 31
0.0
  0
LINE
  5
141
330
1F
100
AcDbEntity
  8
0
  6
CONTINUOUS
 62
     7
100
AcDbLine
 10
1739.5330762053
 20
409.1466874013
 30
0.0
 11
1739.5330762053
 21
340.2578244736
 31
0.0
  0
LINE
  5
142
330
1F
100
AcDbEntity
  8
0
  6
CONTINUOUS
 62
     7
100
AcDbLine
 10
1739.5330762053
 20
534.702232493
 30
0.0
 11
1739.5330762053
 21
465.8133695652
 31
0.0
  0
LINE
  5
143
330
1F
100
AcDbEntity
  8
0
  6
CONTINUOUS
 62
     7
100
AcDbLine
 10
1712.8664051676
 20
591.3689146568
 30
0.0
 11
1712.8664051676
 21
534.702232493
 31
0.0
  0
LINE
  5
144
330
1F
100
AcDbEntity
  8
0
  6
CONTINUOUS
 62
     7
100
AcDbLine
 10
1739.5330762053
 20
660.2578272551
 30
0.0
 11
1739.5330762053
 21
591.3689146568
 31
0.0
  0
LINE
  5
145
330
1F
100
AcDbEntity
  8
0
  6
CONTINUOUS
 62
     7
100
AcDbLine
 10
1739.5330762053
 20
842.4800296754
 30
0.0
 11
1739.5330762053
 21
773.5911419123
 31
0.0
  0
LINE
  5
146
330
1F
100
AcDbEntity
  8
0
  6
CONTINUOUS
 62
     7
100
AcDbLine
 10
1739.5330762053
 20
968.0355871846
 30
0.0
 11
1739.5330762053
 21
899.1466994216
 31
0.0
  0
LINE
  5
147
330
1F
100
AcDbEntity
  8
0
  6
CONTINUOUS
 62
     7
100
AcDbLine
 10
1712.8664051676
 20
1024.7022569309
 30
0.0
 11
1712.8664051676
 21
968.0355871846
 31
0.0
  0
LINE
  5
148
330
1F
100
AcDbEntity
  8
0
  6
CONTINUOUS
 62
     7
100
AcDbLine
 10
1739.5330762053
 20
1093.5911446939
 30
0.0
 11
1739.5330762053
 21
1024.7022569309
 31
0.0
  0
LINE
  5
149
330
1F
100
AcDbEntity
  8
0
  6
CONTINUOUS
 62
     7
100
AcDbLine
 10
1739.5330762053
 20
1093.5911446939
 30
0.0
 11
1712.8664051676
 21
1093.5911446939
 31
0.0
  0
LINE
  5
14A
330
1F
100
AcDbEntity
  8
0
  6
CONTINUOUS
 62
     7
100
AcDbLine
 10
1769.5330873315
 20
1150.2578113357
 30
0.0
 11
1769.5330873315
 21
1123.5911449547
 31
0.0
  0
LINE
  5
14B
330
1F
100
AcDbEntity
  8
0
  6
CONTINUOUS
 62
     7
100
AcDbLine
 10
1769.5330873315
 20
1123.5911449547
 30
0.0
 11
1838.4219502592
 21
1123.5911449547
 31
0.0
  0
LINE
  5
14C
330
1F
100
AcDbEntity
  8
0
  6
CONTINUOUS
 62
     7
100
AcDbLine
 10
1838.4219502592
 20
1123.5911449547
 30
0.0
 11
1838.4219502592
 21
1150.2578113357
 31
0.0
  0
LINE
  5
14D
330
1F
100
AcDbEntity
  8
0
  6
CONTINUOUS
 62
     7
100
AcDbLine
 10
1895.0886324231
 20
1150.2578113357
 30
0.0
 11
1838.4219502592
 21
1150.2578113357
 31
0.0
  0
LINE
  5
14E
330
1F
100
AcDbEntity
  8
0
  6
CONTINUOUS
 62
     7
100
AcDbLine
 10
1895.0886324231
 20
1150.2578113357
 30
0.0
 11
1895.0886324231
 21
1123.5911449547
 31
0.0
  0
LINE
  5
14F
330
1F
100
AcDbEntity
  8
0
  6
CONTINUOUS
 62
     7
100
AcDbLine
 10
1895.0886324231
 20
1123.5911449547
 30
0.0
 11
1963.9775450214
 21
1123.5911449547
 31
0.0
  0
LINE
  5
150
330
1F
100
AcDbEntity
  8
0
  6
CONTINUOUS
 62
     7
100
AcDbLine
 10
1963.9775450214
 20
1123.5911449547
 30
0.0
 11
1963.9775450214
 21
1150.2578113357
 31
0.0
  0
LINE
  5
151
330
1F
100
AcDbEntity
  8
0
  6
CONTINUOUS
 62
     7
100
AcDbLine
 10
2020.6441775147
 20
1150.2578113357
 30
0.0
 11
1963.9775450214
 21
1150.2578113357
 31
0.0
  0
LINE
  5
152
330
1F
100
AcDbEntity
  8
0
  6
CONTINUOUS
 62
     7
100
AcDbLine
 10
2020.6441775147
 20
1150.2578113357
 30
0.0
 11
2020.6441775147
 21
1123.5911449547
 31
0.0
  0
LINE
  5
153
330
1F
100
AcDbEntity
  8
0
  6
CONTINUOUS
 62
     7
100
AcDbLine
 10
2020.6441775147
 20
1123.5911449547
 30
0.0
 11
2089.533090113
 21
1123.5911449547
 31
0.0
  0
LINE
  5
154
330
1F
100
AcDbEntity
  8
0
  6
CONTINUOUS
 62
     7
100
AcDbLine
 10
2089.533090113
 20
1123.5911449547
 30
0.0
 11
2089.533090113
 21
1150.2578113357
 31
0.0
  0
LINE
  5
155
330
1F
100
AcDbEntity
  8
0
  6
CONTINUOUS
 62
     7
100
AcDbLine
 10
2146.1997722769
 20
1150.2578113357
 30
0.0
 11
2089.533090113
 21
1150.2578113357
 31
0.0
  0
LINE
  5
156
330
1F
100
AcDbEntity
  8
0
  6
CONTINUOUS
 62
     7
100
AcDbLine
 10
2146.1997722769
 20
1093.5911446939
 30
0.0
 11
2146.1997722769
 21
1150.2578113357
 31
0.0
  0
LINE
  5
157
330
1F
100
AcDbEntity
  8
0
  6
CONTINUOUS
 62
     7
100
AcDbLine
 10
2119.5331012392
 20
1093.5911446939
 30
0.0
 11
2146.1997722769
 21
1093.5911446939
 31
0.0
  0
LINE
  5
158
330
1F
100
AcDbEntity
  8
0
  6
CONTINUOUS
 62
     7
100
AcDbLine
 10
2119.5331012392
 20
1093.5911446939
 30
0.0
 11
2119.5331012392
 21
1024.7022569309
 31
0.0
  0
LINE
  5
159
330
1F
100
AcDbEntity
  8
0
  6
CONTINUOUS
 62
     7
100
AcDbLine
 10
2119.5331012392
 20
1024.7022569309
 30
0.0
 11
2146.1997722769
 21
1024.7022569309
 31
0.0
  0
LINE
  5
15A
330
1F
100
AcDbEntity
  8
0
  6
CONTINUOUS
 62
     7
100
AcDbLine
 10
2146.1997722769
 20
968.0355871846
 30
0.0
 11
2146.1997722769
 21
1024.7022569309
 31
0.0
  0
LINE
  5
15B
330
1F
100
AcDbEntity
  8
0
  6
CONTINUOUS
 62
     7
100
AcDbLine
 10
2119.5331012392
 20
968.0355871846
 30
0.0
 11
2146.1997722769
 21
968.0355871846
 31
0.0
  0
LINE
  5
15C
330
1F
100
AcDbEntity
  8
0
  6
CONTINUOUS
 62
     7
100
AcDbLine
 10
2119.5331012392
 20
968.0355871846
 30
0.0
 11
2119.5331012392
 21
899.1466994216
 31
0.0
  0
LINE
  5
15D
330
1F
100
AcDbEntity
  8
0
  6
CONTINUOUS
 62
     7
100
AcDbLine
 10
2119.5331012392
 20
899.1466994216
 30
0.0
 11
2146.1997722769
 21
899.1466994216
 31
0.0
  0
LINE
  5
15E
330
1F
100
AcDbEntity
  8
0
  6
CONTINUOUS
 62
     7
100
AcDbLine
 10
2146.1997722769
 20
842.4800296754
 30
0.0
 11
2146.1997722769
 21
899.1466994216
 31
0.0
  0
LINE
  5
15F
330
1F
100
AcDbEntity
  8
0
  6
CONTINUOUS
 62
     7
100
AcDbLine
 10
2119.5331012392
 20
842.4800296754
 30
0.0
 11
2146.1997722769
 21
842.4800296754
 31
0.0
  0
LINE
  5
160
330
1F
100
AcDbEntity
  8
0
  6
CONTINUOUS
 62
     7
100
AcDbLine
 10
2119.5331012392
 20
842.4800296754
 30
0.0
 11
2119.5331012392
 21
773.5911419123
 31
0.0
  0
LINE
  5
161
330
1F
100
AcDbEntity
  8
0
  6
CONTINUOUS
 62
     7
100
AcDbLine
 10
2119.5331012392
 20
773.5911419123
 30
0.0
 11
2146.1997722769
 21
773.5911419123
 31
0.0
  0
LINE
  5
162
330
1F
100
AcDbEntity
  8
0
  6
CONTINUOUS
 62
     7
100
AcDbLine
 10
2146.1997722769
 20
660.2578272551
 30
0.0
 11
2146.1997722769
 21
773.5911419123
 31
0.0
  0
LINE
  5
163
330
1F
100
AcDbEntity
  8
0
  6
CONTINUOUS
 62
     7
100
AcDbLine
 10
2119.5331012392
 20
660.2578272551
 30
0.0
 11
2146.1997722769
 21
660.2578272551
 31
0.0
  0
LINE
  5
164
330
1F
100
AcDbEntity
  8
0
  6
CONTINUOUS
 62
     7
100
AcDbLine
 10
2119.5331012392
 20
660.2578272551
 30
0.0
 11
2119.5331012392
 21
591.3689146568
 31
0.0
  0
LINE
  5
165
330
1F
100
AcDbEntity
  8
0
  6
CONTINUOUS
 62
     7
100
AcDbLine
 10
2119.5331012392
 20
591.3689146568
 30
0.0
 11
2146.1997722769
 21
591.3689146568
 31
0.0
  0
LINE
  5
166
330
1F
100
AcDbEntity
  8
0
  6
CONTINUOUS
 62
     7
100
AcDbLine
 10
2146.1997722769
 20
534.702232493
 30
0.0
 11
2146.1997722769
 21
591.3689146568
 31
0.0
  0
LINE
  5
167
330
1F
100
AcDbEntity
  8
0
  6
CONTINUOUS
 62
     7
100
AcDbLine
 10
2119.5331012392
 20
534.702232493
 30
0.0
 11
2146.1997722769
 21
534.702232493
 31
0.0
  0
LINE
  5
168
330
1F
100
AcDbEntity
  8
0
  6
CONTINUOUS
 62
     7
100
AcDbLine
 10
2119.5331012392
 20
534.702232493
 30
0.0
 11
2119.5331012392
 21
465.8133695652
 31
0.0
  0
LINE
  5
169
330
1F
100
AcDbEntity
  8
0
  6
CONTINUOUS
 62
     7
100
AcDbLine
 10
2119.5331012392
 20
465.8133695652
 30
0.0
 11
2146.1997722769
 21
465.8133695652
 31
0.0
  0
LINE
  5
16A
330
1F
100
AcDbEntity
  8
0
  6
CONTINUOUS
 62
     7
100
AcDbLine
 10
2146.1997722769
 20
409.1466874013
 30
0.0
 11
2146.1997722769
 21
465.8133695652
 31
0.0
  0
LINE
  5
16B
330
1F
100
AcDbEntity
  8
0
  6
CONTINUOUS
 62
     7
100
AcDbLine
 10
2119.5331012392
 20
409.1466874013
 30
0.0
 11
2146.1997722769
 21
409.1466874013
 31
0.0
  0
LINE
  5
16C
330
1F
100
AcDbEntity
  8
0
  6
CONTINUOUS
 62
     7
100
AcDbLine
 10
2119.5331012392
 20
409.1466874013
 30
0.0
 11
2119.5331012392
 21
340.2578244736
 31
0.0
  0
LINE
  5
16D
330
1F
100
AcDbEntity
  8
0
  6
CONTINUOUS
 62
     7
100
AcDbLine
 10
2119.5331012392
 20
340.2578244736
 30
0.0
 11
2146.1997722769
 21
340.2578244736
 31
0.0
  0
LINE
  5
16E
330
1F
100
AcDbEntity
  8
0
  6
CONTINUOUS
 62
     7
100
AcDbLine
 10
2146.1997722769
 20
283.5911423097
 30
0.0
 11
2146.1997722769
 21
340.2578244736
 31
0.0
  0
LINE
  5
16F
330
1F
100
AcDbEntity
  8
0
  6
CONTINUOUS
 62
     7
100
AcDbLine
 10
2089.533090113
 20
283.5911423097
 30
0.0
 11
2146.1997722769
 21
283.5911423097
 31
0.0
  0
LINE
  5
170
330
1F
100
AcDbEntity
  8
0
  6
CONTINUOUS
 62
     7
100
AcDbLine
 10
2089.533090113
 20
310.2578133474
 30
0.0
 11
2089.533090113
 21
283.5911423097
 31
0.0
  0
LINE
  5
171
330
1F
100
AcDbEntity
  8
0
  6
CONTINUOUS
 62
     7
100
AcDbLine
 10
2020.6441775147
 20
310.2578133474
 30
0.0
 11
2089.533090113
 21
310.2578133474
 31
0.0
  0
LINE
  5
172
330
1F
100
AcDbEntity
  8
0
  6
CONTINUOUS
 62
     7
100
AcDbLine
 10
2020.6441775147
 20
283.5911423097
 30
0.0
 11
2020.6441775147
 21
310.2578133474
 31
0.0
  0
LINE
  5
173
330
1F
100
AcDbEntity
  8
0
  6
CONTINUOUS
 62
     7
100
AcDbLine
 10
1963.9775450214
 20
283.5911423097
 30
0.0
 11
2020.6441775147
 21
283.5911423097
 31
0.0
  0
CIRCLE
  5
174
330
1F
100
AcDbEntity
  8
0
  6
CONTINUOUS
 62
     7
100
AcDbCircle
 10
1846.1997506639
 20
586.9244777305
 30
0.0
 40
5.5
  0
CIRCLE
  5
175
330
1F
100
AcDbEntity
  8
0
  6
CONTINUOUS
 62
     7
100
AcDbCircle
 10
1929.5330839972
 20
753.5911443972
 30
0.0
 40
14.16666666666674
  0
CIRCLE
  5
176
330
1F
100
AcDbEntity
  8
0
  6
CONTINUOUS
 62
     7
100
AcDbCircle
 10
2012.8664173305
 20
586.9244777305
 30
0.0
 40
5.5
  0
CIRCLE
  5
177
330
1F
100
AcDbEntity
  8
0
  6
CONTINUOUS
 62
     7
100
AcDbCircle
 10
2012.8664173305
 20
653.5911443972
 30
0.0
 40
5.5
  0
CIRCLE
  5
178
330
1F
100
AcDbEntity
  8
0
  6
CONTINUOUS
 62
     7
100
AcDbCircle
 10
1846.1997506639
 20
653.5911443972
 30
0.0
 40
5.500000000000114
  0
LINE
  5
179
330
1F
100
AcDbEntity
  8
0
  6
CONTINUOUS
 62
     7
100
AcDbLine
 10
1739.5330762053
 20
842.4800296754
 30
0.0
 11
1712.8664051676
 21
842.4800296754
 31
0.0
  0
LINE
  5
17A
330
1F
100
AcDbEntity
  8
0
  6
CONTINUOUS
 62
     7
100
AcDbLine
 10
1739.5330762053
 20
773.5911419123
 30
0.0
 11
1712.8664051676
 21
773.5911419123
 31
0.0
  0
LINE
  5
17B
330
1F
100
AcDbEntity
  8
0
  6
CONTINUOUS
 62
     7
100
AcDbLine
 10
1712.8664051676
 20
283.5911423097
 30
0.0
 11
1769.5330873315
 21
283.5911423097
 31
0.0
  0
LINE
  5
17C
330
1F
100
AcDbEntity
  8
0
  6
CONTINUOUS
 62
     7
100
AcDbLine
 10
1739.5330762053
 20
1024.7022569309
 30
0.0
 11
1712.8664051676
 21
1024.7022569309
 31
0.0
  0
LINE
  5
17D
330
1F
100
AcDbEntity
  8
0
  6
CONTINUOUS
 62
     7
100
AcDbLine
 10
1739.5330762053
 20
340.2578244736
 30
0.0
 11
1712.8664051676
 21
340.2578244736
 31
0.0
  0
LINE
  5
17E
330
1F
100
AcDbEntity
  8
0
  6
CONTINUOUS
 62
     7
100
AcDbLine
 10
1739.5330762053
 20
409.1466874013
 30
0.0
 11
1712.8664051676
 21
409.1466874013
 31
0.0
  0
LINE
  5
17F
330
1F
100
AcDbEntity
  8
0
  6
CONTINUOUS
 62
     7
100
AcDbLine
 10
1739.5330762053
 20
899.1466994216
 30
0.0
 11
1712.8664051676
 21
899.1466994216
 31
0.0
  0
LINE
  5
180
330
1F
100
AcDbEntity
  8
0
  6
CONTINUOUS
 62
     7
100
AcDbLine
 10
1739.5330762053
 20
465.8133695652
 30
0.0
 11
1712.8664051676
 21
465.8133695652
 31
0.0
  0
LINE
  5
181
330
1F
100
AcDbEntity
  8
0
  6
CONTINUOUS
 62
     7
100
AcDbLine
 10
1712.8664051676
 20
340.2578244736
 30
0.0
 11
1712.8664051676
 21
283.5911423097
 31
0.0
  0
LINE
  5
182
330
1F
100
AcDbEntity
  8
0
  6
CONTINUOUS
 62
     7
100
AcDbLine
 10
1739.5330762053
 20
534.702232493
 30
0.0
 11
1712.8664051676
 21
534.702232493
 31
0.0
  0
LINE
  5
183
330
1F
100
AcDbEntity
  8
0
  6
CONTINUOUS
 62
     7
100
AcDbLine
 10
1712.8664051676
 20
465.8133695652
 30
0.0
 11
1712.8664051676
 21
409.1466874013
 31
0.0
  0
LINE
  5
184
330
1F
100
AcDbEntity
  8
0
  6
CONTINUOUS
 62
     7
100
AcDbLine
 10
1739.5330762053
 20
660.2578272551
 30
0.0
 11
1712.8664051676
 21
660.2578272551
 31
0.0
  0
LINE
  5
185
330
1F
100
AcDbEntity
  8
0
  6
CONTINUOUS
 62
     7
100
AcDbLine
 10
1739.5330762053
 20
591.3689146568
 30
0.0
 11
1712.8664051676
 21
591.3689146568
 31
0.0
  0
LINE
  5
186
330
1F
100
AcDbEntity
  8
0
  6
CONTINUOUS
 62
     7
100
AcDbLine
 10
1739.5330762053
 20
968.0355871846
 30
0.0
 11
1712.8664051676
 21
968.0355871846
 31
0.0
  0
LINE
  5
187
330
1F
100
AcDbEntity
  8
0
  6
CONTINUOUS
 62
     7
100
AcDbLine
 10
1712.8664051676
 20
899.1466994216
 30
0.0
 11
1712.8664051676
 21
842.4800296754
 31
0.0
  0
LINE
  5
188
330
1F
100
AcDbEntity
  8
0
  6
CONTINUOUS
 62
     7
100
AcDbLine
 10
1712.8664051676
 20
773.5911419123
 30
0.0
 11
1712.8664051676
 21
660.2578272551
 31
0.0
  0
LINE
  5
189
330
1F
100
AcDbEntity
  8
0
  6
CONTINUOUS
 62
     7
100
AcDbLine
 10
1712.8664051676
 20
1150.2578113357
 30
0.0
 11
1712.8664051676
 21
1093.5911446939
 31
0.0
  0
LINE
  5
18A
330
1F
100
AcDbEntity
  8
0
  6
CONTINUOUS
 62
     7
100
AcDbLine
 10
1769.5330873315
 20
1150.2578113357
 30
0.0
 11
1712.8664051676
 21
1150.2578113357
 31
0.0
  0
CIRCLE
  5
18B
330
1F
100
AcDbEntity
  8
0
  6
CONTINUOUS
 62
     7
100
AcDbCircle
 10
1600.0743812247
 20
876.9244777305
 30
0.0
 40
13.33333333333326
  0
CIRCLE
  5
18C
330
1F
100
AcDbEntity
  8
0
  6
CONTINUOUS
 62
     7
100
AcDbCircle
 10
1600.0743812247
 20
960.2578110638
 30
0.0
 40
13.33333333333337
  0
CIRCLE
  5
18D
330
1F
100
AcDbEntity
  8
0
  6
CONTINUOUS
 62
     7
100
AcDbCircle
 10
1558.407714558
 20
960.2578110638
 30
0.0
 40
13.33333333333326
  0
CIRCLE
  5
18E
330
1F
100
AcDbEntity
  8
0
  6
CONTINUOUS
 62
     7
100
AcDbCircle
 10
1516.7410478914
 20
960.2578110638
 30
0.0
 40
13.33333333333326
  0
CIRCLE
  5
18F
330
1F
100
AcDbEntity
  8
0
  6
CONTINUOUS
 62
     7
100
AcDbCircle
 10
1475.0743812247
 20
960.2578110638
 30
0.0
 40
13.33333333333326
  0
CIRCLE
  5
190
330
1F
100
AcDbEntity
  8
0
  6
CONTINUOUS
 62
     7
100
AcDbCircle
 10
1433.407714558
 20
960.2578110638
 30
0.0
 40
13.33333333333326
  0
CIRCLE
  5
191
330
1F
100
AcDbEntity
  8
0
  6
CONTINUOUS
 62
     7
100
AcDbCircle
 10
1391.7410478914
 20
960.2578110638
 30
0.0
 40
13.33333333333326
  0
CIRCLE
  5
192
330
1F
100
AcDbEntity
  8
0
  6
CONTINUOUS
 62
     7
100
AcDbCircle
 10
1350.0743812247
 20
960.2578110638
 30
0.0
 40
13.33333333333326
  0
CIRCLE
  5
193
330
1F
100
AcDbEntity
  8
0
  6
CONTINUOUS
 62
     7
100
AcDbCircle
 10
1558.407714558
 20
876.9244777305
 30
0.0
 40
13.33333333333337
  0
CIRCLE
  5
194
330
1F
100
AcDbEntity
  8
0
  6
CONTINUOUS
 62
     7
100
AcDbCircle
 10
1516.7410478914
 20
876.9244777305
 30
0.0
 40
13.33333333333337
  0
CIRCLE
  5
195
330
1F
100
AcDbEntity
  8
0
  6
CONTINUOUS
 62
     7
100
AcDbCircle
 10
1475.0743812247
 20
876.9244777305
 30
0.0
 40
13.33333333333337
  0
CIRCLE
  5
196
330
1F
100
AcDbEntity
  8
0
  6
CONTINUOUS
 62
     7
100
AcDbCircle
 10
1433.407714558
 20
876.9244777305
 30
0.0
 40
13.33333333333337
  0
CIRCLE
  5
197
330
1F
100
AcDbEntity
  8
0
  6
CONTINUOUS
 62
     7
100
AcDbCircle
 10
1391.7410478914
 20
876.9244777305
 30
0.0
 40
13.33333333333337
  0
CIRCLE
  5
198
330
1F
100
AcDbEntity
  8
0
  6
CONTINUOUS
 62
     7
100
AcDbCircle
 10
1350.0743812247
 20
876.9244777305
 30
0.0
 40
13.33333333333337
  0
LINE
  5
199
330
1F
100
AcDbEntity
  8
0
  6
CONTINUOUS
 62
     7
100
AcDbLine
 10
1440.6299387598
 20
1010.2578101188
 30
0.0
 11
1425.6299394055
 21
1010.2578101188
 31
0.0
  0
LINE
  5
19A
330
1F
100
AcDbEntity
  8
0
  6
CONTINUOUS
 62
     7
100
AcDbLine
 10
1440.6299387598
 20
1036.9244749477
 30
0.0
 11
1440.6299387598
 21
1010.2578101188
 31
0.0
  0
LINE
  5
19B
330
1F
100
AcDbEntity
  8
0
  6
CONTINUOUS
 62
     7
100
AcDbLine
 10
1509.5188265228
 20
1036.9244749477
 30
0.0
 11
1440.6299387598
 21
1036.9244749477
 31
0.0
  0
LINE
  5
19C
330
1F
100
AcDbEntity
  8
0
  6
CONTINUOUS
 62
     7
100
AcDbLine
 10
1509.5188265228
 20
1036.9244749477
 30
0.0
 11
1509.5188265228
 21
1010.2578101188
 31
0.0
  0
LINE
  5
19D
330
1F
100
AcDbEntity
  8
0
  6
CONTINUOUS
 62
     7
100
AcDbLine
 10
1524.5188196683
 20
1010.2578101188
 30
0.0
 11
1509.5188265228
 21
1010.2578101188
 31
0.0
  0
ARC
  5
19E
330
1F
100
AcDbEntity
  8
0
  6
CONTINUOUS
 62
     7
100
AcDbCircle
 10
1537.8521590025
 20
1010.2578110638
 30
0.0
 40
13.33333333333326
100
AcDbArc
 50
180.0
 51
0.0
  0
LINE
  5
19F
330
1F
100
AcDbEntity
  8
0
  6
CONTINUOUS
 62
     7
100
AcDbLine
 10
1566.1854838514
 20
1010.2578101188
 30
0.0
 11
1551.1855031236
 21
1010.2578101188
 31
0.0
  0
LINE
  5
1A0
330
1F
100
AcDbEntity
  8
0
  6
CONTINUOUS
 62
     7
100
AcDbLine
 10
1566.1854838514
 20
1036.9244749477
 30
0.0
 11
1566.1854838514
 21
1010.2578101188
 31
0.0
  0
LINE
  5
1A1
330
1F
100
AcDbEntity
  8
0
  6
CONTINUOUS
 62
     7
100
AcDbLine
 10
1635.0743716145
 20
1036.9244749477
 30
0.0
 11
1566.1854838514
 21
1036.9244749477
 31
0.0
  0
LINE
  5
1A2
330
1F
100
AcDbEntity
  8
0
  6
CONTINUOUS
 62
     7
100
AcDbLine
 10
1635.0743716145
 20
1036.9244749477
 30
0.0
 11
1635.0743716145
 21
1010.2578101188
 31
0.0
  0
LINE
  5
1A3
330
1F
100
AcDbEntity
  8
0
  6
CONTINUOUS
 62
     7
100
AcDbLine
 10
1691.7410537783
 20
1010.2578101188
 30
0.0
 11
1635.0743716145
 21
1010.2578101188
 31
0.0
  0
LINE
  5
1A4
330
1F
100
AcDbEntity
  8
0
  6
CONTINUOUS
 62
     7
100
AcDbLine
 10
1691.7410537783
 20
980.2578052014
 30
0.0
 11
1691.7410537783
 21
1010.2578101188
 31
0.0
  0
LINE
  5
1A5
330
1F
100
AcDbEntity
  8
0
  6
CONTINUOUS
 62
     7
100
AcDbLine
 10
1665.0743827407
 20
980.2578052014
 30
0.0
 11
1691.7410537783
 21
980.2578052014
 31
0.0
  0
LINE
  5
1A6
330
1F
100
AcDbEntity
  8
0
  6
CONTINUOUS
 62
     7
100
AcDbLine
 10
1665.0743827407
 20
930.2578156322
 30
0.0
 11
1665.0743827407
 21
980.2578052014
 31
0.0
  0
LINE
  5
1A7
330
1F
100
AcDbEntity
  8
0
  6
CONTINUOUS
 62
     7
100
AcDbLine
 10
1665.0743827407
 20
930.2578156322
 30
0.0
 11
1691.7410537783
 21
930.2578156322
 31
0.0
  0
LINE
  5
1A8
330
1F
100
AcDbEntity
  8
0
  6
CONTINUOUS
 62
     7
100
AcDbLine
 10
1691.7410537783
 20
873.591145886
 30
0.0
 11
1691.7410537783
 21
930.2578156322
 31
0.0
  0
LINE
  5
1A9
330
1F
100
AcDbEntity
  8
0
  6
CONTINUOUS
 62
     7
100
AcDbLine
 10
1665.0743827407
 20
873.591145886
 30
0.0
 11
1691.7410537783
 21
873.591145886
 31
0.0
  0
LINE
  5
1AA
330
1F
100
AcDbEntity
  8
0
  6
CONTINUOUS
 62
     7
100
AcDbLine
 10
1665.0743827407
 20
823.5911438992
 30
0.0
 11
1665.0743827407
 21
873.591145886
 31
0.0
  0
LINE
  5
1AB
330
1F
100
AcDbEntity
  8
0
  6
CONTINUOUS
 62
     7
100
AcDbLine
 10
1665.0743827407
 20
823.5911438992
 30
0.0
 11
1691.7410537783
 21
823.5911438992
 31
0.0
  0
LINE
  5
1AC
330
1F
100
AcDbEntity
  8
0
  6
CONTINUOUS
 62
     7
100
AcDbLine
 10
1691.7410537783
 20
766.9244865706
 30
0.0
 11
1691.7410537783
 21
823.5911438992
 31
0.0
  0
LINE
  5
1AD
330
1F
100
AcDbEntity
  8
0
  6
CONTINUOUS
 62
     7
100
AcDbLine
 10
1665.0743827407
 20
766.9244865706
 30
0.0
 11
1691.7410537783
 21
766.9244865706
 31
0.0
  0
LINE
  5
1AE
330
1F
100
AcDbEntity
  8
0
  6
CONTINUOUS
 62
     7
100
AcDbLine
 10
1665.0743827407
 20
716.9244845837
 30
0.0
 11
1665.0743827407
 21
766.9244865706
 31
0.0
  0
LINE
  5
1AF
330
1F
100
AcDbEntity
  8
0
  6
CONTINUOUS
 62
     7
100
AcDbLine
 10
1665.0743827407
 20
716.9244845837
 30
0.0
 11
1691.7410537783
 21
716.9244845837
 31
0.0
  0
LINE
  5
1B0
330
1F
100
AcDbEntity
  8
0
  6
CONTINUOUS
 62
     7
100
AcDbLine
 10
1691.7410537783
 20
603.5911450913
 30
0.0
 11
1691.7410537783
 21
716.9244845837
 31
0.0
  0
LINE
  5
1B1
330
1F
100
AcDbEntity
  8
0
  6
CONTINUOUS
 62
     7
100
AcDbLine
 10
1665.0743827407
 20
603.5911450913
 30
0.0
 11
1691.7410537783
 21
603.5911450913
 31
0.0
  0
LINE
  5
1B2
330
1F
100
AcDbEntity
  8
0
  6
CONTINUOUS
 62
     7
100
AcDbLine
 10
1665.0743827407
 20
553.5911431044
 30
0.0
 11
1665.0743827407
 21
603.5911450913
 31
0.0
  0
LINE
  5
1B3
330
1F
100
AcDbEntity
  8
0
  6
CONTINUOUS
 62
     7
100
AcDbLine
 10
1665.0743827407
 20
553.5911431044
 30
0.0
 11
1691.7410537783
 21
553.5911431044
 31
0.0
  0
LINE
  5
1B4
330
1F
100
AcDbEntity
  8
0
  6
CONTINUOUS
 62
     7
100
AcDbLine
 10
1691.7410537783
 20
496.9244609406
 30
0.0
 11
1691.7410537783
 21
553.5911431044
 31
0.0
  0
LINE
  5
1B5
330
1F
100
AcDbEntity
  8
0
  6
CONTINUOUS
 62
     7
100
AcDbLine
 10
1665.0743827407
 20
496.9244609406
 30
0.0
 11
1691.7410537783
 21
496.9244609406
 31
0.0
  0
LINE
  5
1B6
330
1F
100
AcDbEntity
  8
0
  6
CONTINUOUS
 62
     7
100
AcDbLine
 10
1665.0743827407
 20
446.9244589537
 30
0.0
 11
1665.0743827407
 21
496.9244609406
 31
0.0
  0
LINE
  5
1B7
330
1F
100
AcDbEntity
  8
0
  6
CONTINUOUS
 62
     7
100
AcDbLine
 10
1665.0743827407
 20
446.9244589537
 30
0.0
 11
1691.7410537783
 21
446.9244589537
 31
0.0
  0
LINE
  5
1B8
330
1F
100
AcDbEntity
  8
0
  6
CONTINUOUS
 62
     7
100
AcDbLine
 10
1691.7410537783
 20
390.2578264604
 30
0.0
 11
1691.7410537783
 21
446.9244589537
 31
0.0
  0
LINE
  5
1B9
330
1F
100
AcDbEntity
  8
0
  6
CONTINUOUS
 62
     7
100
AcDbLine
 10
1665.0743827407
 20
390.2578264604
 30
0.0
 11
1691.7410537783
 21
390.2578264604
 31
0.0
  0
LINE
  5
1BA
330
1F
100
AcDbEntity
  8
0
  6
CONTINUOUS
 62
     7
100
AcDbLine
 10
1665.0743827407
 20
340.2578244736
 30
0.0
 11
1665.0743827407
 21
390.2578264604
 31
0.0
  0
LINE
  5
1BB
330
1F
100
AcDbEntity
  8
0
  6
CONTINUOUS
 62
     7
100
AcDbLine
 10
1665.0743827407
 20
340.2578244736
 30
0.0
 11
1691.7410537783
 21
340.2578244736
 31
0.0
  0
LINE
  5
1BC
330
1F
100
AcDbEntity
  8
0
  6
CONTINUOUS
 62
     7
100
AcDbLine
 10
1691.7410537783
 20
310.2578133474
 30
0.0
 11
1691.7410537783
 21
340.2578244736
 31
0.0
  0
LINE
  5
1BD
330
1F
100
AcDbEntity
  8
0
  6
CONTINUOUS
 62
     7
100
AcDbLine
 10
1635.0743716145
 20
310.2578133474
 30
0.0
 11
1691.7410537783
 21
310.2578133474
 31
0.0
  0
LINE
  5
1BE
330
1F
100
AcDbEntity
  8
0
  6
CONTINUOUS
 62
     7
100
AcDbLine
 10
1635.0743716145
 20
283.5911423097
 30
0.0
 11
1635.0743716145
 21
310.2578133474
 31
0.0
  0
LINE
  5
1BF
330
1F
100
AcDbEntity
  8
0
  6
CONTINUOUS
 62
     7
100
AcDbLine
 10
1635.0743716145
 20
283.5911423097
 30
0.0
 11
1566.1854838514
 21
283.5911423097
 31
0.0
  0
LINE
  5
1C0
330
1F
100
AcDbEntity
  8
0
  6
CONTINUOUS
 62
     7
100
AcDbLine
 10
1566.1854838514
 20
283.5911423097
 30
0.0
 11
1566.1854838514
 21
310.2578133474
 31
0.0
  0
LINE
  5
1C1
330
1F
100
AcDbEntity
  8
0
  6
CONTINUOUS
 62
     7
100
AcDbLine
 10
1509.5188265228
 20
310.2578133474
 30
0.0
 11
1566.1854838514
 21
310.2578133474
 31
0.0
  0
LINE
  5
1C2
330
1F
100
AcDbEntity
  8
0
  6
CONTINUOUS
 62
     7
100
AcDbLine
 10
1509.5188265228
 20
283.5911423097
 30
0.0
 11
1509.5188265228
 21
310.2578133474
 31
0.0
  0
LINE
  5
1C3
330
1F
100
AcDbEntity
  8
0
  6
CONTINUOUS
 62
     7
100
AcDbLine
 10
1509.5188265228
 20
283.5911423097
 30
0.0
 11
1440.6299387598
 21
283.5911423097
 31
0.0
  0
LINE
  5
1C4
330
1F
100
AcDbEntity
  8
0
  6
CONTINUOUS
 62
     7
100
AcDbLine
 10
1440.6299387598
 20
283.5911423097
 30
0.0
 11
1440.6299387598
 21
310.2578133474
 31
0.0
  0
LINE
  5
1C5
330
1F
100
AcDbEntity
  8
0
  6
CONTINUOUS
 62
     7
100
AcDbLine
 10
1383.9632690136
 20
283.5911423097
 30
0.0
 11
1315.0743812505
 21
283.5911423097
 31
0.0
  0
LINE
  5
1C6
330
1F
100
AcDbEntity
  8
0
  6
CONTINUOUS
 62
     7
100
AcDbLine
 10
1258.4077115043
 20
340.2578244736
 30
0.0
 11
1258.4077115043
 21
310.2578133474
 31
0.0
  0
LINE
  5
1C7
330
1F
100
AcDbEntity
  8
0
  6
CONTINUOUS
 62
     7
100
AcDbLine
 10
1285.074382542
 20
340.2578244736
 30
0.0
 11
1258.4077115043
 21
340.2578244736
 31
0.0
  0
LINE
  5
1C8
330
1F
100
AcDbEntity
  8
0
  6
CONTINUOUS
 62
     7
100
AcDbLine
 10
1285.074382542
 20
340.2578244736
 30
0.0
 11
1285.074382542
 21
390.2578264604
 31
0.0
  0
LINE
  5
1C9
330
1F
100
AcDbEntity
  8
0
  6
CONTINUOUS
 62
     7
100
AcDbLine
 10
1285.074382542
 20
390.2578264604
 30
0.0
 11
1258.4077115043
 21
390.2578264604
 31
0.0
  0
LINE
  5
1CA
330
1F
100
AcDbEntity
  8
0
  6
CONTINUOUS
 62
     7
100
AcDbLine
 10
1258.4077115043
 20
446.9244589537
 30
0.0
 11
1258.4077115043
 21
390.2578264604
 31
0.0
  0
LINE
  5
1CB
330
1F
100
AcDbEntity
  8
0
  6
CONTINUOUS
 62
     7
100
AcDbLine
 10
1285.074382542
 20
446.9244589537
 30
0.0
 11
1258.4077115043
 21
446.9244589537
 31
0.0
  0
LINE
  5
1CC
330
1F
100
AcDbEntity
  8
0
  6
CONTINUOUS
 62
     7
100
AcDbLine
 10
1285.074382542
 20
446.9244589537
 30
0.0
 11
1285.074382542
 21
496.9244609406
 31
0.0
  0
LINE
  5
1CD
330
1F
100
AcDbEntity
  8
0
  6
CONTINUOUS
 62
     7
100
AcDbLine
 10
1285.074382542
 20
496.9244609406
 30
0.0
 11
1258.4077115043
 21
496.9244609406
 31
0.0
  0
LINE
  5
1CE
330
1F
100
AcDbEntity
  8
0
  6
CONTINUOUS
 62
     7
100
AcDbLine
 10
1258.4077115043
 20
553.5911431044
 30
0.0
 11
1258.4077115043
 21
496.9244609406
 31
0.0
  0
LINE
  5
1CF
330
1F
100
AcDbEntity
  8
0
  6
CONTINUOUS
 62
     7
100
AcDbLine
 10
1285.074382542
 20
553.5911431044
 30
0.0
 11
1258.4077115043
 21
553.5911431044
 31
0.0
  0
LINE
  5
1D0
330
1F
100
AcDbEntity
  8
0
  6
CONTINUOUS
 62
     7
100
AcDbLine
 10
1285.074382542
 20
553.5911431044
 30
0.0
 11
1285.074382542
 21
603.5911450913
 31
0.0
  0
LINE
  5
1D1
330
1F
100
AcDbEntity
  8
0
  6
CONTINUOUS
 62
     7
100
AcDbLine
 10
1285.074382542
 20
603.5911450913
 30
0.0
 11
1258.4077115043
 21
603.5911450913
 31
0.0
  0
LINE
  5
1D2
330
1F
100
AcDbEntity
  8
0
  6
CONTINUOUS
 62
     7
100
AcDbLine
 10
1258.4077115043
 20
716.9244845837
 30
0.0
 11
1258.4077115043
 21
603.5911450913
 31
0.0
  0
LINE
  5
1D3
330
1F
100
AcDbEntity
  8
0
  6
CONTINUOUS
 62
     7
100
AcDbLine
 10
1285.074382542
 20
716.9244845837
 30
0.0
 11
1258.4077115043
 21
716.9244845837
 31
0.0
  0
LINE
  5
1D4
330
1F
100
AcDbEntity
  8
0
  6
CONTINUOUS
 62
     7
100
AcDbLine
 10
1285.074382542
 20
716.9244845837
 30
0.0
 11
1285.074382542
 21
766.9244865706
 31
0.0
  0
LINE
  5
1D5
330
1F
100
AcDbEntity
  8
0
  6
CONTINUOUS
 62
     7
100
AcDbLine
 10
1285.074382542
 20
766.9244865706
 30
0.0
 11
1258.4077115043
 21
766.9244865706
 31
0.0
  0
LINE
  5
1D6
330
1F
100
AcDbEntity
  8
0
  6
CONTINUOUS
 62
     7
100
AcDbLine
 10
1258.4077115043
 20
823.5911438992
 30
0.0
 11
1258.4077115043
 21
766.9244865706
 31
0.0
  0
LINE
  5
1D7
330
1F
100
AcDbEntity
  8
0
  6
CONTINUOUS
 62
     7
100
AcDbLine
 10
1285.074382542
 20
823.5911438992
 30
0.0
 11
1258.4077115043
 21
823.5911438992
 31
0.0
  0
LINE
  5
1D8
330
1F
100
AcDbEntity
  8
0
  6
CONTINUOUS
 62
     7
100
AcDbLine
 10
1285.074382542
 20
823.5911438992
 30
0.0
 11
1285.074382542
 21
873.591145886
 31
0.0
  0
LINE
  5
1D9
330
1F
100
AcDbEntity
  8
0
  6
CONTINUOUS
 62
     7
100
AcDbLine
 10
1285.074382542
 20
873.591145886
 30
0.0
 11
1258.4077115043
 21
873.591145886
 31
0.0
  0
LINE
  5
1DA
330
1F
100
AcDbEntity
  8
0
  6
CONTINUOUS
 62
     7
100
AcDbLine
 10
1258.4077115043
 20
930.2578156322
 30
0.0
 11
1258.4077115043
 21
873.591145886
 31
0.0
  0
LINE
  5
1DB
330
1F
100
AcDbEntity
  8
0
  6
CONTINUOUS
 62
     7
100
AcDbLine
 10
1285.074382542
 20
930.2578156322
 30
0.0
 11
1258.4077115043
 21
930.2578156322
 31
0.0
  0
LINE
  5
1DC
330
1F
100
AcDbEntity
  8
0
  6
CONTINUOUS
 62
     7
100
AcDbLine
 10
1285.074382542
 20
930.2578156322
 30
0.0
 11
1285.074382542
 21
980.2578052014
 31
0.0
  0
LINE
  5
1DD
330
1F
100
AcDbEntity
  8
0
  6
CONTINUOUS
 62
     7
100
AcDbLine
 10
1285.074382542
 20
980.2578052014
 30
0.0
 11
1258.4077115043
 21
980.2578052014
 31
0.0
  0
LINE
  5
1DE
330
1F
100
AcDbEntity
  8
0
  6
CONTINUOUS
 62
     7
100
AcDbLine
 10
1258.4077115043
 20
1010.2578101188
 30
0.0
 11
1258.4077115043
 21
980.2578052014
 31
0.0
  0
LINE
  5
1DF
330
1F
100
AcDbEntity
  8
0
  6
CONTINUOUS
 62
     7
100
AcDbLine
 10
1383.9632690136
 20
1036.9244749477
 30
0.0
 11
1315.0743812505
 21
1036.9244749477
 31
0.0
  0
LINE
  5
1E0
330
1F
100
AcDbEntity
  8
0
  6
CONTINUOUS
 62
     7
100
AcDbLine
 10
1383.9632690136
 20
1036.9244749477
 30
0.0
 11
1383.9632690136
 21
1010.2578101188
 31
0.0
  0
ARC
  5
1E1
330
1F
100
AcDbEntity
  8
0
  6
CONTINUOUS
 62
     7
100
AcDbCircle
 10
1412.2966034469
 20
1010.2578110638
 30
0.0
 40
13.33333333333326
100
AcDbArc
 50
180.0
 51
0.0
  0
LINE
  5
1E2
330
1F
100
AcDbEntity
  8
0
  6
CONTINUOUS
 62
     7
100
AcDbLine
 10
1315.0743812505
 20
1036.9244749477
 30
0.0
 11
1315.0743812505
 21
1010.2578101188
 31
0.0
  0
LINE
  5
1E3
330
1F
100
AcDbEntity
  8
0
  6
CONTINUOUS
 62
     7
100
AcDbLine
 10
1258.4077115043
 20
310.2578133474
 30
0.0
 11
1315.0743812505
 21
310.2578133474
 31
0.0
  0
LINE
  5
1E4
330
1F
100
AcDbEntity
  8
0
  6
CONTINUOUS
 62
     7
100
AcDbLine
 10
1383.9632690136
 20
310.2578133474
 30
0.0
 11
1440.6299387598
 21
310.2578133474
 31
0.0
  0
LINE
  5
1E5
330
1F
100
AcDbEntity
  8
0
  6
CONTINUOUS
 62
     7
100
AcDbLine
 10
1383.9632690136
 20
283.5911423097
 30
0.0
 11
1383.9632690136
 21
310.2578133474
 31
0.0
  0
LINE
  5
1E6
330
1F
100
AcDbEntity
  8
0
  6
CONTINUOUS
 62
     7
100
AcDbLine
 10
1315.0743812505
 20
283.5911423097
 30
0.0
 11
1315.0743812505
 21
310.2578133474
 31
0.0
  0
LINE
  5
1E7
330
1F
100
AcDbEntity
  8
0
  6
CONTINUOUS
 62
     7
100
AcDbLine
 10
1315.0743812505
 20
1010.2578101188
 30
0.0
 11
1258.4077115043
 21
1010.2578101188
 31
0.0
  0
LINE
  5
1E8
330
1F
100
AcDbEntity
  8
0
  6
CONTINUOUS
 62
     7
100
AcDbLine
 10
1398.9632683679
 20
1010.2578101188
 30
0.0
 11
1383.9632690136
 21
1010.2578101188
 31
0.0
  0
LINE
  5
1E9
330
1F
100
AcDbEntity
  8
0
  6
CONTINUOUS
 62
     7
100
AcDbLine
 10
583.885689098
 20
570.2577938765
 30
0.0
 11
533.8856871112
 21
570.2577938765
 31
0.0
  0
LINE
  5
1EA
330
1F
100
AcDbEntity
  8
0
  6
CONTINUOUS
 62
     7
100
AcDbLine
 10
533.8856871112
 20
570.2577938765
 30
0.0
 11
533.8856871112
 21
536.9244923323
 31
0.0
  0
LINE
  5
1EB
330
1F
100
AcDbEntity
  8
0
  6
CONTINUOUS
 62
     7
100
AcDbLine
 10
533.8856871112
 20
536.9244923323
 30
0.0
 11
583.885689098
 21
536.9244923323
 31
0.0
  0
LINE
  5
1EC
330
1F
100
AcDbEntity
  8
0
  6
CONTINUOUS
 62
     7
100
AcDbLine
 10
583.885689098
 20
536.9244923323
 30
0.0
 11
583.885689098
 21
570.2577938765
 31
0.0
  0
LINE
  5
1ED
330
1F
100
AcDbEntity
  8
0
  6
CONTINUOUS
 62
     7
100
AcDbLine
 10
583.885689098
 20
670.2577978502
 30
0.0
 11
533.8856871112
 21
670.2577978502
 31
0.0
  0
LINE
  5
1EE
330
1F
100
AcDbEntity
  8
0
  6
CONTINUOUS
 62
     7
100
AcDbLine
 10
533.8856871112
 20
670.2577978502
 30
0.0
 11
533.8856871112
 21
636.924496306
 31
0.0
  0
LINE
  5
1EF
330
1F
100
AcDbEntity
  8
0
  6
CONTINUOUS
 62
     7
100
AcDbLine
 10
533.8856871112
 20
636.924496306
 30
0.0
 11
583.885689098
 21
636.924496306
 31
0.0
  0
LINE
  5
1F0
330
1F
100
AcDbEntity
  8
0
  6
CONTINUOUS
 62
     7
100
AcDbLine
 10
583.885689098
 20
636.924496306
 30
0.0
 11
583.885689098
 21
670.2577978502
 31
0.0
  0
LINE
  5
1F1
330
1F
100
AcDbEntity
  8
0
  6
CONTINUOUS
 62
     7
100
AcDbLine
 10
583.885689098
 20
818.5911337664
 30
0.0
 11
533.8856871112
 21
818.5911337664
 31
0.0
  0
LINE
  5
1F2
330
1F
100
AcDbEntity
  8
0
  6
CONTINUOUS
 62
     7
100
AcDbLine
 10
533.8856871112
 20
818.5911337664
 30
0.0
 11
533.8856871112
 21
785.2578073869
 31
0.0
  0
LINE
  5
1F3
330
1F
100
AcDbEntity
  8
0
  6
CONTINUOUS
 62
     7
100
AcDbLine
 10
533.8856871112
 20
785.2578073869
 30
0.0
 11
583.885689098
 21
785.2578073869
 31
0.0
  0
LINE
  5
1F4
330
1F
100
AcDbEntity
  8
0
  6
CONTINUOUS
 62
     7
100
AcDbLine
 10
583.885689098
 20
785.2578073869
 30
0.0
 11
583.885689098
 21
818.5911337664
 31
0.0
  0
CIRCLE
  5
1F5
330
1F
100
AcDbEntity
  8
0
  6
CONTINUOUS
 62
     7
100
AcDbCircle
 10
625.5523703492
 20
801.9244777305
 30
0.0
 40
7.5
  0
CIRCLE
  5
1F6
330
1F
100
AcDbEntity
  8
0
  6
CONTINUOUS
 62
     7
100
AcDbCircle
 10
492.2190370159
 20
801.9244777305
 30
0.0
 40
7.5
  0
CIRCLE
  5
1F7
330
1F
100
AcDbEntity
  8
0
  6
CONTINUOUS
 62
     7
100
AcDbCircle
 10
492.2190370159
 20
653.5911443972
 30
0.0
 40
7.5
  0
CIRCLE
  5
1F8
330
1F
100
AcDbEntity
  8
0
  6
CONTINUOUS
 62
     7
100
AcDbCircle
 10
625.5523703492
 20
653.5911443972
 30
0.0
 40
7.5
  0
CIRCLE
  5
1F9
330
1F
100
AcDbEntity
  8
0
  6
CONTINUOUS
 62
     7
100
AcDbCircle
 10
625.5523703492
 20
553.5911443972
 30
0.0
 40
7.5
  0
CIRCLE
  5
1FA
330
1F
100
AcDbEntity
  8
0
  6
CONTINUOUS
 62
     7
100
AcDbCircle
 10
492.2190370159
 20
553.5911443972
 30
0.0
 40
7.5
  0
LINE
  5
1FB
330
1F
100
AcDbEntity
  8
0
  6
CONTINUOUS
 62
     7
100
AcDbLine
 10
524.441281476
 20
1010.2578101188
 30
0.0
 11
509.4412759129
 21
1010.2578101188
 31
0.0
  0
LINE
  5
1FC
330
1F
100
AcDbEntity
  8
0
  6
CONTINUOUS
 62
     7
100
AcDbLine
 10
524.441281476
 20
1036.9244749477
 30
0.0
 11
524.441281476
 21
1010.2578101188
 31
0.0
  0
LINE
  5
1FD
330
1F
100
AcDbEntity
  8
0
  6
CONTINUOUS
 62
     7
100
AcDbLine
 10
593.3301444038
 20
1036.9244749477
 30
0.0
 11
524.441281476
 21
1036.9244749477
 31
0.0
  0
LINE
  5
1FE
330
1F
100
AcDbEntity
  8
0
  6
CONTINUOUS
 62
     7
100
AcDbLine
 10
593.3301444038
 20
1036.9244749477
 30
0.0
 11
593.3301444038
 21
1010.2578101188
 31
0.0
  0
LINE
  5
1FF
330
1F
100
AcDbEntity
  8
0
  6
CONTINUOUS
 62
     7
100
AcDbLine
 10
608.3301499669
 20
1010.2578101188
 30
0.0
 11
593.3301444038
 21
1010.2578101188
 31
0.0
  0
ARC
  5
200
330
1F
100
AcDbEntity
  8
0
  6
CONTINUOUS
 62
     7
100
AcDbCircle
 10
621.6634814603
 20
1010.2578110638
 30
0.0
 40
13.33333333333326
100
AcDbArc
 50
180.0
 51
0.0
  0
LINE
  5
201
330
1F
100
AcDbEntity
  8
0
  6
CONTINUOUS
 62
     7
100
AcDbLine
 10
649.9968265677
 20
1010.2578101188
 30
0.0
 11
634.9968210046
 21
1010.2578101188
 31
0.0
  0
LINE
  5
202
330
1F
100
AcDbEntity
  8
0
  6
CONTINUOUS
 62
     7
100
AcDbLine
 10
649.9968265677
 20
1036.9244749477
 30
0.0
 11
649.9968265677
 21
1010.2578101188
 31
0.0
  0
LINE
  5
203
330
1F
100
AcDbEntity
  8
0
  6
CONTINUOUS
 62
     7
100
AcDbLine
 10
718.8856894954
 20
1036.9244749477
 30
0.0
 11
649.9968265677
 21
1036.9244749477
 31
0.0
  0
LINE
  5
204
330
1F
100
AcDbEntity
  8
0
  6
CONTINUOUS
 62
     7
100
AcDbLine
 10
718.8856894954
 20
1036.9244749477
 30
0.0
 11
718.8856894954
 21
1010.2578101188
 31
0.0
  0
LINE
  5
205
330
1F
100
AcDbEntity
  8
0
  6
CONTINUOUS
 62
     7
100
AcDbLine
 10
775.5523716593
 20
1010.2578101188
 30
0.0
 11
718.8856894954
 21
1010.2578101188
 31
0.0
  0
LINE
  5
206
330
1F
100
AcDbEntity
  8
0
  6
CONTINUOUS
 62
     7
100
AcDbLine
 10
775.5523716593
 20
980.2578052014
 30
0.0
 11
775.5523716593
 21
1010.2578101188
 31
0.0
  0
LINE
  5
207
330
1F
100
AcDbEntity
  8
0
  6
CONTINUOUS
 62
     7
100
AcDbLine
 10
748.8857006216
 20
980.2578052014
 30
0.0
 11
775.5523716593
 21
980.2578052014
 31
0.0
  0
LINE
  5
208
330
1F
100
AcDbEntity
  8
0
  6
CONTINUOUS
 62
     7
100
AcDbLine
 10
748.8857006216
 20
930.2578156322
 30
0.0
 11
748.8857006216
 21
980.2578052014
 31
0.0
  0
LINE
  5
209
330
1F
100
AcDbEntity
  8
0
  6
CONTINUOUS
 62
     7
100
AcDbLine
 10
748.8857006216
 20
930.2578156322
 30
0.0
 11
775.5523716593
 21
930.2578156322
 31
0.0
  0
LINE
  5
20A
330
1F
100
AcDbEntity
  8
0
  6
CONTINUOUS
 62
     7
100
AcDbLine
 10
775.5523716593
 20
873.591145886
 30
0.0
 11
775.5523716593
 21
930.2578156322
 31
0.0
  0
LINE
  5
20B
330
1F
100
AcDbEntity
  8
0
  6
CONTINUOUS
 62
     7
100
AcDbLine
 10
748.8857006216
 20
873.591145886
 30
0.0
 11
775.5523716593
 21
873.591145886
 31
0.0
  0
LINE
  5
20C
330
1F
100
AcDbEntity
  8
0
  6
CONTINUOUS
 62
     7
100
AcDbLine
 10
748.8857006216
 20
823.5911438992
 30
0.0
 11
748.8857006216
 21
873.591145886
 31
0.0
  0
LINE
  5
20D
330
1F
100
AcDbEntity
  8
0
  6
CONTINUOUS
 62
     7
100
AcDbLine
 10
748.8857006216
 20
823.5911438992
 30
0.0
 11
775.5523716593
 21
823.5911438992
 31
0.0
  0
LINE
  5
20E
330
1F
100
AcDbEntity
  8
0
  6
CONTINUOUS
 62
     7
100
AcDbLine
 10
775.5523716593
 20
766.9244865706
 30
0.0
 11
775.5523716593
 21
823.5911438992
 31
0.0
  0
LINE
  5
20F
330
1F
100
AcDbEntity
  8
0
  6
CONTINUOUS
 62
     7
100
AcDbLine
 10
748.8857006216
 20
766.9244865706
 30
0.0
 11
775.5523716593
 21
766.9244865706
 31
0.0
  0
LINE
  5
210
330
1F
100
AcDbEntity
  8
0
  6
CONTINUOUS
 62
     7
100
AcDbLine
 10
748.8857006216
 20
716.9244845837
 30
0.0
 11
748.8857006216
 21
766.9244865706
 31
0.0
  0
LINE
  5
211
330
1F
100
AcDbEntity
  8
0
  6
CONTINUOUS
 62
     7
100
AcDbLine
 10
748.8857006216
 20
716.9244845837
 30
0.0
 11
775.5523716593
 21
716.9244845837
 31
0.0
  0
LINE
  5
212
330
1F
100
AcDbEntity
  8
0
  6
CONTINUOUS
 62
     7
100
AcDbLine
 10
775.5523716593
 20
603.5911450913
 30
0.0
 11
775.5523716593
 21
716.9244845837
 31
0.0
  0
LINE
  5
213
330
1F
100
AcDbEntity
  8
0
  6
CONTINUOUS
 62
     7
100
AcDbLine
 10
748.8857006216
 20
603.5911450913
 30
0.0
 11
775.5523716593
 21
603.5911450913
 31
0.0
  0
LINE
  5
214
330
1F
100
AcDbEntity
  8
0
  6
CONTINUOUS
 62
     7
100
AcDbLine
 10
748.8857006216
 20
553.5911431044
 30
0.0
 11
748.8857006216
 21
603.5911450913
 31
0.0
  0
LINE
  5
215
330
1F
100
AcDbEntity
  8
0
  6
CONTINUOUS
 62
     7
100
AcDbLine
 10
748.8857006216
 20
553.5911431044
 30
0.0
 11
775.5523716593
 21
553.5911431044
 31
0.0
  0
LINE
  5
216
330
1F
100
AcDbEntity
  8
0
  6
CONTINUOUS
 62
     7
100
AcDbLine
 10
775.5523716593
 20
496.9244609406
 30
0.0
 11
775.5523716593
 21
553.5911431044
 31
0.0
  0
LINE
  5
217
330
1F
100
AcDbEntity
  8
0
  6
CONTINUOUS
 62
     7
100
AcDbLine
 10
748.8857006216
 20
496.9244609406
 30
0.0
 11
775.5523716593
 21
496.9244609406
 31
0.0
  0
LINE
  5
218
330
1F
100
AcDbEntity
  8
0
  6
CONTINUOUS
 62
     7
100
AcDbLine
 10
748.8857006216
 20
446.9244589537
 30
0.0
 11
748.8857006216
 21
496.9244609406
 31
0.0
  0
LINE
  5
219
330
1F
100
AcDbEntity
  8
0
  6
CONTINUOUS
 62
     7
100
AcDbLine
 10
748.8857006216
 20
446.9244589537
 30
0.0
 11
775.5523716593
 21
446.9244589537
 31
0.0
  0
LINE
  5
21A
330
1F
100
AcDbEntity
  8
0
  6
CONTINUOUS
 62
     7
100
AcDbLine
 10
775.5523716593
 20
390.2578264604
 30
0.0
 11
775.5523716593
 21
446.9244589537
 31
0.0
  0
LINE
  5
21B
330
1F
100
AcDbEntity
  8
0
  6
CONTINUOUS
 62
     7
100
AcDbLine
 10
748.8857006216
 20
390.2578264604
 30
0.0
 11
775.5523716593
 21
390.2578264604
 31
0.0
  0
LINE
  5
21C
330
1F
100
AcDbEntity
  8
0
  6
CONTINUOUS
 62
     7
100
AcDbLine
 10
748.8857006216
 20
340.2578244736
 30
0.0
 11
748.8857006216
 21
390.2578264604
 31
0.0
  0
LINE
  5
21D
330
1F
100
AcDbEntity
  8
0
  6
CONTINUOUS
 62
     7
100
AcDbLine
 10
748.8857006216
 20
340.2578244736
 30
0.0
 11
775.5523716593
 21
340.2578244736
 31
0.0
  0
LINE
  5
21E
330
1F
100
AcDbEntity
  8
0
  6
CONTINUOUS
 62
     7
100
AcDbLine
 10
775.5523716593
 20
310.2578133474
 30
0.0
 11
775.5523716593
 21
340.2578244736
 31
0.0
  0
LINE
  5
21F
330
1F
100
AcDbEntity
  8
0
  6
CONTINUOUS
 62
     7
100
AcDbLine
 10
718.8856894954
 20
283.5911423097
 30
0.0
 11
649.9968265677
 21
283.5911423097
 31
0.0
  0
LINE
  5
220
330
1F
100
AcDbEntity
  8
0
  6
CONTINUOUS
 62
     7
100
AcDbLine
 10
593.3301444038
 20
310.2578133474
 30
0.0
 11
649.9968265677
 21
310.2578133474
 31
0.0
  0
LINE
  5
221
330
1F
100
AcDbEntity
  8
0
  6
CONTINUOUS
 62
     7
100
AcDbLine
 10
593.3301444038
 20
283.5911423097
 30
0.0
 11
593.3301444038
 21
310.2578133474
 31
0.0
  0
LINE
  5
222
330
1F
100
AcDbEntity
  8
0
  6
CONTINUOUS
 62
     7
100
AcDbLine
 10
593.3301444038
 20
283.5911423097
 30
0.0
 11
524.441281476
 21
283.5911423097
 31
0.0
  0
LINE
  5
223
330
1F
100
AcDbEntity
  8
0
  6
CONTINUOUS
 62
     7
100
AcDbLine
 10
524.441281476
 20
283.5911423097
 30
0.0
 11
524.441281476
 21
310.2578133474
 31
0.0
  0
LINE
  5
224
330
1F
100
AcDbEntity
  8
0
  6
CONTINUOUS
 62
     7
100
AcDbLine
 10
467.7745993122
 20
310.2578133474
 30
0.0
 11
524.441281476
 21
310.2578133474
 31
0.0
  0
LINE
  5
225
330
1F
100
AcDbEntity
  8
0
  6
CONTINUOUS
 62
     7
100
AcDbLine
 10
467.7745993122
 20
283.5911423097
 30
0.0
 11
467.7745993122
 21
310.2578133474
 31
0.0
  0
LINE
  5
226
330
1F
100
AcDbEntity
  8
0
  6
CONTINUOUS
 62
     7
100
AcDbLine
 10
467.7745993122
 20
283.5911423097
 30
0.0
 11
398.8857363844
 21
283.5911423097
 31
0.0
  0
LINE
  5
227
330
1F
100
AcDbEntity
  8
0
  6
CONTINUOUS
 62
     7
100
AcDbLine
 10
398.8857363844
 20
283.5911423097
 30
0.0
 11
398.8857363844
 21
310.2578133474
 31
0.0
  0
LINE
  5
228
330
1F
100
AcDbEntity
  8
0
  6
CONTINUOUS
 62
     7
100
AcDbLine
 10
342.21900455
 20
310.2578133474
 30
0.0
 11
398.8857363844
 21
310.2578133474
 31
0.0
  0
LINE
  5
229
330
1F
100
AcDbEntity
  8
0
  6
CONTINUOUS
 62
     7
100
AcDbLine
 10
342.21900455
 20
340.2578244736
 30
0.0
 11
342.21900455
 21
310.2578133474
 31
0.0
  0
LINE
  5
22A
330
1F
100
AcDbEntity
  8
0
  6
CONTINUOUS
 62
     7
100
AcDbLine
 10
368.8857252582
 20
340.2578244736
 30
0.0
 11
342.21900455
 21
340.2578244736
 31
0.0
  0
LINE
  5
22B
330
1F
100
AcDbEntity
  8
0
  6
CONTINUOUS
 62
     7
100
AcDbLine
 10
368.8857252582
 20
340.2578244736
 30
0.0
 11
368.8857252582
 21
390.2578264604
 31
0.0
  0
LINE
  5
22C
330
1F
100
AcDbEntity
  8
0
  6
CONTINUOUS
 62
     7
100
AcDbLine
 10
368.8857252582
 20
390.2578264604
 30
0.0
 11
342.21900455
 21
390.2578264604
 31
0.0
  0
LINE
  5
22D
330
1F
100
AcDbEntity
  8
0
  6
CONTINUOUS
 62
     7
100
AcDbLine
 10
342.21900455
 20
446.9244589537
 30
0.0
 11
342.21900455
 21
390.2578264604
 31
0.0
  0
LINE
  5
22E
330
1F
100
AcDbEntity
  8
0
  6
CONTINUOUS
 62
     7
100
AcDbLine
 10
368.8857252582
 20
446.9244589537
 30
0.0
 11
342.21900455
 21
446.9244589537
 31
0.0
  0
LINE
  5
22F
330
1F
100
AcDbEntity
  8
0
  6
CONTINUOUS
 62
     7
100
AcDbLine
 10
368.8857252582
 20
446.9244589537
 30
0.0
 11
368.8857252582
 21
496.9244609406
 31
0.0
  0
LINE
  5
230
330
1F
100
AcDbEntity
  8
0
  6
CONTINUOUS
 62
     7
100
AcDbLine
 10
368.8857252582
 20
496.9244609406
 30
0.0
 11
342.21900455
 21
496.9244609406
 31
0.0
  0
LINE
  5
231
330
1F
100
AcDbEntity
  8
0
  6
CONTINUOUS
 62
     7
100
AcDbLine
 10
342.21900455
 20
553.5911431044
 30
0.0
 11
342.21900455
 21
496.9244609406
 31
0.0
  0
LINE
  5
232
330
1F
100
AcDbEntity
  8
0
  6
CONTINUOUS
 62
     7
100
AcDbLine
 10
368.8857252582
 20
553.5911431044
 30
0.0
 11
342.21900455
 21
553.5911431044
 31
0.0
  0
LINE
  5
233
330
1F
100
AcDbEntity
  8
0
  6
CONTINUOUS
 62
     7
100
AcDbLine
 10
368.8857252582
 20
553.5911431044
 30
0.0
 11
368.8857252582
 21
603.5911450913
 31
0.0
  0
LINE
  5
234
330
1F
100
AcDbEntity
  8
0
  6
CONTINUOUS
 62
     7
100
AcDbLine
 10
368.8857252582
 20
603.5911450913
 30
0.0
 11
342.21900455
 21
603.5911450913
 31
0.0
  0
LINE
  5
235
330
1F
100
AcDbEntity
  8
0
  6
CONTINUOUS
 62
     7
100
AcDbLine
 10
342.21900455
 20
716.9244845837
 30
0.0
 11
342.21900455
 21
603.5911450913
 31
0.0
  0
LINE
  5
236
330
1F
100
AcDbEntity
  8
0
  6
CONTINUOUS
 62
     7
100
AcDbLine
 10
368.8857252582
 20
716.9244845837
 30
0.0
 11
342.21900455
 21
716.9244845837
 31
0.0
  0
LINE
  5
237
330
1F
100
AcDbEntity
  8
0
  6
CONTINUOUS
 62
     7
100
AcDbLine
 10
368.8857252582
 20
716.9244845837
 30
0.0
 11
368.8857252582
 21
766.9244865706
 31
0.0
  0
LINE
  5
238
330
1F
100
AcDbEntity
  8
0
  6
CONTINUOUS
 62
     7
100
AcDbLine
 10
368.8857252582
 20
766.9244865706
 30
0.0
 11
342.21900455
 21
766.9244865706
 31
0.0
  0
LINE
  5
239
330
1F
100
AcDbEntity
  8
0
  6
CONTINUOUS
 62
     7
100
AcDbLine
 10
342.21900455
 20
823.5911438992
 30
0.0
 11
342.21900455
 21
766.9244865706
 31
0.0
  0
LINE
  5
23A
330
1F
100
AcDbEntity
  8
0
  6
CONTINUOUS
 62
     7
100
AcDbLine
 10
368.8857252582
 20
823.5911438992
 30
0.0
 11
342.21900455
 21
823.5911438992
 31
0.0
  0
LINE
  5
23B
330
1F
100
AcDbEntity
  8
0
  6
CONTINUOUS
 62
     7
100
AcDbLine
 10
368.8857252582
 20
823.5911438992
 30
0.0
 11
368.8857252582
 21
873.591145886
 31
0.0
  0
LINE
  5
23C
330
1F
100
AcDbEntity
  8
0
  6
CONTINUOUS
 62
     7
100
AcDbLine
 10
368.8857252582
 20
873.591145886
 30
0.0
 11
342.21900455
 21
873.591145886
 31
0.0
  0
LINE
  5
23D
330
1F
100
AcDbEntity
  8
0
  6
CONTINUOUS
 62
     7
100
AcDbLine
 10
342.21900455
 20
930.2578156322
 30
0.0
 11
342.21900455
 21
873.591145886
 31
0.0
  0
LINE
  5
23E
330
1F
100
AcDbEntity
  8
0
  6
CONTINUOUS
 62
     7
100
AcDbLine
 10
368.8857252582
 20
930.2578156322
 30
0.0
 11
342.21900455
 21
930.2578156322
 31
0.0
  0
LINE
  5
23F
330
1F
100
AcDbEntity
  8
0
  6
CONTINUOUS
 62
     7
100
AcDbLine
 10
368.8857252582
 20
930.2578156322
 30
0.0
 11
368.8857252582
 21
980.2578052014
 31
0.0
  0
LINE
  5
240
330
1F
100
AcDbEntity
  8
0
  6
CONTINUOUS
 62
     7
100
AcDbLine
 10
368.8857252582
 20
980.2578052014
 30
0.0
 11
342.21900455
 21
980.2578052014
 31
0.0
  0
LINE
  5
241
330
1F
100
AcDbEntity
  8
0
  6
CONTINUOUS
 62
     7
100
AcDbLine
 10
342.21900455
 20
1010.2578101188
 30
0.0
 11
342.21900455
 21
980.2578052014
 31
0.0
  0
LINE
  5
242
330
1F
100
AcDbEntity
  8
0
  6
CONTINUOUS
 62
     7
100
AcDbLine
 10
398.8857363844
 20
1010.2578101188
 30
0.0
 11
342.21900455
 21
1010.2578101188
 31
0.0
  0
LINE
  5
243
330
1F
100
AcDbEntity
  8
0
  6
CONTINUOUS
 62
     7
100
AcDbLine
 10
398.8857363844
 20
1036.9244749477
 30
0.0
 11
398.8857363844
 21
1010.2578101188
 31
0.0
  0
LINE
  5
244
330
1F
100
AcDbEntity
  8
0
  6
CONTINUOUS
 62
     7
100
AcDbLine
 10
467.7745993122
 20
1036.9244749477
 30
0.0
 11
398.8857363844
 21
1036.9244749477
 31
0.0
  0
LINE
  5
245
330
1F
100
AcDbEntity
  8
0
  6
CONTINUOUS
 62
     7
100
AcDbLine
 10
467.7745993122
 20
1036.9244749477
 30
0.0
 11
467.7745993122
 21
1010.2578101188
 31
0.0
  0
LINE
  5
246
330
1F
100
AcDbEntity
  8
0
  6
CONTINUOUS
 62
     7
100
AcDbLine
 10
482.7746048753
 20
1010.2578101188
 30
0.0
 11
467.7745993122
 21
1010.2578101188
 31
0.0
  0
ARC
  5
247
330
1F
100
AcDbEntity
  8
0
  6
CONTINUOUS
 62
     7
100
AcDbCircle
 10
496.1079259048
 20
1010.2578110638
 30
0.0
 40
13.33333333333337
100
AcDbArc
 50
180.0
 51
0.0
  0
LINE
  5
248
330
1F
100
AcDbEntity
  8
0
  6
CONTINUOUS
 62
     7
100
AcDbLine
 10
718.8856894954
 20
310.2578133474
 30
0.0
 11
775.5523716593
 21
310.2578133474
 31
0.0
  0
LINE
  5
249
330
1F
100
AcDbEntity
  8
0
  6
CONTINUOUS
 62
     7
100
AcDbLine
 10
718.8856894954
 20
283.5911423097
 30
0.0
 11
718.8856894954
 21
310.2578133474
 31
0.0
  0
LINE
  5
24A
330
1F
100
AcDbEntity
  8
0
  6
CONTINUOUS
 62
     7
100
AcDbLine
 10
649.9968265677
 20
283.5911423097
 30
0.0
 11
649.9968265677
 21
310.2578133474
 31
0.0
  0
LINE
  5
24B
330
1F
100
AcDbEntity
  8
0
  6
CONTINUOUS
 62
     7
100
AcDbLine
 10
806.2376871888
 20
340.2578244736
 30
0.0
 11
806.2376871888
 21
283.5911423097
 31
0.0
  0
LINE
  5
24C
330
1F
100
AcDbEntity
  8
0
  6
CONTINUOUS
 62
     7
100
AcDbLine
 10
832.9043582265
 20
340.2578244736
 30
0.0
 11
806.2376871888
 21
340.2578244736
 31
0.0
  0
LINE
  5
24D
330
1F
100
AcDbEntity
  8
0
  6
CONTINUOUS
 62
     7
100
AcDbLine
 10
832.9043582265
 20
409.1466874013
 30
0.0
 11
832.9043582265
 21
340.2578244736
 31
0.0
  0
LINE
  5
24E
330
1F
100
AcDbEntity
  8
0
  6
CONTINUOUS
 62
     7
100
AcDbLine
 10
832.9043582265
 20
409.1466874013
 30
0.0
 11
806.2376871888
 21
409.1466874013
 31
0.0
  0
LINE
  5
24F
330
1F
100
AcDbEntity
  8
0
  6
CONTINUOUS
 62
     7
100
AcDbLine
 10
806.2376871888
 20
465.8133695652
 30
0.0
 11
806.2376871888
 21
409.1466874013
 31
0.0
  0
LINE
  5
250
330
1F
100
AcDbEntity
  8
0
  6
CONTINUOUS
 62
     7
100
AcDbLine
 10
832.9043582265
 20
465.8133695652
 30
0.0
 11
806.2376871888
 21
465.8133695652
 31
0.0
  0
LINE
  5
251
330
1F
100
AcDbEntity
  8
0
  6
CONTINUOUS
 62
     7
100
AcDbLine
 10
832.9043582265
 20
534.702232493
 30
0.0
 11
832.9043582265
 21
465.8133695652
 31
0.0
  0
LINE
  5
252
330
1F
100
AcDbEntity
  8
0
  6
CONTINUOUS
 62
     7
100
AcDbLine
 10
832.9043582265
 20
534.702232493
 30
0.0
 11
806.2376871888
 21
534.702232493
 31
0.0
  0
LINE
  5
253
330
1F
100
AcDbEntity
  8
0
  6
CONTINUOUS
 62
     7
100
AcDbLine
 10
806.2376871888
 20
591.3689146568
 30
0.0
 11
806.2376871888
 21
534.702232493
 31
0.0
  0
LINE
  5
254
330
1F
100
AcDbEntity
  8
0
  6
CONTINUOUS
 62
     7
100
AcDbLine
 10
832.9043582265
 20
591.3689146568
 30
0.0
 11
806.2376871888
 21
591.3689146568
 31
0.0
  0
LINE
  5
255
330
1F
100
AcDbEntity
  8
0
  6
CONTINUOUS
 62
     7
100
AcDbLine
 10
832.9043582265
 20
660.2578272551
 30
0.0
 11
832.9043582265
 21
591.3689146568
 31
0.0
  0
LINE
  5
256
330
1F
100
AcDbEntity
  8
0
  6
CONTINUOUS
 62
     7
100
AcDbLine
 10
832.9043582265
 20
660.2578272551
 30
0.0
 11
806.2376871888
 21
660.2578272551
 31
0.0
  0
LINE
  5
257
330
1F
100
AcDbEntity
  8
0
  6
CONTINUOUS
 62
     7
100
AcDbLine
 10
806.2376871888
 20
773.5911419123
 30
0.0
 11
806.2376871888
 21
660.2578272551
 31
0.0
  0
LINE
  5
258
330
1F
100
AcDbEntity
  8
0
  6
CONTINUOUS
 62
     7
100
AcDbLine
 10
832.9043582265
 20
773.5911419123
 30
0.0
 11
806.2376871888
 21
773.5911419123
 31
0.0
  0
LINE
  5
259
330
1F
100
AcDbEntity
  8
0
  6
CONTINUOUS
 62
     7
100
AcDbLine
 10
832.9043582265
 20
842.4800296754
 30
0.0
 11
806.2376871888
 21
842.4800296754
 31
0.0
  0
LINE
  5
25A
330
1F
100
AcDbEntity
  8
0
  6
CONTINUOUS
 62
     7
100
AcDbLine
 10
806.2376871888
 20
899.1466994216
 30
0.0
 11
806.2376871888
 21
842.4800296754
 31
0.0
  0
LINE
  5
25B
330
1F
100
AcDbEntity
  8
0
  6
CONTINUOUS
 62
     7
100
AcDbLine
 10
832.9043582265
 20
968.0355871846
 30
0.0
 11
832.9043582265
 21
899.1466994216
 31
0.0
  0
LINE
  5
25C
330
1F
100
AcDbEntity
  8
0
  6
CONTINUOUS
 62
     7
100
AcDbLine
 10
832.9043582265
 20
968.0355871846
 30
0.0
 11
806.2376871888
 21
968.0355871846
 31
0.0
  0
LINE
  5
25D
330
1F
100
AcDbEntity
  8
0
  6
CONTINUOUS
 62
     7
100
AcDbLine
 10
806.2376871888
 20
1024.7022569309
 30
0.0
 11
806.2376871888
 21
968.0355871846
 31
0.0
  0
LINE
  5
25E
330
1F
100
AcDbEntity
  8
0
  6
CONTINUOUS
 62
     7
100
AcDbLine
 10
832.9043582265
 20
1024.7022569309
 30
0.0
 11
806.2376871888
 21
1024.7022569309
 31
0.0
  0
LINE
  5
25F
330
1F
100
AcDbEntity
  8
0
  6
CONTINUOUS
 62
     7
100
AcDbLine
 10
832.9043582265
 20
1093.5911446939
 30
0.0
 11
832.9043582265
 21
1024.7022569309
 31
0.0
  0
LINE
  5
260
330
1F
100
AcDbEntity
  8
0
  6
CONTINUOUS
 62
     7
100
AcDbLine
 10
832.9043582265
 20
1093.5911446939
 30
0.0
 11
806.2376871888
 21
1093.5911446939
 31
0.0
  0
LINE
  5
261
330
1F
100
AcDbEntity
  8
0
  6
CONTINUOUS
 62
     7
100
AcDbLine
 10
862.9043693527
 20
1150.2578113357
 30
0.0
 11
806.2376871888
 21
1150.2578113357
 31
0.0
  0
LINE
  5
262
330
1F
100
AcDbEntity
  8
0
  6
CONTINUOUS
 62
     7
100
AcDbLine
 10
862.9043693527
 20
1150.2578113357
 30
0.0
 11
862.9043693527
 21
1123.5911449547
 31
0.0
  0
LINE
  5
263
330
1F
100
AcDbEntity
  8
0
  6
CONTINUOUS
 62
     7
100
AcDbLine
 10
862.9043693527
 20
1123.5911449547
 30
0.0
 11
931.7932322804
 21
1123.5911449547
 31
0.0
  0
LINE
  5
264
330
1F
100
AcDbEntity
  8
0
  6
CONTINUOUS
 62
     7
100
AcDbLine
 10
931.7932322804
 20
1123.5911449547
 30
0.0
 11
931.7932322804
 21
1150.2578113357
 31
0.0
  0
LINE
  5
265
330
1F
100
AcDbEntity
  8
0
  6
CONTINUOUS
 62
     7
100
AcDbLine
 10
988.4599144443
 20
1150.2578113357
 30
0.0
 11
931.7932322804
 21
1150.2578113357
 31
0.0
  0
LINE
  5
266
330
1F
100
AcDbEntity
  8
0
  6
CONTINUOUS
 62
     7
100
AcDbLine
 10
988.4599144443
 20
1150.2578113357
 30
0.0
 11
988.4599144443
 21
1123.5911449547
 31
0.0
  0
LINE
  5
267
330
1F
100
AcDbEntity
  8
0
  6
CONTINUOUS
 62
     7
100
AcDbLine
 10
988.4599144443
 20
1123.5911449547
 30
0.0
 11
1057.3488022073
 21
1123.5911449547
 31
0.0
  0
LINE
  5
268
330
1F
100
AcDbEntity
  8
0
  6
CONTINUOUS
 62
     7
100
AcDbLine
 10
1057.3488022073
 20
1123.5911449547
 30
0.0
 11
1057.3488022073
 21
1150.2578113357
 31
0.0
  0
LINE
  5
269
330
1F
100
AcDbEntity
  8
0
  6
CONTINUOUS
 62
     7
100
AcDbLine
 10
1114.0154595359
 20
1150.2578113357
 30
0.0
 11
1057.3488022073
 21
1150.2578113357
 31
0.0
  0
LINE
  5
26A
330
1F
100
AcDbEntity
  8
0
  6
CONTINUOUS
 62
     7
100
AcDbLine
 10
1114.0154595359
 20
1150.2578113357
 30
0.0
 11
1114.0154595359
 21
1123.5911449547
 31
0.0
  0
LINE
  5
26B
330
1F
100
AcDbEntity
  8
0
  6
CONTINUOUS
 62
     7
100
AcDbLine
 10
1114.0154595359
 20
1123.5911449547
 30
0.0
 11
1182.9043472989
 21
1123.5911449547
 31
0.0
  0
LINE
  5
26C
330
1F
100
AcDbEntity
  8
0
  6
CONTINUOUS
 62
     7
100
AcDbLine
 10
1182.9043472989
 20
1123.5911449547
 30
0.0
 11
1182.9043472989
 21
1150.2578113357
 31
0.0
  0
LINE
  5
26D
330
1F
100
AcDbEntity
  8
0
  6
CONTINUOUS
 62
     7
100
AcDbLine
 10
1239.5710170452
 20
1150.2578113357
 30
0.0
 11
1182.9043472989
 21
1150.2578113357
 31
0.0
  0
LINE
  5
26E
330
1F
100
AcDbEntity
  8
0
  6
CONTINUOUS
 62
     7
100
AcDbLine
 10
1239.5710170452
 20
1093.5911446939
 30
0.0
 11
1239.5710170452
 21
1150.2578113357
 31
0.0
  0
LINE
  5
26F
330
1F
100
AcDbEntity
  8
0
  6
CONTINUOUS
 62
     7
100
AcDbLine
 10
1212.9043460075
 20
1093.5911446939
 30
0.0
 11
1239.5710170452
 21
1093.5911446939
 31
0.0
  0
LINE
  5
270
330
1F
100
AcDbEntity
  8
0
  6
CONTINUOUS
 62
     7
100
AcDbLine
 10
1212.9043460075
 20
1093.5911446939
 30
0.0
 11
1212.9043460075
 21
1024.7022569309
 31
0.0
  0
LINE
  5
271
330
1F
100
AcDbEntity
  8
0
  6
CONTINUOUS
 62
     7
100
AcDbLine
 10
1212.9043460075
 20
1024.7022569309
 30
0.0
 11
1239.5710170452
 21
1024.7022569309
 31
0.0
  0
LINE
  5
272
330
1F
100
AcDbEntity
  8
0
  6
CONTINUOUS
 62
     7
100
AcDbLine
 10
1239.5710170452
 20
968.0355871846
 30
0.0
 11
1239.5710170452
 21
1024.7022569309
 31
0.0
  0
LINE
  5
273
330
1F
100
AcDbEntity
  8
0
  6
CONTINUOUS
 62
     7
100
AcDbLine
 10
1212.9043460075
 20
968.0355871846
 30
0.0
 11
1239.5710170452
 21
968.0355871846
 31
0.0
  0
LINE
  5
274
330
1F
100
AcDbEntity
  8
0
  6
CONTINUOUS
 62
     7
100
AcDbLine
 10
1212.9043460075
 20
968.0355871846
 30
0.0
 11
1212.9043460075
 21
899.1466994216
 31
0.0
  0
LINE
  5
275
330
1F
100
AcDbEntity
  8
0
  6
CONTINUOUS
 62
     7
100
AcDbLine
 10
1212.9043460075
 20
899.1466994216
 30
0.0
 11
1239.5710170452
 21
899.1466994216
 31
0.0
  0
LINE
  5
276
330
1F
100
AcDbEntity
  8
0
  6
CONTINUOUS
 62
     7
100
AcDbLine
 10
1239.5710170452
 20
842.4800296754
 30
0.0
 11
1239.5710170452
 21
899.1466994216
 31
0.0
  0
LINE
  5
277
330
1F
100
AcDbEntity
  8
0
  6
CONTINUOUS
 62
     7
100
AcDbLine
 10
1212.9043460075
 20
842.4800296754
 30
0.0
 11
1239.5710170452
 21
842.4800296754
 31
0.0
  0
LINE
  5
278
330
1F
100
AcDbEntity
  8
0
  6
CONTINUOUS
 62
     7
100
AcDbLine
 10
1212.9043460075
 20
842.4800296754
 30
0.0
 11
1212.9043460075
 21
773.5911419123
 31
0.0
  0
LINE
  5
279
330
1F
100
AcDbEntity
  8
0
  6
CONTINUOUS
 62
     7
100
AcDbLine
 10
1212.9043460075
 20
773.5911419123
 30
0.0
 11
1239.5710170452
 21
773.5911419123
 31
0.0
  0
LINE
  5
27A
330
1F
100
AcDbEntity
  8
0
  6
CONTINUOUS
 62
     7
100
AcDbLine
 10
1239.5710170452
 20
660.2578272551
 30
0.0
 11
1239.5710170452
 21
773.5911419123
 31
0.0
  0
LINE
  5
27B
330
1F
100
AcDbEntity
  8
0
  6
CONTINUOUS
 62
     7
100
AcDbLine
 10
1212.9043460075
 20
660.2578272551
 30
0.0
 11
1212.9043460075
 21
591.3689146568
 31
0.0
  0
LINE
  5
27C
330
1F
100
AcDbEntity
  8
0
  6
CONTINUOUS
 62
     7
100
AcDbLine
 10
1239.5710170452
 20
534.702232493
 30
0.0
 11
1239.5710170452
 21
591.3689146568
 31
0.0
  0
LINE
  5
27D
330
1F
100
AcDbEntity
  8
0
  6
CONTINUOUS
 62
     7
100
AcDbLine
 10
1212.9043460075
 20
534.702232493
 30
0.0
 11
1239.5710170452
 21
534.702232493
 31
0.0
  0
LINE
  5
27E
330
1F
100
AcDbEntity
  8
0
  6
CONTINUOUS
 62
     7
100
AcDbLine
 10
1212.9043460075
 20
534.702232493
 30
0.0
 11
1212.9043460075
 21
465.8133695652
 31
0.0
  0
LINE
  5
27F
330
1F
100
AcDbEntity
  8
0
  6
CONTINUOUS
 62
     7
100
AcDbLine
 10
1212.9043460075
 20
465.8133695652
 30
0.0
 11
1239.5710170452
 21
465.8133695652
 31
0.0
  0
LINE
  5
280
330
1F
100
AcDbEntity
  8
0
  6
CONTINUOUS
 62
     7
100
AcDbLine
 10
1239.5710170452
 20
409.1466874013
 30
0.0
 11
1239.5710170452
 21
465.8133695652
 31
0.0
  0
LINE
  5
281
330
1F
100
AcDbEntity
  8
0
  6
CONTINUOUS
 62
     7
100
AcDbLine
 10
1212.9043460075
 20
409.1466874013
 30
0.0
 11
1239.5710170452
 21
409.1466874013
 31
0.0
  0
LINE
  5
282
330
1F
100
AcDbEntity
  8
0
  6
CONTINUOUS
 62
     7
100
AcDbLine
 10
1212.9043460075
 20
409.1466874013
 30
0.0
 11
1212.9043460075
 21
340.2578244736
 31
0.0
  0
LINE
  5
283
330
1F
100
AcDbEntity
  8
0
  6
CONTINUOUS
 62
     7
100
AcDbLine
 10
1212.9043460075
 20
340.2578244736
 30
0.0
 11
1239.5710170452
 21
340.2578244736
 31
0.0
  0
LINE
  5
284
330
1F
100
AcDbEntity
  8
0
  6
CONTINUOUS
 62
     7
100
AcDbLine
 10
1182.9043472989
 20
283.5911423097
 30
0.0
 11
1239.5710170452
 21
283.5911423097
 31
0.0
  0
LINE
  5
285
330
1F
100
AcDbEntity
  8
0
  6
CONTINUOUS
 62
     7
100
AcDbLine
 10
1182.9043472989
 20
310.2578133474
 30
0.0
 11
1182.9043472989
 21
283.5911423097
 31
0.0
  0
LINE
  5
286
330
1F
100
AcDbEntity
  8
0
  6
CONTINUOUS
 62
     7
100
AcDbLine
 10
1114.0154595359
 20
310.2578133474
 30
0.0
 11
1182.9043472989
 21
310.2578133474
 31
0.0
  0
LINE
  5
287
330
1F
100
AcDbEntity
  8
0
  6
CONTINUOUS
 62
     7
100
AcDbLine
 10
1114.0154595359
 20
283.5911423097
 30
0.0
 11
1114.0154595359
 21
310.2578133474
 31
0.0
  0
LINE
  5
288
330
1F
100
AcDbEntity
  8
0
  6
CONTINUOUS
 62
     7
100
AcDbLine
 10
1057.3488022073
 20
283.5911423097
 30
0.0
 11
1114.0154595359
 21
283.5911423097
 31
0.0
  0
LINE
  5
289
330
1F
100
AcDbEntity
  8
0
  6
CONTINUOUS
 62
     7
100
AcDbLine
 10
1057.3488022073
 20
310.2578133474
 30
0.0
 11
1057.3488022073
 21
283.5911423097
 31
0.0
  0
LINE
  5
28A
330
1F
100
AcDbEntity
  8
0
  6
CONTINUOUS
 62
     7
100
AcDbLine
 10
988.4599144443
 20
310.2578133474
 30
0.0
 11
1057.3488022073
 21
310.2578133474
 31
0.0
  0
LINE
  5
28B
330
1F
100
AcDbEntity
  8
0
  6
CONTINUOUS
 62
     7
100
AcDbLine
 10
988.4599144443
 20
283.5911423097
 30
0.0
 11
988.4599144443
 21
310.2578133474
 31
0.0
  0
LINE
  5
28C
330
1F
100
AcDbEntity
  8
0
  6
CONTINUOUS
 62
     7
100
AcDbLine
 10
931.7932322804
 20
283.5911423097
 30
0.0
 11
988.4599144443
 21
283.5911423097
 31
0.0
  0
LINE
  5
28D
330
1F
100
AcDbEntity
  8
0
  6
CONTINUOUS
 62
     7
100
AcDbLine
 10
931.7932322804
 20
310.2578133474
 30
0.0
 11
931.7932322804
 21
283.5911423097
 31
0.0
  0
LINE
  5
28E
330
1F
100
AcDbEntity
  8
0
  6
CONTINUOUS
 62
     7
100
AcDbLine
 10
862.9043693527
 20
310.2578133474
 30
0.0
 11
931.7932322804
 21
310.2578133474
 31
0.0
  0
LINE
  5
28F
330
1F
100
AcDbEntity
  8
0
  6
CONTINUOUS
 62
     7
100
AcDbLine
 10
862.9043693527
 20
283.5911423097
 30
0.0
 11
862.9043693527
 21
310.2578133474
 31
0.0
  0
LINE
  5
290
330
1F
100
AcDbEntity
  8
0
  6
CONTINUOUS
 62
     7
100
AcDbLine
 10
806.2376871888
 20
283.5911423097
 30
0.0
 11
862.9043693527
 21
283.5911423097
 31
0.0
  0
CIRCLE
  5
291
330
1F
100
AcDbEntity
  8
0
  6
CONTINUOUS
 62
     7
100
AcDbCircle
 10
1089.5710151412
 20
753.5911443972
 30
0.0
 40
10.99999999999989
  0
CIRCLE
  5
292
330
1F
100
AcDbEntity
  8
0
  6
CONTINUOUS
 62
     7
100
AcDbCircle
 10
1022.9043484745
 20
820.2578110638
 30
0.0
 40
11.00000000000011
  0
CIRCLE
  5
293
330
1F
100
AcDbEntity
  8
0
  6
CONTINUOUS
 62
     7
100
AcDbCircle
 10
956.2376818078
 20
753.5911443972
 30
0.0
 40
10.99999999999989
  0
CIRCLE
  5
294
330
1F
100
AcDbEntity
  8
0
  6
CONTINUOUS
 62
     7
100
AcDbCircle
 10
1022.9043484745
 20
686.9244777305
 30
0.0
 40
11.0
  0
LINE
  5
295
330
1F
100
AcDbEntity
  8
0
  6
CONTINUOUS
 62
     7
100
AcDbLine
 10
1212.9043460075
 20
591.3689146568
 30
0.0
 11
1239.5710170452
 21
591.3689146568
 31
0.0
  0
LINE
  5
296
330
1F
100
AcDbEntity
  8
0
  6
CONTINUOUS
 62
     7
100
AcDbLine
 10
1239.5710170452
 20
283.5911423097
 30
0.0
 11
1239.5710170452
 21
340.2578244736
 31
0.0
  0
LINE
  5
297
330
1F
100
AcDbEntity
  8
0
  6
CONTINUOUS
 62
     7
100
AcDbLine
 10
832.9043582265
 20
899.1466994216
 30
0.0
 11
806.2376871888
 21
899.1466994216
 31
0.0
  0
LINE
  5
298
330
1F
100
AcDbEntity
  8
0
  6
CONTINUOUS
 62
     7
100
AcDbLine
 10
832.9043582265
 20
842.4800296754
 30
0.0
 11
832.9043582265
 21
773.5911419123
 31
0.0
  0
LINE
  5
299
330
1F
100
AcDbEntity
  8
0
  6
CONTINUOUS
 62
     7
100
AcDbLine
 10
1212.9043460075
 20
660.2578272551
 30
0.0
 11
1239.5710170452
 21
660.2578272551
 31
0.0
  0
LINE
  5
29A
330
1F
100
AcDbEntity
  8
0
  6
CONTINUOUS
 62
     7
100
AcDbLine
 10
806.2376871888
 20
1150.2578113357
 30
0.0
 11
806.2376871888
 21
1093.5911446939
 31
0.0
  0
CIRCLE
  5
29B
330
1F
100
AcDbEntity
  8
0
  6
HIDDEN
 62
     7
100
AcDbCircle
 10
956.2376818078
 20
753.5911443972
 30
0.0
 40
18.33333333333326
  0
CIRCLE
  5
29C
330
1F
100
AcDbEntity
  8
0
  6
HIDDEN
 62
     7
100
AcDbCircle
 10
1022.9043484745
 20
820.2578110638
 30
0.0
 40
18.33333333333337
  0
CIRCLE
  5
29D
330
1F
100
AcDbEntity
  8
0
  6
HIDDEN
 62
     7
100
AcDbCircle
 10
1022.9043484745
 20
686.9244777305
 30
0.0
 40
18.33333333333326
  0
CIRCLE
  5
29E
330
1F
100
AcDbEntity
  8
0
  6
HIDDEN
 62
     7
100
AcDbCircle
 10
1089.5710151412
 20
753.5911443972
 30
0.0
 40
18.33333333333326
  0
DIMENSION
  5
29F
330
1F
100
AcDbEntity
  8
QUOTE
 62
     5
100
AcDbDimension
  2
_D
 10
1223.5749793894
 20
1987.8578778637
 30
0.0
 11
790.2416460561
 21
1987.8578778637
 31
0.0
 70
   160
  1
<>
  3
SLDDIMSTYLE0
100
AcDbAlignedDimension
 13
356.9083127228
 23
1874.530275444
 33
0.0
 14
1223.5749793894
 24
1874.530275444
 34
0.0
100
AcDbRotatedDimension
  0
DIMENSION
  5
2B2
330
1F
100
AcDbEntity
  8
QUOTE
 62
     5
100
AcDbDimension
  2
_D_1
 10
267.3076980712
 20
1177.8636087774
 30
0.0
 11
267.3076980712
 21
1554.530275444
 31
0.0
 70
   160
  1
<>
  3
SLDDIMSTYLE0
100
AcDbAlignedDimension
 13
664.6860905005
 23
1931.1969421107
 33
0.0
 14
664.6860905005
 24
1177.8636087774
 34
0.0
 50
90.0
100
AcDbRotatedDimension
  0
DIMENSION
  5
2BC
330
1F
100
AcDbEntity
  8
QUOTE
 62
     5
100
AcDbDimension
  2
_D_2
 10
775.5523703492
 20
200.1708156477
 30
0.0
 11
558.8857036826
 21
200.1708156477
 31
0.0
 70
   160
  1
<>
  3
SLDDIMSTYLE0
100
AcDbAlignedDimension
 13
342.2190370159
 23
310.2578110638
 33
0.0
 14
775.5523703492
 24
310.2578110638
 34
0.0
 50
0.0
100
AcDbRotatedDimension
  0
DIMENSION
  5
2C6
330
1F
100
AcDbEntity
  8
QUOTE
 62
     5
100
AcDbDimension
  2
_D_3
 10
275.063768503
 20
1036.9244777305
 30
0.0
 11
275.063768503
 21
660.2578110638
 31
0.0
 70
   160
  1
<>
  3
SLDDIMSTYLE0
100
AcDbAlignedDimension
 13
524.4412592381
 23
283.5911443972
 33
0.0
 14
524.4412592381
 24
1036.9244777305
 34
0.0
 50
90.0
100
AcDbRotatedDimension
  0
ENDSEC
  0
SECTION
  2
OBJECTS
  0
DICTIONARY
  5
C
330
0
100
AcDbDictionary
  3
ACAD_GROUP
350
D
  3
ACAD_MLINESTYLE
350
17
  3
ACAD_SCALELIST
350
47
  0
DICTIONARY
  5
D
102
{ACAD_REACTORS
330
C
102
}
330
C
100
AcDbDictionary
  0
DICTIONARY
  5
17
102
{ACAD_REACTORS
330
C
102
}
330
C
100
AcDbDictionary
  3
STANDARD
350
18
  0
DICTIONARY
  5
47
102
{ACAD_REACTORS
330
C
102
}
330
C
100
AcDbDictionary
  0
MLINESTYLE
  5
18
102
{ACAD_REACTORS
330
17
102
}
330
17
100
AcDbMlineStyle
  2
Standard
 70
     0
  3

 62
   256
 51
90.0
 52
90.0
 71
     2
 49
0.5
 62
   256
  6
BYLAYER
 49
-0.5
 62
   256
  6
BYLAYER
  0
ENDSEC
  0
EOF
